<svg width="251" height="219" viewBox="0 0 251 219" fill="none" xmlns="http://www.w3.org/2000/svg">
<rect width="251" height="219" fill="white"/>
<rect x="15" y="15" width="226" height="147" rx="5" fill="#ED254E"/>
<rect x="28" y="38" width="123" height="117" rx="5" fill="#63C7B2"/>
<rect x="169" y="38" width="57" height="117" rx="5" fill="#63C7B2"/>
<rect x="40" y="106" width="98" height="42" rx="5" fill="#EE8434"/>
<path d="M178.472 75.744C178.392 75.6853 178.352 75.6213 178.352 75.552C178.352 75.4773 178.381 75.416 178.44 75.368C178.339 74.6053 178.288 73.7307 178.288 72.744C178.288 72.4453 178.301 71.864 178.328 71C178.355 70.92 178.408 70.8507 178.488 70.792C178.573 70.7333 178.653 70.704 178.728 70.704C178.803 70.704 178.848 70.7067 178.864 70.712C179.627 70.9253 180.291 71.3387 180.856 71.952C181.421 72.56 181.717 73.2907 181.744 74.144C181.744 75.0827 181.355 75.672 180.576 75.912C180.352 75.9813 180.115 76.016 179.864 76.016C179.619 76.016 179.403 75.9973 179.216 75.96C179.237 76.0027 179.248 76.0587 179.248 76.128C179.248 76.2027 179.203 76.272 179.112 76.336C179.027 76.4053 178.923 76.44 178.8 76.44C178.683 76.44 178.608 76.368 178.576 76.224L178.472 75.744ZM178.952 72.68C178.952 73.6133 179.005 74.4987 179.112 75.336C179.24 75.3733 179.456 75.392 179.76 75.392C180.064 75.392 180.355 75.3413 180.632 75.24C180.915 75.1387 181.064 74.9893 181.08 74.792C181.096 74.6427 181.104 74.528 181.104 74.448C181.104 73.7547 180.917 73.1413 180.544 72.608C180.176 72.0747 179.659 71.6693 178.992 71.392C178.965 72.0213 178.952 72.4507 178.952 72.68ZM183.253 72.296C183.536 72.296 183.805 72.3787 184.061 72.544C184.317 72.7093 184.445 72.9147 184.445 73.16C184.445 73.4 184.341 73.6347 184.133 73.864C183.925 74.088 183.648 74.224 183.301 74.272C183.152 74.2933 182.928 74.304 182.629 74.304C182.688 74.7573 182.802 75.056 182.973 75.2C183.026 75.2587 183.098 75.288 183.189 75.288C183.52 75.288 183.797 75.184 184.021 74.976C184.245 74.7627 184.405 74.656 184.501 74.656C184.544 74.656 184.608 74.696 184.693 74.776C184.778 74.856 184.821 74.9307 184.821 75C184.821 75.1387 184.653 75.3387 184.317 75.6C184.168 75.7227 183.986 75.8267 183.773 75.912C183.565 75.992 183.37 76.032 183.189 76.032C182.725 76.032 182.384 75.7333 182.165 75.136C182.026 74.768 181.957 74.3627 181.957 73.92C181.957 73.4773 182.061 73.096 182.269 72.776C182.477 72.456 182.805 72.296 183.253 72.296ZM183.293 72.848C183.09 72.848 182.917 72.9627 182.773 73.192C182.72 73.272 182.669 73.4533 182.621 73.736C183.368 73.736 183.741 73.552 183.741 73.184C183.741 72.96 183.592 72.848 183.293 72.848ZM187.872 72.224C187.947 72.224 188.003 72.2507 188.04 72.304C188.078 72.352 188.096 72.4053 188.096 72.464L188.088 72.544C187.864 73.1147 187.699 73.5787 187.592 73.936C187.523 74.1867 187.47 74.3733 187.432 74.496C187.4 74.6187 187.344 74.8347 187.264 75.144C187.184 75.4533 187.131 75.6533 187.104 75.744C187.03 75.9253 186.899 76.016 186.712 76.016C186.622 76.016 186.558 75.9573 186.52 75.84C186.35 75.3067 186.099 74.704 185.768 74.032C185.438 73.36 185.248 72.976 185.2 72.88C185.158 72.7787 185.136 72.688 185.136 72.608C185.136 72.528 185.171 72.4507 185.24 72.376C185.315 72.3013 185.398 72.264 185.488 72.264C185.579 72.264 185.656 72.312 185.72 72.408C185.779 72.5253 185.944 72.8533 186.216 73.392C186.494 73.9307 186.688 74.3547 186.8 74.664C186.806 74.632 186.824 74.5653 186.856 74.464C187.128 73.52 187.35 72.8453 187.52 72.44C187.611 72.296 187.728 72.224 187.872 72.224ZM189.644 72.296C189.926 72.296 190.196 72.3787 190.452 72.544C190.708 72.7093 190.836 72.9147 190.836 73.16C190.836 73.4 190.732 73.6347 190.524 73.864C190.316 74.088 190.038 74.224 189.692 74.272C189.542 74.2933 189.318 74.304 189.02 74.304C189.078 74.7573 189.193 75.056 189.363 75.2C189.417 75.2587 189.489 75.288 189.58 75.288C189.91 75.288 190.188 75.184 190.412 74.976C190.636 74.7627 190.796 74.656 190.892 74.656C190.934 74.656 190.998 74.696 191.084 74.776C191.169 74.856 191.212 74.9307 191.212 75C191.212 75.1387 191.044 75.3387 190.708 75.6C190.558 75.7227 190.377 75.8267 190.164 75.912C189.956 75.992 189.761 76.032 189.58 76.032C189.116 76.032 188.774 75.7333 188.556 75.136C188.417 74.768 188.348 74.3627 188.348 73.92C188.348 73.4773 188.452 73.096 188.66 72.776C188.868 72.456 189.196 72.296 189.644 72.296ZM189.684 72.848C189.481 72.848 189.308 72.9627 189.164 73.192C189.11 73.272 189.06 73.4533 189.012 73.736C189.758 73.736 190.132 73.552 190.132 73.184C190.132 72.96 189.982 72.848 189.684 72.848ZM191.655 70.824C191.671 70.6213 191.703 70.4907 191.751 70.432C191.804 70.368 191.887 70.336 191.999 70.336C192.228 70.336 192.343 70.4293 192.343 70.616C192.343 70.76 192.33 71.136 192.303 71.744C192.282 72.352 192.271 72.896 192.271 73.376C192.271 73.856 192.29 74.2427 192.327 74.536C192.391 75.048 192.482 75.304 192.599 75.304C192.716 75.304 192.804 75.2213 192.863 75.056C192.89 74.992 192.932 74.936 192.991 74.888C193.05 74.8347 193.124 74.808 193.215 74.808C193.402 74.808 193.495 74.9653 193.495 75.28C193.495 75.4507 193.402 75.6213 193.215 75.792C193.034 75.9573 192.852 76.04 192.671 76.04C192.49 76.04 192.343 76.0107 192.231 75.952C192.124 75.888 192.036 75.7947 191.967 75.672C191.903 75.5493 191.85 75.432 191.807 75.32C191.77 75.2027 191.743 75.0613 191.727 74.896C191.695 74.6293 191.671 74.2027 191.655 73.616C191.644 73.024 191.639 72.4613 191.639 71.928C191.639 71.3893 191.644 71.0213 191.655 70.824ZM195.22 72.272C195.604 72.272 195.919 72.456 196.164 72.824C196.415 73.192 196.54 73.6347 196.54 74.152C196.54 74.664 196.412 75.1013 196.156 75.464C195.905 75.8267 195.569 76.008 195.148 76.008C194.732 76.008 194.396 75.824 194.14 75.456C193.884 75.0827 193.756 74.6693 193.756 74.216C193.756 73.6347 193.873 73.1707 194.108 72.824C194.359 72.456 194.729 72.272 195.22 72.272ZM195.124 72.928C194.9 72.928 194.716 73.0453 194.572 73.28C194.428 73.5147 194.356 73.7627 194.356 74.024C194.356 74.4293 194.436 74.7387 194.596 74.952C194.756 75.1653 194.937 75.272 195.14 75.272C195.503 75.272 195.735 75.1147 195.836 74.8C195.879 74.6507 195.9 74.464 195.9 74.24C195.9 73.3653 195.641 72.928 195.124 72.928ZM198.295 75.992C198.113 75.992 197.945 75.9307 197.791 75.808C197.791 75.808 197.756 75.7787 197.687 75.72V78.12C197.655 78.2267 197.599 78.3147 197.519 78.384C197.439 78.4587 197.353 78.496 197.263 78.496C197.124 78.496 197.055 78.4027 197.055 78.216V72.64C197.087 72.5013 197.124 72.4027 197.167 72.344C197.215 72.2853 197.287 72.256 197.383 72.256C197.484 72.256 197.548 72.28 197.575 72.328C197.607 72.3707 197.644 72.4933 197.687 72.696C197.708 72.5893 197.793 72.4907 197.943 72.4C198.092 72.3093 198.292 72.264 198.543 72.264C199.087 72.264 199.473 72.4613 199.703 72.856C199.932 73.2507 200.047 73.7173 200.047 74.256C200.047 74.7893 199.889 75.2133 199.575 75.528C199.265 75.8373 198.839 75.992 198.295 75.992ZM197.687 73.592V75.08C197.719 75.096 197.756 75.1227 197.799 75.16C197.953 75.2987 198.121 75.368 198.303 75.368C199.039 75.368 199.407 74.9893 199.407 74.232C199.407 73.5867 199.241 73.1787 198.911 73.008C198.772 72.9333 198.601 72.896 198.399 72.896C198.201 72.9227 198.033 73.0107 197.895 73.16C197.756 73.304 197.687 73.448 197.687 73.592ZM200.908 76.008C200.77 76.008 200.687 75.9307 200.66 75.776C200.66 74.6987 200.596 73.7387 200.468 72.896C200.468 72.7893 200.506 72.6933 200.58 72.608C200.66 72.5227 200.748 72.48 200.844 72.48C200.946 72.48 201.02 72.536 201.068 72.648C201.266 72.3867 201.53 72.256 201.86 72.256C202.282 72.256 202.607 72.4587 202.836 72.864C203.103 72.48 203.455 72.288 203.892 72.288C204.335 72.288 204.666 72.464 204.884 72.816C205.028 73.0347 205.13 73.3227 205.188 73.68C205.247 74.0373 205.276 74.544 205.276 75.2C205.276 75.456 205.25 75.656 205.196 75.8C205.143 75.9387 205.031 76.008 204.86 76.008C204.722 76.008 204.652 75.92 204.652 75.744L204.676 74.744C204.676 73.544 204.364 72.944 203.74 72.944C203.543 72.944 203.404 73.0133 203.324 73.152C203.234 73.3173 203.18 73.4907 203.164 73.672C203.143 73.992 203.132 74.2827 203.132 74.544V75.704C203.132 75.7893 203.09 75.8613 203.004 75.92C202.919 75.9787 202.831 76.008 202.74 76.008C202.623 76.008 202.548 75.9307 202.516 75.776L202.54 74.12C202.54 73.5333 202.442 73.168 202.244 73.024C202.148 72.9547 202.002 72.92 201.804 72.92C201.612 72.92 201.468 72.992 201.372 73.136C201.282 73.28 201.236 73.512 201.236 73.832L201.284 75.32C201.284 75.7787 201.159 76.008 200.908 76.008ZM207.042 72.296C207.325 72.296 207.594 72.3787 207.85 72.544C208.106 72.7093 208.234 72.9147 208.234 73.16C208.234 73.4 208.13 73.6347 207.922 73.864C207.714 74.088 207.437 74.224 207.09 74.272C206.941 74.2933 206.717 74.304 206.418 74.304C206.477 74.7573 206.591 75.056 206.762 75.2C206.815 75.2587 206.887 75.288 206.978 75.288C207.309 75.288 207.586 75.184 207.81 74.976C208.034 74.7627 208.194 74.656 208.29 74.656C208.333 74.656 208.397 74.696 208.482 74.776C208.567 74.856 208.61 74.9307 208.61 75C208.61 75.1387 208.442 75.3387 208.106 75.6C207.957 75.7227 207.775 75.8267 207.562 75.912C207.354 75.992 207.159 76.032 206.978 76.032C206.514 76.032 206.173 75.7333 205.954 75.136C205.815 74.768 205.746 74.3627 205.746 73.92C205.746 73.4773 205.85 73.096 206.058 72.776C206.266 72.456 206.594 72.296 207.042 72.296ZM207.082 72.848C206.879 72.848 206.706 72.9627 206.562 73.192C206.509 73.272 206.458 73.4533 206.41 73.736C207.157 73.736 207.53 73.552 207.53 73.184C207.53 72.96 207.381 72.848 207.082 72.848ZM209.381 75.752L209.293 72.504C209.293 72.4027 209.328 72.32 209.397 72.256C209.467 72.192 209.536 72.16 209.605 72.16C209.776 72.16 209.875 72.232 209.901 72.376C209.923 72.52 209.933 72.6693 209.933 72.824C210.221 72.4453 210.581 72.256 211.013 72.256C211.675 72.256 212.005 73.0107 212.005 74.52C212.005 74.6587 212.005 74.8693 212.005 75.152C212.005 75.4293 211.989 75.632 211.957 75.76C211.92 75.92 211.805 76 211.613 76C211.485 76 211.421 75.9147 211.421 75.744L211.429 75.296C211.429 74.6773 211.408 74.256 211.365 74.032C211.328 73.8027 211.291 73.6213 211.253 73.488C211.163 73.2 211.016 73.056 210.813 73.056C210.547 73.056 210.36 73.152 210.253 73.344C210.136 73.552 210.067 73.7973 210.045 74.08C210.008 74.576 209.989 75.1013 209.989 75.656C209.989 75.7627 209.949 75.848 209.869 75.912C209.789 75.976 209.693 76.008 209.581 76.008C209.448 76.008 209.381 75.9227 209.381 75.752ZM212.895 72.264L213.295 72.272C213.385 72.272 213.436 72.2693 213.447 72.264V70.624C213.452 70.5333 213.497 70.456 213.583 70.392C213.668 70.328 213.748 70.296 213.823 70.296C213.897 70.296 213.956 70.32 213.999 70.368C214.047 70.416 214.068 70.4907 214.063 70.592C214.057 70.6933 214.055 71.248 214.055 72.256L214.991 72.224C215.151 72.224 215.231 72.3173 215.231 72.504C215.231 72.6427 215.188 72.7467 215.103 72.816C215.023 72.8853 214.935 72.9227 214.839 72.928C214.748 72.9333 214.657 72.936 214.567 72.936L214.079 72.928C214.079 73.1467 214.1 73.5787 214.143 74.224C214.191 74.8693 214.228 75.288 214.255 75.48C214.281 75.6667 214.287 75.7893 214.271 75.848C214.255 75.9013 214.225 75.9387 214.183 75.96C214.113 75.992 214.02 76.008 213.903 76.008C213.785 76.008 213.716 75.944 213.695 75.816C213.588 75.1173 213.516 74.1573 213.479 72.936C213.431 72.9413 213.247 72.944 212.927 72.944C212.607 72.944 212.447 72.8507 212.447 72.664C212.447 72.3973 212.596 72.264 212.895 72.264ZM178.352 81.808L181.592 81.76C181.747 81.808 181.824 81.8853 181.824 81.992C181.824 82.2587 181.715 82.392 181.496 82.392C181.096 82.392 180.672 82.4027 180.224 82.424C180.197 82.8827 180.184 83.2293 180.184 83.464C180.184 83.6933 180.184 83.84 180.184 83.904L180.216 86.712C180.216 86.8773 180.173 86.9733 180.088 87C180.024 87.0213 179.944 87.032 179.848 87.032C179.693 87.032 179.608 86.944 179.592 86.768C179.56 86.3573 179.544 85.592 179.544 84.472C179.544 83.3467 179.56 82.6693 179.592 82.44C179.48 82.4453 179.315 82.448 179.096 82.448C178.877 82.448 178.605 82.4453 178.28 82.44C178.195 82.44 178.128 82.4133 178.08 82.36C178.032 82.3067 178.008 82.2427 178.008 82.168C178.008 82.088 178.04 82.0107 178.104 81.936C178.173 81.8613 178.256 81.8187 178.352 81.808ZM183.462 83.272C183.846 83.272 184.161 83.456 184.406 83.824C184.657 84.192 184.782 84.6347 184.782 85.152C184.782 85.664 184.654 86.1013 184.398 86.464C184.148 86.8267 183.812 87.008 183.39 87.008C182.974 87.008 182.638 86.824 182.382 86.456C182.126 86.0827 181.998 85.6693 181.998 85.216C181.998 84.6347 182.116 84.1707 182.35 83.824C182.601 83.456 182.972 83.272 183.462 83.272ZM183.366 83.928C183.142 83.928 182.958 84.0453 182.814 84.28C182.67 84.5147 182.598 84.7627 182.598 85.024C182.598 85.4293 182.678 85.7387 182.838 85.952C182.998 86.1653 183.18 86.272 183.382 86.272C183.745 86.272 183.977 86.1147 184.078 85.8C184.121 85.6507 184.142 85.464 184.142 85.24C184.142 84.3653 183.884 83.928 183.366 83.928ZM186.689 83.272C187.073 83.272 187.387 83.456 187.633 83.824C187.883 84.192 188.009 84.6347 188.009 85.152C188.009 85.664 187.881 86.1013 187.625 86.464C187.374 86.8267 187.038 87.008 186.617 87.008C186.201 87.008 185.865 86.824 185.609 86.456C185.353 86.0827 185.225 85.6693 185.225 85.216C185.225 84.6347 185.342 84.1707 185.577 83.824C185.827 83.456 186.198 83.272 186.689 83.272ZM186.593 83.928C186.369 83.928 186.185 84.0453 186.041 84.28C185.897 84.5147 185.825 84.7627 185.825 85.024C185.825 85.4293 185.905 85.7387 186.065 85.952C186.225 86.1653 186.406 86.272 186.609 86.272C186.971 86.272 187.203 86.1147 187.305 85.8C187.347 85.6507 187.369 85.464 187.369 85.24C187.369 84.3653 187.11 83.928 186.593 83.928ZM188.475 81.824C188.491 81.6213 188.523 81.4907 188.571 81.432C188.625 81.368 188.707 81.336 188.819 81.336C189.049 81.336 189.163 81.4293 189.163 81.616C189.163 81.76 189.15 82.136 189.123 82.744C189.102 83.352 189.091 83.896 189.091 84.376C189.091 84.856 189.11 85.2427 189.147 85.536C189.211 86.048 189.302 86.304 189.419 86.304C189.537 86.304 189.625 86.2213 189.683 86.056C189.71 85.992 189.753 85.936 189.811 85.888C189.87 85.8347 189.945 85.808 190.035 85.808C190.222 85.808 190.315 85.9653 190.315 86.28C190.315 86.4507 190.222 86.6213 190.035 86.792C189.854 86.9573 189.673 87.04 189.491 87.04C189.31 87.04 189.163 87.0107 189.051 86.952C188.945 86.888 188.857 86.7947 188.787 86.672C188.723 86.5493 188.67 86.432 188.627 86.32C188.59 86.2027 188.563 86.0613 188.547 85.896C188.515 85.6293 188.491 85.2027 188.475 84.616C188.465 84.024 188.459 83.4613 188.459 82.928C188.459 82.3893 188.465 82.0213 188.475 81.824ZM190.76 84.28C190.76 83.9653 190.872 83.7147 191.096 83.528C191.32 83.3413 191.579 83.248 191.872 83.248C192.171 83.248 192.456 83.3013 192.728 83.408C193 83.5147 193.136 83.656 193.136 83.832C193.136 83.9227 193.102 83.9947 193.032 84.048C192.963 84.1013 192.902 84.128 192.848 84.128C192.8 84.128 192.76 84.128 192.728 84.128C192.702 84.1227 192.595 84.072 192.408 83.976C192.227 83.88 192.059 83.832 191.904 83.832C191.75 83.832 191.616 83.872 191.504 83.952C191.398 84.0267 191.344 84.1387 191.344 84.288C191.344 84.4373 191.406 84.5547 191.528 84.64C191.656 84.7253 191.878 84.8 192.192 84.864C192.507 84.9227 192.747 85.008 192.912 85.12C193.083 85.232 193.168 85.44 193.168 85.744C193.168 86.1867 193.051 86.5013 192.816 86.688C192.587 86.8693 192.307 86.96 191.976 86.96C191.646 86.96 191.363 86.9147 191.128 86.824C190.899 86.7333 190.784 86.5973 190.784 86.416C190.784 86.208 190.888 86.104 191.096 86.104C191.15 86.104 191.267 86.1413 191.448 86.216C191.63 86.2907 191.808 86.328 191.984 86.328C192.166 86.328 192.302 86.272 192.392 86.16C192.488 86.0427 192.536 85.9093 192.536 85.76C192.536 85.6107 192.475 85.504 192.352 85.44C192.23 85.3707 192.043 85.3147 191.792 85.272C191.542 85.2293 191.358 85.184 191.24 85.136C190.92 85.008 190.76 84.7227 190.76 84.28Z" fill="black"/>
<path d="M48.216 123.888L48.224 123.264L48.296 119.92C48.296 119.856 48.3307 119.805 48.4 119.768C48.4693 119.731 48.5573 119.712 48.664 119.712C48.92 119.712 49.048 119.803 49.048 119.984C49.048 120.043 49.016 120.491 48.952 121.328C48.8933 122.165 48.864 122.667 48.864 122.832C48.864 122.832 48.864 123.115 48.864 123.68C48.864 124.08 48.8907 124.299 48.944 124.336C49.024 124.363 49.1173 124.376 49.224 124.376L50.376 124.296C50.6267 124.296 50.752 124.387 50.752 124.568C50.752 124.712 50.6827 124.819 50.544 124.888C50.4107 124.952 50.2773 124.989 50.144 125C50.0107 125.005 49.848 125.008 49.656 125.008C48.8187 125.008 48.3653 124.981 48.296 124.928C48.2587 124.896 48.2373 124.776 48.232 124.568C48.2267 124.355 48.2213 124.205 48.216 124.12C48.216 124.035 48.216 123.957 48.216 123.888ZM51.8086 119.944C51.9046 119.944 51.9952 119.989 52.0806 120.08C52.1659 120.171 52.2086 120.267 52.2086 120.368C52.2086 120.464 52.1606 120.563 52.0646 120.664C51.9739 120.765 51.8779 120.816 51.7766 120.816C51.6752 120.816 51.5819 120.773 51.4966 120.688C51.4166 120.603 51.3766 120.493 51.3766 120.36C51.3766 120.104 51.5152 119.965 51.7926 119.944C51.7979 119.944 51.8032 119.944 51.8086 119.944ZM52.1446 124.136L52.1526 124.696C52.1526 124.797 52.1126 124.883 52.0326 124.952C51.9526 125.016 51.8672 125.048 51.7766 125.048C51.6432 125.048 51.5739 124.981 51.5686 124.848C51.4992 123.147 51.4646 122.205 51.4646 122.024C51.4646 121.843 51.4726 121.621 51.4886 121.36C51.4992 121.264 51.5606 121.216 51.6726 121.216C51.9552 121.216 52.1152 121.331 52.1526 121.56C52.1686 121.677 52.1766 121.771 52.1766 121.84L52.1446 122.344V124.136ZM53.0856 119.592C53.0856 119.379 53.219 119.272 53.4856 119.272C53.6083 119.272 53.6803 119.347 53.7016 119.496V120.696C53.7016 120.92 53.7043 121.144 53.7096 121.368C53.8163 121.336 53.9523 121.32 54.1176 121.32C54.635 121.32 55.035 121.493 55.3176 121.84C55.6003 122.187 55.7416 122.621 55.7416 123.144C55.7416 123.667 55.5736 124.109 55.2376 124.472C54.907 124.829 54.4803 125.008 53.9576 125.008C53.435 125.008 53.1736 124.861 53.1736 124.568C53.1736 124.269 53.1576 123.517 53.1256 122.312C53.099 121.101 53.0856 120.195 53.0856 119.592ZM54.7016 122.168C54.5096 122.019 54.307 121.944 54.0936 121.944C53.9763 121.944 53.8563 121.965 53.7336 122.008C53.7656 122.445 53.7816 123.221 53.7816 124.336C53.8723 124.368 53.9656 124.384 54.0616 124.384C54.2696 124.384 54.4776 124.307 54.6856 124.152C54.995 123.939 55.1496 123.613 55.1496 123.176C55.1496 122.733 55.0003 122.397 54.7016 122.168ZM57.3985 123.832L57.4065 124.656C57.4065 124.752 57.3612 124.84 57.2705 124.92C57.1852 125 57.0998 125.04 57.0145 125.04C56.8918 125.04 56.8145 124.944 56.7825 124.752C56.7772 124.709 56.7558 124.32 56.7185 123.584C56.6812 122.843 56.6092 122.261 56.5025 121.84C56.4545 121.637 56.4305 121.517 56.4305 121.48C56.4305 121.304 56.5372 121.216 56.7505 121.216C56.8412 121.216 56.9132 121.251 56.9665 121.32C57.0198 121.389 57.0518 121.461 57.0625 121.536C57.0785 121.605 57.0918 121.701 57.1025 121.824C57.1132 121.947 57.1212 122.024 57.1265 122.056C57.2385 121.789 57.4065 121.589 57.6305 121.456C57.8545 121.323 58.0998 121.256 58.3665 121.256C58.8038 121.256 59.0225 121.368 59.0225 121.592C59.0225 121.704 58.9825 121.795 58.9025 121.864C58.8278 121.928 58.7398 121.96 58.6385 121.96C58.1852 121.96 57.8652 122.104 57.6785 122.392C57.4918 122.68 57.3985 123.16 57.3985 123.832ZM61.6766 121.264C61.9113 121.264 62.0286 121.464 62.0286 121.864C62.0286 121.907 62.0286 121.952 62.0286 122L62.0126 122.56C62.0073 122.736 62.0046 122.909 62.0046 123.08L62.1246 124.888C62.1246 125.021 61.9886 125.088 61.7166 125.088C61.7006 125.088 61.6606 125.088 61.5966 125.088C61.538 125.088 61.4953 125.064 61.4686 125.016C61.4473 124.968 61.4446 124.909 61.4606 124.84C61.482 124.771 61.4766 124.693 61.4446 124.608C61.1993 124.869 60.874 125 60.4686 125C59.7166 125 59.3406 124.419 59.3406 123.256C59.3406 122.611 59.4606 122.123 59.7006 121.792C59.946 121.461 60.2953 121.296 60.7486 121.296C60.962 121.296 61.1753 121.333 61.3886 121.408C61.458 121.312 61.554 121.264 61.6766 121.264ZM60.8446 121.992C60.5406 121.992 60.314 122.08 60.1646 122.256C60.0153 122.432 59.9406 122.755 59.9406 123.224C59.9406 124.013 60.154 124.408 60.5806 124.408C60.6926 124.408 60.8153 124.357 60.9486 124.256C61.0873 124.155 61.1833 124.04 61.2366 123.912C61.338 123.624 61.3886 123.309 61.3886 122.968C61.3886 122.627 61.346 122.379 61.2606 122.224C61.1806 122.069 61.042 121.992 60.8446 121.992ZM63.6094 123.832L63.6174 124.656C63.6174 124.752 63.5721 124.84 63.4814 124.92C63.3961 125 63.3108 125.04 63.2254 125.04C63.1028 125.04 63.0254 124.944 62.9934 124.752C62.9881 124.709 62.9668 124.32 62.9294 123.584C62.8921 122.843 62.8201 122.261 62.7134 121.84C62.6654 121.637 62.6414 121.517 62.6414 121.48C62.6414 121.304 62.7481 121.216 62.9614 121.216C63.0521 121.216 63.1241 121.251 63.1774 121.32C63.2308 121.389 63.2628 121.461 63.2734 121.536C63.2894 121.605 63.3028 121.701 63.3134 121.824C63.3241 121.947 63.3321 122.024 63.3374 122.056C63.4494 121.789 63.6174 121.589 63.8414 121.456C64.0654 121.323 64.3108 121.256 64.5774 121.256C65.0148 121.256 65.2334 121.368 65.2334 121.592C65.2334 121.704 65.1934 121.795 65.1134 121.864C65.0388 121.928 64.9508 121.96 64.8494 121.96C64.3961 121.96 64.0761 122.104 63.8894 122.392C63.7028 122.68 63.6094 123.16 63.6094 123.832ZM66.1836 119.944C66.2796 119.944 66.3702 119.989 66.4556 120.08C66.5409 120.171 66.5836 120.267 66.5836 120.368C66.5836 120.464 66.5356 120.563 66.4396 120.664C66.3489 120.765 66.2529 120.816 66.1516 120.816C66.0502 120.816 65.9569 120.773 65.8716 120.688C65.7916 120.603 65.7516 120.493 65.7516 120.36C65.7516 120.104 65.8902 119.965 66.1676 119.944C66.1729 119.944 66.1782 119.944 66.1836 119.944ZM66.5196 124.136L66.5276 124.696C66.5276 124.797 66.4876 124.883 66.4076 124.952C66.3276 125.016 66.2422 125.048 66.1516 125.048C66.0182 125.048 65.9489 124.981 65.9436 124.848C65.8742 123.147 65.8396 122.205 65.8396 122.024C65.8396 121.843 65.8476 121.621 65.8636 121.36C65.8742 121.264 65.9356 121.216 66.0476 121.216C66.3302 121.216 66.4902 121.331 66.5276 121.56C66.5436 121.677 66.5516 121.771 66.5516 121.84L66.5196 122.344V124.136ZM68.5966 121.296C68.8793 121.296 69.1486 121.379 69.4046 121.544C69.6606 121.709 69.7886 121.915 69.7886 122.16C69.7886 122.4 69.6846 122.635 69.4766 122.864C69.2686 123.088 68.9913 123.224 68.6446 123.272C68.4953 123.293 68.2713 123.304 67.9726 123.304C68.0313 123.757 68.146 124.056 68.3166 124.2C68.37 124.259 68.442 124.288 68.5326 124.288C68.8633 124.288 69.1406 124.184 69.3646 123.976C69.5886 123.763 69.7486 123.656 69.8446 123.656C69.8873 123.656 69.9513 123.696 70.0366 123.776C70.122 123.856 70.1646 123.931 70.1646 124C70.1646 124.139 69.9966 124.339 69.6606 124.6C69.5113 124.723 69.33 124.827 69.1166 124.912C68.9086 124.992 68.714 125.032 68.5326 125.032C68.0686 125.032 67.7273 124.733 67.5086 124.136C67.37 123.768 67.3006 123.363 67.3006 122.92C67.3006 122.477 67.4046 122.096 67.6126 121.776C67.8206 121.456 68.1486 121.296 68.5966 121.296ZM68.6366 121.848C68.434 121.848 68.2606 121.963 68.1166 122.192C68.0633 122.272 68.0126 122.453 67.9646 122.736C68.7113 122.736 69.0846 122.552 69.0846 122.184C69.0846 121.96 68.9353 121.848 68.6366 121.848ZM70.7681 122.28C70.7681 121.965 70.8801 121.715 71.1041 121.528C71.3281 121.341 71.5868 121.248 71.8801 121.248C72.1788 121.248 72.4641 121.301 72.7361 121.408C73.0081 121.515 73.1441 121.656 73.1441 121.832C73.1441 121.923 73.1095 121.995 73.0401 122.048C72.9708 122.101 72.9095 122.128 72.8561 122.128C72.8081 122.128 72.7681 122.128 72.7361 122.128C72.7095 122.123 72.6028 122.072 72.4161 121.976C72.2348 121.88 72.0668 121.832 71.9121 121.832C71.7575 121.832 71.6241 121.872 71.5121 121.952C71.4055 122.027 71.3521 122.139 71.3521 122.288C71.3521 122.437 71.4135 122.555 71.5361 122.64C71.6641 122.725 71.8855 122.8 72.2001 122.864C72.5148 122.923 72.7548 123.008 72.9201 123.12C73.0908 123.232 73.1761 123.44 73.1761 123.744C73.1761 124.187 73.0588 124.501 72.8241 124.688C72.5948 124.869 72.3148 124.96 71.9841 124.96C71.6535 124.96 71.3708 124.915 71.1361 124.824C70.9068 124.733 70.7921 124.597 70.7921 124.416C70.7921 124.208 70.8961 124.104 71.1041 124.104C71.1575 124.104 71.2748 124.141 71.4561 124.216C71.6375 124.291 71.8161 124.328 71.9921 124.328C72.1735 124.328 72.3095 124.272 72.4001 124.16C72.4961 124.043 72.5441 123.909 72.5441 123.76C72.5441 123.611 72.4828 123.504 72.3601 123.44C72.2375 123.371 72.0508 123.315 71.8001 123.272C71.5495 123.229 71.3655 123.184 71.2481 123.136C70.9281 123.008 70.7681 122.723 70.7681 122.28Z" fill="black"/>
<path d="M38.868 43.38C38.868 43.292 38.932 43.204 39.06 43.116C39.188 43.028 39.312 42.984 39.432 42.984C39.56 42.984 39.656 43.012 39.72 43.068C39.792 43.124 39.832 43.192 39.84 43.272C40.008 45.432 40.092 46.8 40.092 47.376C40.092 47.944 40.084 48.372 40.068 48.66C40.052 48.948 40.012 49.26 39.948 49.596C39.884 49.924 39.792 50.184 39.672 50.376C39.408 50.824 38.984 51.048 38.4 51.048C37.816 51.048 37.34 50.856 36.972 50.472C36.604 50.08 36.42 49.52 36.42 48.792C36.42 48.672 36.48 48.564 36.6 48.468C36.728 48.364 36.864 48.312 37.008 48.312C37.184 48.312 37.292 48.476 37.332 48.804C37.436 49.732 37.784 50.196 38.376 50.196C38.528 50.196 38.656 50.148 38.76 50.052C38.872 49.948 38.956 49.828 39.012 49.692C39.068 49.548 39.112 49.36 39.144 49.128C39.192 48.792 39.216 48.392 39.216 47.928C39.216 47.456 39.156 46.6 39.036 45.36C38.924 44.12 38.868 43.46 38.868 43.38ZM41.8694 50.484C41.8694 50.628 41.8054 50.76 41.6774 50.88C41.5494 50.992 41.4094 51.048 41.2574 51.048C41.1134 51.048 41.0134 50.952 40.9574 50.76C40.9334 49.704 40.9214 48.652 40.9214 47.604L40.8854 44.58C40.8854 43.972 41.1534 43.556 41.6894 43.332C42.1214 43.132 42.6334 43.032 43.2254 43.032C43.5294 43.032 43.8534 43.108 44.1974 43.26C44.5494 43.404 44.8614 43.62 45.1334 43.908C45.4134 44.188 45.5534 44.496 45.5534 44.832C45.5534 45.16 45.4014 45.516 45.0974 45.9C44.7934 46.276 44.4174 46.612 43.9694 46.908C43.5214 47.196 43.0854 47.412 42.6614 47.556C43.4054 48.076 44.0534 48.636 44.6054 49.236C45.1574 49.828 45.4334 50.288 45.4334 50.616C45.4334 50.72 45.3814 50.82 45.2774 50.916C45.1734 51.004 45.0454 51.048 44.8934 51.048C44.7494 51.048 44.6254 50.984 44.5214 50.856C44.3454 50.432 44.0094 49.988 43.5134 49.524C43.0254 49.052 42.4534 48.604 41.7974 48.18L41.8694 50.484ZM41.8214 46.884C42.3574 46.86 42.9574 46.636 43.6214 46.212C44.2934 45.788 44.6294 45.408 44.6294 45.072C44.6294 44.728 44.4614 44.464 44.1254 44.28C43.7894 44.096 43.3894 44.004 42.9254 44.004C42.4694 44.004 42.1054 44.06 41.8334 44.172C41.8254 44.58 41.8214 45.484 41.8214 46.884ZM46.5506 46.872C46.4386 46.8 46.3826 46.696 46.3826 46.56C46.3826 46.424 46.4266 46.3 46.5146 46.188C46.4826 45.388 46.4666 44.544 46.4666 43.656C46.5146 43.464 46.5866 43.324 46.6826 43.236C46.7866 43.148 46.9346 43.092 47.1266 43.068C48.1826 43.116 49.3266 43.14 50.5586 43.14C50.8626 43.204 51.0146 43.336 51.0146 43.536C51.0146 43.872 50.6866 44.068 50.0306 44.124C49.8546 44.132 49.6626 44.136 49.4546 44.136H48.6746C48.5226 44.136 48.1026 44.104 47.4146 44.04C47.4146 45.04 47.4306 45.728 47.4626 46.104C47.8866 46.112 48.7026 46.116 49.9106 46.116C50.1986 46.172 50.3426 46.304 50.3426 46.512C50.3426 46.712 50.2266 46.868 49.9946 46.98C49.9706 46.996 49.9266 47.012 49.8626 47.028L47.7866 46.992C47.6586 46.992 47.5546 47 47.4746 47.016L47.5226 49.08C47.5226 49.544 47.5106 49.876 47.4866 50.076L50.2706 50.04C50.5266 50.08 50.6546 50.188 50.6546 50.364C50.6546 50.484 50.5986 50.604 50.4866 50.724C50.3826 50.844 50.2586 50.92 50.1146 50.952L47.0426 51C46.8586 51 46.7306 50.968 46.6586 50.904C46.5866 50.832 46.5506 50.716 46.5506 50.556C46.5826 50.332 46.5986 49.972 46.5986 49.476V48.636L46.5506 46.872Z" fill="black"/>
<rect x="40" y="58" width="98" height="42" rx="5" fill="#EE8434"/>
<path d="M23.868 23.38C23.868 23.292 23.932 23.204 24.06 23.116C24.188 23.028 24.312 22.984 24.432 22.984C24.56 22.984 24.656 23.012 24.72 23.068C24.792 23.124 24.832 23.192 24.84 23.272C25.008 25.432 25.092 26.8 25.092 27.376C25.092 27.944 25.084 28.372 25.068 28.66C25.052 28.948 25.012 29.26 24.948 29.596C24.884 29.924 24.792 30.184 24.672 30.376C24.408 30.824 23.984 31.048 23.4 31.048C22.816 31.048 22.34 30.856 21.972 30.472C21.604 30.08 21.42 29.52 21.42 28.792C21.42 28.672 21.48 28.564 21.6 28.468C21.728 28.364 21.864 28.312 22.008 28.312C22.184 28.312 22.292 28.476 22.332 28.804C22.436 29.732 22.784 30.196 23.376 30.196C23.528 30.196 23.656 30.148 23.76 30.052C23.872 29.948 23.956 29.828 24.012 29.692C24.068 29.548 24.112 29.36 24.144 29.128C24.192 28.792 24.216 28.392 24.216 27.928C24.216 27.456 24.156 26.6 24.036 25.36C23.924 24.12 23.868 23.46 23.868 23.38ZM26.1494 30.616C26.0294 30.528 25.9694 30.432 25.9694 30.328C25.9694 30.216 26.0134 30.124 26.1014 30.052C25.9494 28.908 25.8734 27.596 25.8734 26.116C25.8734 25.668 25.8934 24.796 25.9334 23.5C25.9734 23.38 26.0534 23.276 26.1734 23.188C26.3014 23.1 26.4214 23.056 26.5334 23.056C26.6454 23.056 26.7134 23.06 26.7374 23.068C27.8814 23.388 28.8774 24.008 29.7254 24.928C30.5734 25.84 31.0174 26.936 31.0574 28.216C31.0574 29.624 30.4734 30.508 29.3054 30.868C28.9694 30.972 28.6134 31.024 28.2374 31.024C27.8694 31.024 27.5454 30.996 27.2654 30.94C27.2974 31.004 27.3134 31.088 27.3134 31.192C27.3134 31.304 27.2454 31.408 27.1094 31.504C26.9814 31.608 26.8254 31.66 26.6414 31.66C26.4654 31.66 26.3534 31.552 26.3054 31.336L26.1494 30.616ZM26.8694 26.02C26.8694 27.42 26.9494 28.748 27.1094 30.004C27.3014 30.06 27.6254 30.088 28.0814 30.088C28.5374 30.088 28.9734 30.012 29.3894 29.86C29.8134 29.708 30.0374 29.484 30.0614 29.188C30.0854 28.964 30.0974 28.792 30.0974 28.672C30.0974 27.632 29.8174 26.712 29.2574 25.912C28.7054 25.112 27.9294 24.504 26.9294 24.088C26.8894 25.032 26.8694 25.676 26.8694 26.02ZM32.0127 29.632C32.0127 29.016 31.9727 27.976 31.8927 26.512C31.8207 25.04 31.7567 24.108 31.7007 23.716C31.7007 23.54 31.7607 23.388 31.8807 23.26C32.0007 23.124 32.1367 23.056 32.2887 23.056C32.4807 23.056 32.6087 23.176 32.6727 23.416C32.8007 24.216 32.8807 25.368 32.9127 26.872C33.6327 26.208 34.1887 25.64 34.5807 25.168C34.9807 24.696 35.4007 24.092 35.8407 23.356C35.9687 23.14 36.1567 23.032 36.4047 23.032C36.5327 23.032 36.6367 23.068 36.7167 23.14C36.8047 23.204 36.8487 23.284 36.8487 23.38C36.8487 23.636 36.6207 24.08 36.1647 24.712C35.7167 25.336 35.2407 25.944 34.7367 26.536C35.4087 27.208 35.9847 27.984 36.4647 28.864C36.5287 28.976 36.6127 29.116 36.7167 29.284C36.8207 29.452 36.9007 29.584 36.9567 29.68C37.1087 29.944 37.1847 30.168 37.1847 30.352C37.1847 30.536 37.1367 30.688 37.0407 30.808C36.9527 30.92 36.8407 30.976 36.7047 30.976C36.5687 30.976 36.3927 30.8 36.1767 30.448C35.9607 30.088 35.6487 29.584 35.2407 28.936C34.8407 28.28 34.4167 27.704 33.9687 27.208C33.5207 27.64 33.1847 27.94 32.9607 28.108C32.9847 28.62 32.9967 29.048 32.9967 29.392C32.9967 29.728 32.9887 30 32.9727 30.208C32.9247 30.728 32.7127 30.988 32.3367 30.988C32.1047 30.988 31.9967 30.848 32.0127 30.568V29.632Z" fill="black"/>
<path d="M47.868 63.38C47.868 63.292 47.932 63.204 48.06 63.116C48.188 63.028 48.312 62.984 48.432 62.984C48.56 62.984 48.656 63.012 48.72 63.068C48.792 63.124 48.832 63.192 48.84 63.272C49.008 65.432 49.092 66.8 49.092 67.376C49.092 67.944 49.084 68.372 49.068 68.66C49.052 68.948 49.012 69.26 48.948 69.596C48.884 69.924 48.792 70.184 48.672 70.376C48.408 70.824 47.984 71.048 47.4 71.048C46.816 71.048 46.34 70.856 45.972 70.472C45.604 70.08 45.42 69.52 45.42 68.792C45.42 68.672 45.48 68.564 45.6 68.468C45.728 68.364 45.864 68.312 46.008 68.312C46.184 68.312 46.292 68.476 46.332 68.804C46.436 69.732 46.784 70.196 47.376 70.196C47.528 70.196 47.656 70.148 47.76 70.052C47.872 69.948 47.956 69.828 48.012 69.692C48.068 69.548 48.112 69.36 48.144 69.128C48.192 68.792 48.216 68.392 48.216 67.928C48.216 67.456 48.156 66.6 48.036 65.36C47.924 64.12 47.868 63.46 47.868 63.38ZM52.9814 70.772C52.6534 69.804 52.3134 68.92 51.9614 68.12C51.6094 67.312 51.1574 66.3 50.6054 65.084C50.4134 64.66 50.2934 64.4 50.2454 64.304C50.1974 64.2 50.1734 64.088 50.1734 63.968C50.1734 63.84 50.2334 63.716 50.3534 63.596C50.4814 63.476 50.6214 63.416 50.7734 63.416C50.9254 63.416 51.0534 63.492 51.1574 63.644L51.7334 64.964C52.5414 66.828 53.1174 68.184 53.4614 69.032L53.6774 68.192C53.8534 67.456 54.0374 66.728 54.2294 66.008C54.7734 64.04 55.3094 63.056 55.8374 63.056C55.9334 63.056 56.0134 63.084 56.0774 63.14C56.1494 63.196 56.1854 63.272 56.1854 63.368C56.1854 63.464 56.1334 63.604 56.0294 63.788C55.9334 63.972 55.8094 64.304 55.6574 64.784C55.5054 65.264 55.4094 65.548 55.3694 65.636C55.3374 65.716 55.1454 66.388 54.7934 67.652C54.4494 68.916 54.1534 69.908 53.9054 70.628C53.8654 70.756 53.7894 70.864 53.6774 70.952C53.5654 71.032 53.4374 71.072 53.2934 71.072C53.1574 71.072 53.0534 70.972 52.9814 70.772ZM62.3357 63.008C62.5277 63.008 62.6517 63.148 62.7077 63.428C62.7477 64.732 62.7677 66.156 62.7677 67.7C62.7677 69.236 62.7597 70.124 62.7437 70.364C62.7277 70.604 62.6757 70.772 62.5877 70.868C62.4997 70.964 62.3397 71.012 62.1077 71.012C61.8997 71.012 61.7957 70.884 61.7957 70.628V67.916C61.7957 67.476 61.7877 67.024 61.7717 66.56C61.7557 66.096 61.7477 65.804 61.7477 65.684C61.4757 66.148 61.1157 66.532 60.6677 66.836C60.2197 67.132 59.7197 67.28 59.1677 67.28C58.6157 67.28 58.1517 67.052 57.7757 66.596C57.7597 67.084 57.7517 67.664 57.7517 68.336C57.7517 69 57.7557 69.7 57.7637 70.436C57.7637 70.636 57.6957 70.784 57.5597 70.88C57.4317 70.968 57.2837 71.012 57.1157 71.012C56.8997 71.012 56.7917 70.88 56.7917 70.616C56.7997 69.896 56.8037 68.756 56.8037 67.196V63.788C56.8037 63.652 56.8477 63.52 56.9357 63.392C57.0317 63.264 57.1397 63.2 57.2597 63.2C57.3877 63.2 57.5037 63.236 57.6077 63.308C57.7117 63.372 57.7677 63.472 57.7757 63.608C57.8077 64.496 57.9517 65.156 58.2077 65.588C58.4637 66.02 58.7677 66.236 59.1197 66.236C59.4717 66.236 59.7717 66.18 60.0197 66.068C60.2757 65.948 60.4837 65.812 60.6437 65.66C60.8117 65.508 60.9717 65.292 61.1237 65.012C61.3397 64.612 61.5477 64.12 61.7477 63.536C61.8677 63.184 62.0637 63.008 62.3357 63.008Z" fill="black"/>
<path d="M11.856 194.04C11.9733 194.04 12.0747 194.083 12.16 194.168C12.2453 194.253 12.296 194.371 12.312 194.52C12.312 194.637 12.2693 194.747 12.184 194.848C12.0987 194.944 11.9973 194.992 11.88 194.992C11.768 194.992 11.6667 194.963 11.576 194.904C11.4853 194.84 11.44 194.744 11.44 194.616C11.44 194.488 11.48 194.36 11.56 194.232C11.6453 194.104 11.744 194.04 11.856 194.04ZM13.5989 189.984C13.6949 189.984 13.7856 190.029 13.8709 190.12C13.9563 190.211 13.9989 190.307 13.9989 190.408C13.9989 190.504 13.9509 190.603 13.8549 190.704C13.7643 190.805 13.6683 190.856 13.5669 190.856C13.4656 190.856 13.3723 190.813 13.2869 190.728C13.2069 190.643 13.1669 190.533 13.1669 190.4C13.1669 190.144 13.3056 190.005 13.5829 189.984C13.5883 189.984 13.5936 189.984 13.5989 189.984ZM13.3429 191.552C13.3323 191.467 13.3616 191.397 13.4309 191.344C13.5003 191.285 13.6043 191.256 13.7429 191.256C13.8816 191.256 13.9589 191.323 13.9749 191.456C14.0496 192.112 14.0869 192.733 14.0869 193.32C14.0869 193.907 14.0683 194.493 14.0309 195.08C13.9936 195.672 13.9083 196.128 13.7749 196.448C13.5936 196.869 13.2656 197.08 12.7909 197.08C12.5509 197.08 12.3429 197.005 12.1669 196.856C11.9909 196.707 11.9029 196.528 11.9029 196.32C11.9029 196.208 11.9429 196.123 12.0229 196.064C12.1029 196.005 12.1909 195.976 12.2869 195.976C12.3829 195.976 12.4549 196 12.5029 196.048C12.5509 196.096 12.5829 196.149 12.5989 196.208C12.6523 196.363 12.7429 196.44 12.8709 196.44C13.0043 196.44 13.1163 196.336 13.2069 196.128C13.3029 195.92 13.3643 195.637 13.3909 195.28C13.4229 194.923 13.4389 194.544 13.4389 194.144C13.4389 192.891 13.4069 192.027 13.3429 191.552ZM17.1298 191.264C17.3644 191.264 17.4818 191.464 17.4818 191.864C17.4818 191.907 17.4818 191.952 17.4818 192L17.4658 192.56C17.4604 192.736 17.4578 192.909 17.4578 193.08L17.5778 194.888C17.5778 195.021 17.4418 195.088 17.1698 195.088C17.1538 195.088 17.1138 195.088 17.0498 195.088C16.9911 195.088 16.9484 195.064 16.9218 195.016C16.9004 194.968 16.8978 194.909 16.9138 194.84C16.9351 194.771 16.9298 194.693 16.8978 194.608C16.6524 194.869 16.3271 195 15.9218 195C15.1698 195 14.7938 194.419 14.7938 193.256C14.7938 192.611 14.9138 192.123 15.1538 191.792C15.3991 191.461 15.7484 191.296 16.2018 191.296C16.4151 191.296 16.6284 191.333 16.8418 191.408C16.9111 191.312 17.0071 191.264 17.1298 191.264ZM16.2978 191.992C15.9938 191.992 15.7671 192.08 15.6178 192.256C15.4684 192.432 15.3938 192.755 15.3938 193.224C15.3938 194.013 15.6071 194.408 16.0338 194.408C16.1458 194.408 16.2684 194.357 16.4018 194.256C16.5404 194.155 16.6364 194.04 16.6898 193.912C16.7911 193.624 16.8418 193.309 16.8418 192.968C16.8418 192.627 16.7991 192.379 16.7138 192.224C16.6338 192.069 16.4951 191.992 16.2978 191.992ZM20.6146 191.224C20.6892 191.224 20.7452 191.251 20.7826 191.304C20.8199 191.352 20.8386 191.405 20.8386 191.464L20.8306 191.544C20.6066 192.115 20.4412 192.579 20.3346 192.936C20.2652 193.187 20.2119 193.373 20.1746 193.496C20.1426 193.619 20.0866 193.835 20.0066 194.144C19.9266 194.453 19.8732 194.653 19.8466 194.744C19.7719 194.925 19.6412 195.016 19.4546 195.016C19.3639 195.016 19.2999 194.957 19.2626 194.84C19.0919 194.307 18.8412 193.704 18.5106 193.032C18.1799 192.36 17.9906 191.976 17.9426 191.88C17.8999 191.779 17.8786 191.688 17.8786 191.608C17.8786 191.528 17.9132 191.451 17.9826 191.376C18.0572 191.301 18.1399 191.264 18.2306 191.264C18.3212 191.264 18.3986 191.312 18.4626 191.408C18.5212 191.525 18.6866 191.853 18.9586 192.392C19.2359 192.931 19.4306 193.355 19.5426 193.664C19.5479 193.632 19.5666 193.565 19.5986 193.464C19.8706 192.52 20.0919 191.845 20.2626 191.44C20.3532 191.296 20.4706 191.224 20.6146 191.224ZM23.4657 191.264C23.7004 191.264 23.8177 191.464 23.8177 191.864C23.8177 191.907 23.8177 191.952 23.8177 192L23.8017 192.56C23.7964 192.736 23.7937 192.909 23.7937 193.08L23.9137 194.888C23.9137 195.021 23.7777 195.088 23.5057 195.088C23.4897 195.088 23.4497 195.088 23.3857 195.088C23.327 195.088 23.2844 195.064 23.2577 195.016C23.2364 194.968 23.2337 194.909 23.2497 194.84C23.271 194.771 23.2657 194.693 23.2337 194.608C22.9884 194.869 22.663 195 22.2577 195C21.5057 195 21.1297 194.419 21.1297 193.256C21.1297 192.611 21.2497 192.123 21.4897 191.792C21.735 191.461 22.0844 191.296 22.5377 191.296C22.751 191.296 22.9644 191.333 23.1777 191.408C23.247 191.312 23.343 191.264 23.4657 191.264ZM22.6337 191.992C22.3297 191.992 22.103 192.08 21.9537 192.256C21.8044 192.432 21.7297 192.755 21.7297 193.224C21.7297 194.013 21.943 194.408 22.3697 194.408C22.4817 194.408 22.6044 194.357 22.7377 194.256C22.8764 194.155 22.9724 194.04 23.0257 193.912C23.127 193.624 23.1777 193.309 23.1777 192.968C23.1777 192.627 23.135 192.379 23.0497 192.224C22.9697 192.069 22.831 191.992 22.6337 191.992Z" fill="black"/>
<path d="M44.192 193.128C44.192 192.771 44.2853 192.445 44.472 192.152C44.664 191.859 44.9067 191.64 45.2 191.496C45.4933 191.347 45.7787 191.272 46.056 191.272C46.3333 191.272 46.5547 191.307 46.72 191.376C46.8907 191.44 46.976 191.528 46.976 191.64C46.976 191.747 46.944 191.856 46.88 191.968C46.8213 192.075 46.7413 192.128 46.64 192.128C46.6027 192.128 46.4987 192.099 46.328 192.04C46.1627 191.976 46.056 191.944 46.008 191.944C45.6987 191.944 45.4347 192.059 45.216 192.288C44.9973 192.512 44.888 192.811 44.888 193.184C44.888 193.557 44.9467 193.837 45.064 194.024C45.1867 194.205 45.3947 194.296 45.688 194.296C45.8053 194.296 46.0053 194.229 46.288 194.096C46.576 193.957 46.7547 193.888 46.824 193.888C46.8933 193.888 46.9493 193.909 46.992 193.952C47.0347 193.995 47.056 194.048 47.056 194.112C47.056 194.24 46.9733 194.376 46.808 194.52C46.648 194.659 46.448 194.776 46.208 194.872C45.968 194.963 45.752 195.008 45.56 195.008C45.1333 195.008 44.7973 194.84 44.552 194.504C44.312 194.168 44.192 193.709 44.192 193.128ZM48.8216 191.272C49.2056 191.272 49.5202 191.456 49.7656 191.824C50.0162 192.192 50.1416 192.635 50.1416 193.152C50.1416 193.664 50.0136 194.101 49.7576 194.464C49.5069 194.827 49.1709 195.008 48.7496 195.008C48.3336 195.008 47.9976 194.824 47.7416 194.456C47.4856 194.083 47.3576 193.669 47.3576 193.216C47.3576 192.635 47.4749 192.171 47.7096 191.824C47.9602 191.456 48.3309 191.272 48.8216 191.272ZM48.7256 191.928C48.5016 191.928 48.3176 192.045 48.1736 192.28C48.0296 192.515 47.9576 192.763 47.9576 193.024C47.9576 193.429 48.0376 193.739 48.1976 193.952C48.3576 194.165 48.5389 194.272 48.7416 194.272C49.1042 194.272 49.3362 194.115 49.4376 193.8C49.4802 193.651 49.5016 193.464 49.5016 193.24C49.5016 192.365 49.2429 191.928 48.7256 191.928ZM51.0881 195.008C50.9495 195.008 50.8668 194.931 50.8401 194.776C50.8401 193.699 50.7761 192.739 50.6481 191.896C50.6481 191.789 50.6855 191.693 50.7601 191.608C50.8401 191.523 50.9281 191.48 51.0241 191.48C51.1255 191.48 51.2001 191.536 51.2481 191.648C51.4455 191.387 51.7095 191.256 52.0401 191.256C52.4615 191.256 52.7868 191.459 53.0161 191.864C53.2828 191.48 53.6348 191.288 54.0721 191.288C54.5148 191.288 54.8455 191.464 55.0641 191.816C55.2081 192.035 55.3095 192.323 55.3681 192.68C55.4268 193.037 55.4561 193.544 55.4561 194.2C55.4561 194.456 55.4295 194.656 55.3761 194.8C55.3228 194.939 55.2108 195.008 55.0401 195.008C54.9015 195.008 54.8321 194.92 54.8321 194.744L54.8561 193.744C54.8561 192.544 54.5441 191.944 53.9201 191.944C53.7228 191.944 53.5841 192.013 53.5041 192.152C53.4135 192.317 53.3601 192.491 53.3441 192.672C53.3228 192.992 53.3121 193.283 53.3121 193.544V194.704C53.3121 194.789 53.2695 194.861 53.1841 194.92C53.0988 194.979 53.0108 195.008 52.9201 195.008C52.8028 195.008 52.7281 194.931 52.6961 194.776L52.7201 193.12C52.7201 192.533 52.6215 192.168 52.4241 192.024C52.3281 191.955 52.1815 191.92 51.9841 191.92C51.7921 191.92 51.6481 191.992 51.5521 192.136C51.4615 192.28 51.4161 192.512 51.4161 192.832L51.4641 194.32C51.4641 194.779 51.3388 195.008 51.0881 195.008ZM57.3336 194.992C57.1523 194.992 56.9843 194.931 56.8296 194.808C56.8296 194.808 56.795 194.779 56.7256 194.72V197.12C56.6936 197.227 56.6376 197.315 56.5576 197.384C56.4776 197.459 56.3923 197.496 56.3016 197.496C56.163 197.496 56.0936 197.403 56.0936 197.216V191.64C56.1256 191.501 56.163 191.403 56.2056 191.344C56.2536 191.285 56.3256 191.256 56.4216 191.256C56.523 191.256 56.587 191.28 56.6136 191.328C56.6456 191.371 56.683 191.493 56.7256 191.696C56.747 191.589 56.8323 191.491 56.9816 191.4C57.131 191.309 57.331 191.264 57.5816 191.264C58.1256 191.264 58.5123 191.461 58.7416 191.856C58.971 192.251 59.0856 192.717 59.0856 193.256C59.0856 193.789 58.9283 194.213 58.6136 194.528C58.3043 194.837 57.8776 194.992 57.3336 194.992ZM56.7256 192.592V194.08C56.7576 194.096 56.795 194.123 56.8376 194.16C56.9923 194.299 57.1603 194.368 57.3416 194.368C58.0776 194.368 58.4456 193.989 58.4456 193.232C58.4456 192.587 58.2803 192.179 57.9496 192.008C57.811 191.933 57.6403 191.896 57.4376 191.896C57.2403 191.923 57.0723 192.011 56.9336 192.16C56.795 192.304 56.7256 192.448 56.7256 192.592ZM60.0195 189.944C60.1155 189.944 60.2062 189.989 60.2915 190.08C60.3768 190.171 60.4195 190.267 60.4195 190.368C60.4195 190.464 60.3715 190.563 60.2755 190.664C60.1848 190.765 60.0888 190.816 59.9875 190.816C59.8862 190.816 59.7928 190.773 59.7075 190.688C59.6275 190.603 59.5875 190.493 59.5875 190.36C59.5875 190.104 59.7262 189.965 60.0035 189.944C60.0088 189.944 60.0142 189.944 60.0195 189.944ZM60.3555 194.136L60.3635 194.696C60.3635 194.797 60.3235 194.883 60.2435 194.952C60.1635 195.016 60.0782 195.048 59.9875 195.048C59.8542 195.048 59.7848 194.981 59.7795 194.848C59.7102 193.147 59.6755 192.205 59.6755 192.024C59.6755 191.843 59.6835 191.621 59.6995 191.36C59.7102 191.264 59.7715 191.216 59.8835 191.216C60.1662 191.216 60.3262 191.331 60.3635 191.56C60.3795 191.677 60.3875 191.771 60.3875 191.84L60.3555 192.344V194.136ZM61.2566 189.824C61.2726 189.621 61.3046 189.491 61.3526 189.432C61.4059 189.368 61.4886 189.336 61.6006 189.336C61.8299 189.336 61.9446 189.429 61.9446 189.616C61.9446 189.76 61.9312 190.136 61.9046 190.744C61.8832 191.352 61.8726 191.896 61.8726 192.376C61.8726 192.856 61.8912 193.243 61.9286 193.536C61.9926 194.048 62.0832 194.304 62.2006 194.304C62.3179 194.304 62.4059 194.221 62.4646 194.056C62.4912 193.992 62.5339 193.936 62.5926 193.888C62.6512 193.835 62.7259 193.808 62.8166 193.808C63.0032 193.808 63.0966 193.965 63.0966 194.28C63.0966 194.451 63.0032 194.621 62.8166 194.792C62.6352 194.957 62.4539 195.04 62.2726 195.04C62.0912 195.04 61.9446 195.011 61.8326 194.952C61.7259 194.888 61.6379 194.795 61.5686 194.672C61.5046 194.549 61.4512 194.432 61.4086 194.32C61.3712 194.203 61.3446 194.061 61.3286 193.896C61.2966 193.629 61.2726 193.203 61.2566 192.616C61.2459 192.024 61.2406 191.461 61.2406 190.928C61.2406 190.389 61.2459 190.021 61.2566 189.824ZM64.5576 191.296C64.8402 191.296 65.1096 191.379 65.3656 191.544C65.6216 191.709 65.7496 191.915 65.7496 192.16C65.7496 192.4 65.6456 192.635 65.4376 192.864C65.2296 193.088 64.9522 193.224 64.6056 193.272C64.4562 193.293 64.2322 193.304 63.9336 193.304C63.9922 193.757 64.1069 194.056 64.2776 194.2C64.3309 194.259 64.4029 194.288 64.4936 194.288C64.8242 194.288 65.1016 194.184 65.3256 193.976C65.5496 193.763 65.7096 193.656 65.8056 193.656C65.8482 193.656 65.9122 193.696 65.9976 193.776C66.0829 193.856 66.1256 193.931 66.1256 194C66.1256 194.139 65.9576 194.339 65.6216 194.6C65.4722 194.723 65.2909 194.827 65.0776 194.912C64.8696 194.992 64.6749 195.032 64.4936 195.032C64.0296 195.032 63.6882 194.733 63.4696 194.136C63.3309 193.768 63.2616 193.363 63.2616 192.92C63.2616 192.477 63.3656 192.096 63.5736 191.776C63.7816 191.456 64.1096 191.296 64.5576 191.296ZM64.5976 191.848C64.3949 191.848 64.2216 191.963 64.0776 192.192C64.0242 192.272 63.9736 192.453 63.9256 192.736C64.6722 192.736 65.0456 192.552 65.0456 192.184C65.0456 191.96 64.8962 191.848 64.5976 191.848ZM67.6251 193.832L67.6331 194.656C67.6331 194.752 67.5877 194.84 67.4971 194.92C67.4117 195 67.3264 195.04 67.2411 195.04C67.1184 195.04 67.0411 194.944 67.0091 194.752C67.0037 194.709 66.9824 194.32 66.9451 193.584C66.9077 192.843 66.8357 192.261 66.7291 191.84C66.6811 191.637 66.6571 191.517 66.6571 191.48C66.6571 191.304 66.7637 191.216 66.9771 191.216C67.0677 191.216 67.1397 191.251 67.1931 191.32C67.2464 191.389 67.2784 191.461 67.2891 191.536C67.3051 191.605 67.3184 191.701 67.3291 191.824C67.3397 191.947 67.3477 192.024 67.3531 192.056C67.4651 191.789 67.6331 191.589 67.8571 191.456C68.0811 191.323 68.3264 191.256 68.5931 191.256C69.0304 191.256 69.2491 191.368 69.2491 191.592C69.2491 191.704 69.2091 191.795 69.1291 191.864C69.0544 191.928 68.9664 191.96 68.8651 191.96C68.4117 191.96 68.0917 192.104 67.9051 192.392C67.7184 192.68 67.6251 193.16 67.6251 193.832Z" fill="black"/>
<path d="M94.856 194.04C94.9733 194.04 95.0747 194.083 95.16 194.168C95.2453 194.253 95.296 194.371 95.312 194.52C95.312 194.637 95.2693 194.747 95.184 194.848C95.0987 194.944 94.9973 194.992 94.88 194.992C94.768 194.992 94.6667 194.963 94.576 194.904C94.4853 194.84 94.44 194.744 94.44 194.616C94.44 194.488 94.48 194.36 94.56 194.232C94.6453 194.104 94.744 194.04 94.856 194.04ZM95.9029 193.128C95.9029 192.771 95.9963 192.445 96.1829 192.152C96.3749 191.859 96.6176 191.64 96.9109 191.496C97.2043 191.347 97.4896 191.272 97.7669 191.272C98.0443 191.272 98.2656 191.307 98.4309 191.376C98.6016 191.44 98.6869 191.528 98.6869 191.64C98.6869 191.747 98.6549 191.856 98.5909 191.968C98.5323 192.075 98.4523 192.128 98.3509 192.128C98.3136 192.128 98.2096 192.099 98.0389 192.04C97.8736 191.976 97.7669 191.944 97.7189 191.944C97.4096 191.944 97.1456 192.059 96.9269 192.288C96.7083 192.512 96.5989 192.811 96.5989 193.184C96.5989 193.557 96.6576 193.837 96.7749 194.024C96.8976 194.205 97.1056 194.296 97.3989 194.296C97.5163 194.296 97.7163 194.229 97.9989 194.096C98.2869 193.957 98.4656 193.888 98.5349 193.888C98.6043 193.888 98.6603 193.909 98.7029 193.952C98.7456 193.995 98.7669 194.048 98.7669 194.112C98.7669 194.24 98.6843 194.376 98.5189 194.52C98.3589 194.659 98.1589 194.776 97.9189 194.872C97.6789 194.963 97.4629 195.008 97.2709 195.008C96.8443 195.008 96.5083 194.84 96.2629 194.504C96.0229 194.168 95.9029 193.709 95.9029 193.128ZM99.0925 189.824C99.1085 189.621 99.1405 189.491 99.1885 189.432C99.2418 189.368 99.3245 189.336 99.4365 189.336C99.6658 189.336 99.7805 189.429 99.7805 189.616C99.7805 189.76 99.7672 190.136 99.7405 190.744C99.7192 191.352 99.7085 191.896 99.7085 192.376C99.7085 192.856 99.7272 193.243 99.7645 193.536C99.8285 194.048 99.9192 194.304 100.037 194.304C100.154 194.304 100.242 194.221 100.301 194.056C100.327 193.992 100.37 193.936 100.429 193.888C100.487 193.835 100.562 193.808 100.653 193.808C100.839 193.808 100.933 193.965 100.933 194.28C100.933 194.451 100.839 194.621 100.653 194.792C100.471 194.957 100.29 195.04 100.109 195.04C99.9272 195.04 99.7805 195.011 99.6685 194.952C99.5618 194.888 99.4738 194.795 99.4045 194.672C99.3405 194.549 99.2872 194.432 99.2445 194.32C99.2072 194.203 99.1805 194.061 99.1645 193.896C99.1325 193.629 99.1085 193.203 99.0925 192.616C99.0818 192.024 99.0765 191.461 99.0765 190.928C99.0765 190.389 99.0818 190.021 99.0925 189.824ZM103.474 191.264C103.708 191.264 103.826 191.464 103.826 191.864C103.826 191.907 103.826 191.952 103.826 192L103.81 192.56C103.804 192.736 103.802 192.909 103.802 193.08L103.922 194.888C103.922 195.021 103.786 195.088 103.514 195.088C103.498 195.088 103.458 195.088 103.394 195.088C103.335 195.088 103.292 195.064 103.266 195.016C103.244 194.968 103.242 194.909 103.258 194.84C103.279 194.771 103.274 194.693 103.242 194.608C102.996 194.869 102.671 195 102.266 195C101.514 195 101.138 194.419 101.138 193.256C101.138 192.611 101.258 192.123 101.498 191.792C101.743 191.461 102.092 191.296 102.546 191.296C102.759 191.296 102.972 191.333 103.186 191.408C103.255 191.312 103.351 191.264 103.474 191.264ZM102.642 191.992C102.338 191.992 102.111 192.08 101.962 192.256C101.812 192.432 101.738 192.755 101.738 193.224C101.738 194.013 101.951 194.408 102.378 194.408C102.49 194.408 102.612 194.357 102.746 194.256C102.884 194.155 102.98 194.04 103.034 193.912C103.135 193.624 103.186 193.309 103.186 192.968C103.186 192.627 103.143 192.379 103.058 192.224C102.978 192.069 102.839 191.992 102.642 191.992ZM104.51 192.28C104.51 191.965 104.622 191.715 104.846 191.528C105.07 191.341 105.329 191.248 105.622 191.248C105.921 191.248 106.206 191.301 106.478 191.408C106.75 191.515 106.886 191.656 106.886 191.832C106.886 191.923 106.852 191.995 106.782 192.048C106.713 192.101 106.652 192.128 106.598 192.128C106.55 192.128 106.51 192.128 106.478 192.128C106.452 192.123 106.345 192.072 106.158 191.976C105.977 191.88 105.809 191.832 105.654 191.832C105.5 191.832 105.366 191.872 105.254 191.952C105.148 192.027 105.094 192.139 105.094 192.288C105.094 192.437 105.156 192.555 105.278 192.64C105.406 192.725 105.628 192.8 105.942 192.864C106.257 192.923 106.497 193.008 106.662 193.12C106.833 193.232 106.918 193.44 106.918 193.744C106.918 194.187 106.801 194.501 106.566 194.688C106.337 194.869 106.057 194.96 105.726 194.96C105.396 194.96 105.113 194.915 104.878 194.824C104.649 194.733 104.534 194.597 104.534 194.416C104.534 194.208 104.638 194.104 104.846 194.104C104.9 194.104 105.017 194.141 105.198 194.216C105.38 194.291 105.558 194.328 105.734 194.328C105.916 194.328 106.052 194.272 106.142 194.16C106.238 194.043 106.286 193.909 106.286 193.76C106.286 193.611 106.225 193.504 106.102 193.44C105.98 193.371 105.793 193.315 105.542 193.272C105.292 193.229 105.108 193.184 104.99 193.136C104.67 193.008 104.51 192.723 104.51 192.28ZM107.588 192.28C107.588 191.965 107.7 191.715 107.924 191.528C108.148 191.341 108.407 191.248 108.7 191.248C108.999 191.248 109.284 191.301 109.556 191.408C109.828 191.515 109.964 191.656 109.964 191.832C109.964 191.923 109.93 191.995 109.86 192.048C109.791 192.101 109.73 192.128 109.676 192.128C109.628 192.128 109.588 192.128 109.556 192.128C109.53 192.123 109.423 192.072 109.236 191.976C109.055 191.88 108.887 191.832 108.732 191.832C108.578 191.832 108.444 191.872 108.332 191.952C108.226 192.027 108.172 192.139 108.172 192.288C108.172 192.437 108.234 192.555 108.356 192.64C108.484 192.725 108.706 192.8 109.02 192.864C109.335 192.923 109.575 193.008 109.74 193.12C109.911 193.232 109.996 193.44 109.996 193.744C109.996 194.187 109.879 194.501 109.644 194.688C109.415 194.869 109.135 194.96 108.804 194.96C108.474 194.96 108.191 194.915 107.956 194.824C107.727 194.733 107.612 194.597 107.612 194.416C107.612 194.208 107.716 194.104 107.924 194.104C107.978 194.104 108.095 194.141 108.276 194.216C108.458 194.291 108.636 194.328 108.812 194.328C108.994 194.328 109.13 194.272 109.22 194.16C109.316 194.043 109.364 193.909 109.364 193.76C109.364 193.611 109.303 193.504 109.18 193.44C109.058 193.371 108.871 193.315 108.62 193.272C108.37 193.229 108.186 193.184 108.068 193.136C107.748 193.008 107.588 192.723 107.588 192.28ZM94.48 203.432C94.48 202.813 94.512 202.341 94.576 202.016C94.6453 201.685 94.7467 201.395 94.88 201.144C95.0133 200.888 95.1733 200.616 95.36 200.328C95.552 200.04 95.72 199.851 95.864 199.76C95.9227 199.728 95.984 199.712 96.048 199.712C96.112 199.712 96.1787 199.739 96.248 199.792C96.3173 199.845 96.352 199.896 96.352 199.944C96.352 199.987 96.2293 200.181 95.984 200.528C95.744 200.869 95.584 201.101 95.504 201.224C95.424 201.347 95.3493 201.499 95.28 201.68C95.216 201.856 95.168 202.08 95.136 202.352C95.1093 202.619 95.096 202.939 95.096 203.312C95.096 203.685 95.1547 204.101 95.272 204.56C95.3893 205.019 95.52 205.325 95.664 205.48C96.1173 205.971 96.344 206.275 96.344 206.392C96.344 206.451 96.3067 206.496 96.232 206.528C96.1573 206.565 96.072 206.584 95.976 206.584C95.8853 206.584 95.8053 206.552 95.736 206.488C95.2613 206.013 94.9333 205.541 94.752 205.072C94.5707 204.597 94.48 204.051 94.48 203.432ZM96.9919 200.592C96.9919 200.379 97.1252 200.272 97.3919 200.272C97.5145 200.272 97.5865 200.347 97.6079 200.496V201.696C97.6079 201.92 97.6105 202.144 97.6159 202.368C97.7225 202.336 97.8585 202.32 98.0239 202.32C98.5412 202.32 98.9412 202.493 99.2239 202.84C99.5065 203.187 99.6479 203.621 99.6479 204.144C99.6479 204.667 99.4799 205.109 99.1439 205.472C98.8132 205.829 98.3865 206.008 97.8639 206.008C97.3412 206.008 97.0799 205.861 97.0799 205.568C97.0799 205.269 97.0639 204.517 97.0319 203.312C97.0052 202.101 96.9919 201.195 96.9919 200.592ZM98.6079 203.168C98.4159 203.019 98.2132 202.944 97.9999 202.944C97.8825 202.944 97.7625 202.965 97.6399 203.008C97.6719 203.445 97.6879 204.221 97.6879 205.336C97.7785 205.368 97.8719 205.384 97.9679 205.384C98.1759 205.384 98.3839 205.307 98.5919 205.152C98.9012 204.939 99.0559 204.613 99.0559 204.176C99.0559 203.733 98.9065 203.397 98.6079 203.168ZM102.825 202.304C102.894 202.304 102.961 202.328 103.025 202.376C103.094 202.424 103.129 202.477 103.129 202.536C103.129 202.691 102.902 203.528 102.449 205.048C101.995 206.568 101.659 207.635 101.441 208.248C101.393 208.392 101.318 208.464 101.217 208.464C101.115 208.464 101.035 208.427 100.977 208.352C100.918 208.283 100.889 208.179 100.889 208.04C100.889 207.901 100.977 207.568 101.153 207.04C101.334 206.517 101.443 206.184 101.481 206.04C101.347 205.816 100.897 204.696 100.129 202.68C100.118 202.653 100.113 202.619 100.113 202.576C100.113 202.533 100.145 202.477 100.209 202.408C100.273 202.339 100.361 202.304 100.473 202.304C100.585 202.304 100.675 202.36 100.745 202.472C100.819 202.664 100.942 203 101.113 203.48C101.283 203.955 101.414 204.299 101.505 204.512C101.601 204.725 101.691 204.947 101.777 205.176C101.851 204.925 101.979 204.44 102.161 203.72C102.342 202.995 102.446 202.581 102.473 202.48C102.494 202.363 102.611 202.304 102.825 202.304ZM103.856 202.264L104.256 202.272C104.346 202.272 104.397 202.269 104.408 202.264V200.624C104.413 200.533 104.458 200.456 104.544 200.392C104.629 200.328 104.709 200.296 104.784 200.296C104.858 200.296 104.917 200.32 104.96 200.368C105.008 200.416 105.029 200.491 105.024 200.592C105.018 200.693 105.016 201.248 105.016 202.256L105.952 202.224C106.112 202.224 106.192 202.317 106.192 202.504C106.192 202.643 106.149 202.747 106.064 202.816C105.984 202.885 105.896 202.923 105.8 202.928C105.709 202.933 105.618 202.936 105.528 202.936L105.04 202.928C105.04 203.147 105.061 203.579 105.104 204.224C105.152 204.869 105.189 205.288 105.216 205.48C105.242 205.667 105.248 205.789 105.232 205.848C105.216 205.901 105.186 205.939 105.144 205.96C105.074 205.992 104.981 206.008 104.864 206.008C104.746 206.008 104.677 205.944 104.656 205.816C104.549 205.117 104.477 204.157 104.44 202.936C104.392 202.941 104.208 202.944 103.888 202.944C103.568 202.944 103.408 202.851 103.408 202.664C103.408 202.397 103.557 202.264 103.856 202.264ZM107.558 202.296C107.84 202.296 108.11 202.379 108.366 202.544C108.622 202.709 108.75 202.915 108.75 203.16C108.75 203.4 108.646 203.635 108.438 203.864C108.23 204.088 107.952 204.224 107.606 204.272C107.456 204.293 107.232 204.304 106.934 204.304C106.992 204.757 107.107 205.056 107.278 205.2C107.331 205.259 107.403 205.288 107.494 205.288C107.824 205.288 108.102 205.184 108.326 204.976C108.55 204.763 108.71 204.656 108.806 204.656C108.848 204.656 108.912 204.696 108.998 204.776C109.083 204.856 109.126 204.931 109.126 205C109.126 205.139 108.958 205.339 108.622 205.6C108.472 205.723 108.291 205.827 108.078 205.912C107.87 205.992 107.675 206.032 107.494 206.032C107.03 206.032 106.688 205.733 106.47 205.136C106.331 204.768 106.262 204.363 106.262 203.92C106.262 203.477 106.366 203.096 106.574 202.776C106.782 202.456 107.11 202.296 107.558 202.296ZM107.598 202.848C107.395 202.848 107.222 202.963 107.078 203.192C107.024 203.272 106.974 203.453 106.926 203.736C107.672 203.736 108.046 203.552 108.046 203.184C108.046 202.96 107.896 202.848 107.598 202.848ZM111.325 204.128C111.325 203.771 111.418 203.445 111.605 203.152C111.797 202.859 112.039 202.64 112.333 202.496C112.626 202.347 112.911 202.272 113.189 202.272C113.466 202.272 113.687 202.307 113.853 202.376C114.023 202.44 114.109 202.528 114.109 202.64C114.109 202.747 114.077 202.856 114.013 202.968C113.954 203.075 113.874 203.128 113.773 203.128C113.735 203.128 113.631 203.099 113.461 203.04C113.295 202.976 113.189 202.944 113.141 202.944C112.831 202.944 112.567 203.059 112.349 203.288C112.13 203.512 112.021 203.811 112.021 204.184C112.021 204.557 112.079 204.837 112.197 205.024C112.319 205.205 112.527 205.296 112.821 205.296C112.938 205.296 113.138 205.229 113.421 205.096C113.709 204.957 113.887 204.888 113.957 204.888C114.026 204.888 114.082 204.909 114.125 204.952C114.167 204.995 114.189 205.048 114.189 205.112C114.189 205.24 114.106 205.376 113.941 205.52C113.781 205.659 113.581 205.776 113.341 205.872C113.101 205.963 112.885 206.008 112.693 206.008C112.266 206.008 111.93 205.84 111.685 205.504C111.445 205.168 111.325 204.709 111.325 204.128ZM115.954 202.272C116.338 202.272 116.653 202.456 116.898 202.824C117.149 203.192 117.274 203.635 117.274 204.152C117.274 204.664 117.146 205.101 116.89 205.464C116.64 205.827 116.304 206.008 115.882 206.008C115.466 206.008 115.13 205.824 114.874 205.456C114.618 205.083 114.49 204.669 114.49 204.216C114.49 203.635 114.608 203.171 114.842 202.824C115.093 202.456 115.464 202.272 115.954 202.272ZM115.858 202.928C115.634 202.928 115.45 203.045 115.306 203.28C115.162 203.515 115.09 203.763 115.09 204.024C115.09 204.429 115.17 204.739 115.33 204.952C115.49 205.165 115.672 205.272 115.874 205.272C116.237 205.272 116.469 205.115 116.57 204.8C116.613 204.651 116.634 204.464 116.634 204.24C116.634 203.365 116.376 202.928 115.858 202.928ZM119.677 202.256L119.669 200.712C119.669 200.424 119.76 200.28 119.941 200.28C120.128 200.28 120.232 200.36 120.253 200.52C120.264 200.589 120.277 201.008 120.293 201.776C120.309 202.544 120.333 203.264 120.365 203.936C120.402 204.608 120.421 205.235 120.421 205.816C120.421 205.976 120.301 206.056 120.061 206.056C119.901 206.056 119.821 205.944 119.821 205.72C119.592 205.901 119.32 205.992 119.005 205.992C118.605 205.992 118.28 205.843 118.029 205.544C117.784 205.245 117.661 204.877 117.661 204.44C117.661 204.003 117.749 203.595 117.925 203.216C118.106 202.832 118.386 202.557 118.765 202.392C119 202.291 119.226 202.24 119.445 202.24C119.525 202.24 119.602 202.245 119.677 202.256ZM119.717 203.352C119.68 203.235 119.634 203.147 119.581 203.088C119.528 203.024 119.469 202.987 119.405 202.976C119.346 202.96 119.274 202.952 119.189 202.952C119.104 202.952 119 202.984 118.877 203.048C118.754 203.112 118.65 203.216 118.565 203.36C118.394 203.648 118.309 203.952 118.309 204.272C118.309 204.587 118.37 204.845 118.493 205.048C118.621 205.245 118.8 205.344 119.029 205.344C119.264 205.344 119.448 205.229 119.581 205C119.714 204.771 119.781 204.477 119.781 204.12C119.781 203.72 119.76 203.464 119.717 203.352ZM122.034 202.296C122.317 202.296 122.586 202.379 122.842 202.544C123.098 202.709 123.226 202.915 123.226 203.16C123.226 203.4 123.122 203.635 122.914 203.864C122.706 204.088 122.429 204.224 122.082 204.272C121.933 204.293 121.709 204.304 121.41 204.304C121.469 204.757 121.583 205.056 121.754 205.2C121.807 205.259 121.879 205.288 121.97 205.288C122.301 205.288 122.578 205.184 122.802 204.976C123.026 204.763 123.186 204.656 123.282 204.656C123.325 204.656 123.389 204.696 123.474 204.776C123.559 204.856 123.602 204.931 123.602 205C123.602 205.139 123.434 205.339 123.098 205.6C122.949 205.723 122.767 205.827 122.554 205.912C122.346 205.992 122.151 206.032 121.97 206.032C121.506 206.032 121.165 205.733 120.946 205.136C120.807 204.768 120.738 204.363 120.738 203.92C120.738 203.477 120.842 203.096 121.05 202.776C121.258 202.456 121.586 202.296 122.034 202.296ZM122.074 202.848C121.871 202.848 121.698 202.963 121.554 203.192C121.501 203.272 121.45 203.453 121.402 203.736C122.149 203.736 122.522 203.552 122.522 203.184C122.522 202.96 122.373 202.848 122.074 202.848ZM126.126 202.992C126.126 203.696 126.059 204.251 125.926 204.656C125.798 205.061 125.542 205.528 125.158 206.056C124.966 206.317 124.835 206.472 124.766 206.52C124.696 206.568 124.622 206.592 124.542 206.592C124.467 206.592 124.398 206.563 124.334 206.504C124.27 206.451 124.238 206.395 124.238 206.336C124.238 206.32 124.382 206.104 124.67 205.688C124.963 205.272 125.16 204.963 125.262 204.76C125.363 204.557 125.432 204.301 125.47 203.992C125.507 203.677 125.526 203.331 125.526 202.952C125.526 202.568 125.464 202.147 125.342 201.688C125.224 201.224 125.094 200.915 124.95 200.76C124.48 200.275 124.246 199.963 124.246 199.824C124.246 199.776 124.283 199.736 124.358 199.704C124.438 199.672 124.526 199.656 124.622 199.656C124.723 199.656 124.792 199.68 124.83 199.728C125.336 200.235 125.678 200.731 125.854 201.216C126.035 201.696 126.126 202.288 126.126 202.992Z" fill="black"/>
<path d="M147.792 189.912C147.877 189.859 147.973 189.832 148.08 189.832C148.187 189.832 148.253 189.893 148.28 190.016C148.285 190.635 148.296 191.56 148.312 192.792C148.312 193.544 148.291 194.181 148.248 194.704C148.237 194.784 148.187 194.856 148.096 194.92C148.011 194.979 147.923 195.008 147.832 195.008C147.683 195.008 147.608 194.931 147.608 194.776C147.661 194.243 147.688 193.581 147.688 192.792L147.64 190.104C147.661 190.029 147.712 189.965 147.792 189.912ZM149.491 194.752L149.403 191.504C149.403 191.403 149.437 191.32 149.507 191.256C149.576 191.192 149.645 191.16 149.715 191.16C149.885 191.16 149.984 191.232 150.011 191.376C150.032 191.52 150.043 191.669 150.043 191.824C150.331 191.445 150.691 191.256 151.123 191.256C151.784 191.256 152.115 192.011 152.115 193.52C152.115 193.659 152.115 193.869 152.115 194.152C152.115 194.429 152.099 194.632 152.067 194.76C152.029 194.92 151.915 195 151.723 195C151.595 195 151.531 194.915 151.531 194.744L151.539 194.296C151.539 193.677 151.517 193.256 151.475 193.032C151.437 192.803 151.4 192.621 151.363 192.488C151.272 192.2 151.125 192.056 150.923 192.056C150.656 192.056 150.469 192.152 150.363 192.344C150.245 192.552 150.176 192.797 150.155 193.08C150.117 193.576 150.099 194.101 150.099 194.656C150.099 194.763 150.059 194.848 149.979 194.912C149.899 194.976 149.803 195.008 149.691 195.008C149.557 195.008 149.491 194.923 149.491 194.752ZM153.004 191.264L153.404 191.272C153.495 191.272 153.545 191.269 153.556 191.264V189.624C153.561 189.533 153.607 189.456 153.692 189.392C153.777 189.328 153.857 189.296 153.932 189.296C154.007 189.296 154.065 189.32 154.108 189.368C154.156 189.416 154.177 189.491 154.172 189.592C154.167 189.693 154.164 190.248 154.164 191.256L155.1 191.224C155.26 191.224 155.34 191.317 155.34 191.504C155.34 191.643 155.297 191.747 155.212 191.816C155.132 191.885 155.044 191.923 154.948 191.928C154.857 191.933 154.767 191.936 154.676 191.936L154.188 191.928C154.188 192.147 154.209 192.579 154.252 193.224C154.3 193.869 154.337 194.288 154.364 194.48C154.391 194.667 154.396 194.789 154.38 194.848C154.364 194.901 154.335 194.939 154.292 194.96C154.223 194.992 154.129 195.008 154.012 195.008C153.895 195.008 153.825 194.944 153.804 194.816C153.697 194.117 153.625 193.157 153.588 191.936C153.54 191.941 153.356 191.944 153.036 191.944C152.716 191.944 152.556 191.851 152.556 191.664C152.556 191.397 152.705 191.264 153.004 191.264ZM156.706 191.296C156.989 191.296 157.258 191.379 157.514 191.544C157.77 191.709 157.898 191.915 157.898 192.16C157.898 192.4 157.794 192.635 157.586 192.864C157.378 193.088 157.101 193.224 156.754 193.272C156.605 193.293 156.381 193.304 156.082 193.304C156.141 193.757 156.255 194.056 156.426 194.2C156.479 194.259 156.551 194.288 156.642 194.288C156.973 194.288 157.25 194.184 157.474 193.976C157.698 193.763 157.858 193.656 157.954 193.656C157.997 193.656 158.061 193.696 158.146 193.776C158.231 193.856 158.274 193.931 158.274 194C158.274 194.139 158.106 194.339 157.77 194.6C157.621 194.723 157.439 194.827 157.226 194.912C157.018 194.992 156.823 195.032 156.642 195.032C156.178 195.032 155.837 194.733 155.618 194.136C155.479 193.768 155.41 193.363 155.41 192.92C155.41 192.477 155.514 192.096 155.722 191.776C155.93 191.456 156.258 191.296 156.706 191.296ZM156.746 191.848C156.543 191.848 156.37 191.963 156.226 192.192C156.173 192.272 156.122 192.453 156.074 192.736C156.821 192.736 157.194 192.552 157.194 192.184C157.194 191.96 157.045 191.848 156.746 191.848ZM160.006 194.992C159.824 194.992 159.656 194.931 159.502 194.808C159.502 194.808 159.467 194.779 159.398 194.72V197.12C159.366 197.227 159.31 197.315 159.23 197.384C159.15 197.459 159.064 197.496 158.974 197.496C158.835 197.496 158.766 197.403 158.766 197.216V191.64C158.798 191.501 158.835 191.403 158.878 191.344C158.926 191.285 158.998 191.256 159.094 191.256C159.195 191.256 159.259 191.28 159.286 191.328C159.318 191.371 159.355 191.493 159.398 191.696C159.419 191.589 159.504 191.491 159.654 191.4C159.803 191.309 160.003 191.264 160.254 191.264C160.798 191.264 161.184 191.461 161.414 191.856C161.643 192.251 161.758 192.717 161.758 193.256C161.758 193.789 161.6 194.213 161.286 194.528C160.976 194.837 160.55 194.992 160.006 194.992ZM159.398 192.592V194.08C159.43 194.096 159.467 194.123 159.51 194.16C159.664 194.299 159.832 194.368 160.014 194.368C160.75 194.368 161.118 193.989 161.118 193.232C161.118 192.587 160.952 192.179 160.622 192.008C160.483 191.933 160.312 191.896 160.11 191.896C159.912 191.923 159.744 192.011 159.606 192.16C159.467 192.304 159.398 192.448 159.398 192.592ZM163.195 193.832L163.203 194.656C163.203 194.752 163.158 194.84 163.067 194.92C162.982 195 162.897 195.04 162.811 195.04C162.689 195.04 162.611 194.944 162.579 194.752C162.574 194.709 162.553 194.32 162.515 193.584C162.478 192.843 162.406 192.261 162.299 191.84C162.251 191.637 162.227 191.517 162.227 191.48C162.227 191.304 162.334 191.216 162.547 191.216C162.638 191.216 162.71 191.251 162.763 191.32C162.817 191.389 162.849 191.461 162.859 191.536C162.875 191.605 162.889 191.701 162.899 191.824C162.91 191.947 162.918 192.024 162.923 192.056C163.035 191.789 163.203 191.589 163.427 191.456C163.651 191.323 163.897 191.256 164.163 191.256C164.601 191.256 164.819 191.368 164.819 191.592C164.819 191.704 164.779 191.795 164.699 191.864C164.625 191.928 164.537 191.96 164.435 191.96C163.982 191.96 163.662 192.104 163.475 192.392C163.289 192.68 163.195 193.16 163.195 193.832ZM166.394 191.296C166.676 191.296 166.946 191.379 167.202 191.544C167.458 191.709 167.586 191.915 167.586 192.16C167.586 192.4 167.482 192.635 167.274 192.864C167.066 193.088 166.788 193.224 166.442 193.272C166.292 193.293 166.068 193.304 165.77 193.304C165.828 193.757 165.943 194.056 166.113 194.2C166.167 194.259 166.239 194.288 166.33 194.288C166.66 194.288 166.938 194.184 167.162 193.976C167.386 193.763 167.546 193.656 167.642 193.656C167.684 193.656 167.748 193.696 167.834 193.776C167.919 193.856 167.962 193.931 167.962 194C167.962 194.139 167.794 194.339 167.458 194.6C167.308 194.723 167.127 194.827 166.914 194.912C166.706 194.992 166.511 195.032 166.33 195.032C165.866 195.032 165.524 194.733 165.306 194.136C165.167 193.768 165.098 193.363 165.098 192.92C165.098 192.477 165.202 192.096 165.41 191.776C165.618 191.456 165.946 191.296 166.394 191.296ZM166.434 191.848C166.231 191.848 166.058 191.963 165.914 192.192C165.86 192.272 165.81 192.453 165.762 192.736C166.508 192.736 166.882 192.552 166.882 192.184C166.882 191.96 166.732 191.848 166.434 191.848ZM168.629 191.264L169.029 191.272C169.12 191.272 169.17 191.269 169.181 191.264V189.624C169.186 189.533 169.232 189.456 169.317 189.392C169.402 189.328 169.482 189.296 169.557 189.296C169.632 189.296 169.69 189.32 169.733 189.368C169.781 189.416 169.802 189.491 169.797 189.592C169.792 189.693 169.789 190.248 169.789 191.256L170.725 191.224C170.885 191.224 170.965 191.317 170.965 191.504C170.965 191.643 170.922 191.747 170.837 191.816C170.757 191.885 170.669 191.923 170.573 191.928C170.482 191.933 170.392 191.936 170.301 191.936L169.813 191.928C169.813 192.147 169.834 192.579 169.877 193.224C169.925 193.869 169.962 194.288 169.989 194.48C170.016 194.667 170.021 194.789 170.005 194.848C169.989 194.901 169.96 194.939 169.917 194.96C169.848 194.992 169.754 195.008 169.637 195.008C169.52 195.008 169.45 194.944 169.429 194.816C169.322 194.117 169.25 193.157 169.213 191.936C169.165 191.941 168.981 191.944 168.661 191.944C168.341 191.944 168.181 191.851 168.181 191.664C168.181 191.397 168.33 191.264 168.629 191.264ZM172.331 191.296C172.614 191.296 172.883 191.379 173.139 191.544C173.395 191.709 173.523 191.915 173.523 192.16C173.523 192.4 173.419 192.635 173.211 192.864C173.003 193.088 172.726 193.224 172.379 193.272C172.23 193.293 172.006 193.304 171.707 193.304C171.766 193.757 171.88 194.056 172.051 194.2C172.104 194.259 172.176 194.288 172.267 194.288C172.598 194.288 172.875 194.184 173.099 193.976C173.323 193.763 173.483 193.656 173.579 193.656C173.622 193.656 173.686 193.696 173.771 193.776C173.856 193.856 173.899 193.931 173.899 194C173.899 194.139 173.731 194.339 173.395 194.6C173.246 194.723 173.064 194.827 172.851 194.912C172.643 194.992 172.448 195.032 172.267 195.032C171.803 195.032 171.462 194.733 171.243 194.136C171.104 193.768 171.035 193.363 171.035 192.92C171.035 192.477 171.139 192.096 171.347 191.776C171.555 191.456 171.883 191.296 172.331 191.296ZM172.371 191.848C172.168 191.848 171.995 191.963 171.851 192.192C171.798 192.272 171.747 192.453 171.699 192.736C172.446 192.736 172.819 192.552 172.819 192.184C172.819 191.96 172.67 191.848 172.371 191.848ZM175.399 193.832L175.407 194.656C175.407 194.752 175.361 194.84 175.271 194.92C175.185 195 175.1 195.04 175.015 195.04C174.892 195.04 174.815 194.944 174.783 194.752C174.777 194.709 174.756 194.32 174.719 193.584C174.681 192.843 174.609 192.261 174.503 191.84C174.455 191.637 174.431 191.517 174.431 191.48C174.431 191.304 174.537 191.216 174.751 191.216C174.841 191.216 174.913 191.251 174.967 191.32C175.02 191.389 175.052 191.461 175.062 191.536C175.079 191.605 175.092 191.701 175.103 191.824C175.113 191.947 175.121 192.024 175.127 192.056C175.239 191.789 175.407 191.589 175.631 191.456C175.855 191.323 176.1 191.256 176.367 191.256C176.804 191.256 177.023 191.368 177.023 191.592C177.023 191.704 176.983 191.795 176.903 191.864C176.828 191.928 176.74 191.96 176.639 191.96C176.185 191.96 175.865 192.104 175.679 192.392C175.492 192.68 175.399 193.16 175.399 193.832Z" fill="black"/>
<path d="M206.104 187.672C206.232 187.672 206.315 187.765 206.352 187.952C206.379 188.821 206.392 189.771 206.392 190.8C206.392 191.824 206.387 192.416 206.376 192.576C206.365 192.736 206.331 192.848 206.272 192.912C206.213 192.976 206.107 193.008 205.952 193.008C205.813 193.008 205.744 192.923 205.744 192.752V190.944C205.744 190.651 205.739 190.349 205.728 190.04C205.717 189.731 205.712 189.536 205.712 189.456C205.531 189.765 205.291 190.021 204.992 190.224C204.693 190.421 204.36 190.52 203.992 190.52C203.624 190.52 203.315 190.368 203.064 190.064C203.053 190.389 203.048 190.776 203.048 191.224C203.048 191.667 203.051 192.133 203.056 192.624C203.056 192.757 203.011 192.856 202.92 192.92C202.835 192.979 202.736 193.008 202.624 193.008C202.48 193.008 202.408 192.92 202.408 192.744C202.413 192.264 202.416 191.504 202.416 190.464V188.192C202.416 188.101 202.445 188.013 202.504 187.928C202.568 187.843 202.64 187.8 202.72 187.8C202.805 187.8 202.883 187.824 202.952 187.872C203.021 187.915 203.059 187.981 203.064 188.072C203.085 188.664 203.181 189.104 203.352 189.392C203.523 189.68 203.725 189.824 203.96 189.824C204.195 189.824 204.395 189.787 204.56 189.712C204.731 189.632 204.869 189.541 204.976 189.44C205.088 189.339 205.195 189.195 205.296 189.008C205.44 188.741 205.579 188.413 205.712 188.024C205.792 187.789 205.923 187.672 206.104 187.672ZM209.294 189.264C209.528 189.264 209.646 189.464 209.646 189.864C209.646 189.907 209.646 189.952 209.646 190L209.63 190.56C209.624 190.736 209.622 190.909 209.622 191.08L209.742 192.888C209.742 193.021 209.606 193.088 209.334 193.088C209.318 193.088 209.278 193.088 209.214 193.088C209.155 193.088 209.112 193.064 209.086 193.016C209.064 192.968 209.062 192.909 209.078 192.84C209.099 192.771 209.094 192.693 209.062 192.608C208.816 192.869 208.491 193 208.086 193C207.334 193 206.958 192.419 206.958 191.256C206.958 190.611 207.078 190.123 207.318 189.792C207.563 189.461 207.912 189.296 208.366 189.296C208.579 189.296 208.792 189.333 209.006 189.408C209.075 189.312 209.171 189.264 209.294 189.264ZM208.462 189.992C208.158 189.992 207.931 190.08 207.782 190.256C207.632 190.432 207.558 190.755 207.558 191.224C207.558 192.013 207.771 192.408 208.198 192.408C208.31 192.408 208.432 192.357 208.566 192.256C208.704 192.155 208.8 192.04 208.854 191.912C208.955 191.624 209.006 191.309 209.006 190.968C209.006 190.627 208.963 190.379 208.878 190.224C208.798 190.069 208.659 189.992 208.462 189.992ZM210.083 191.128C210.083 190.771 210.176 190.445 210.363 190.152C210.555 189.859 210.797 189.64 211.091 189.496C211.384 189.347 211.669 189.272 211.947 189.272C212.224 189.272 212.445 189.307 212.611 189.376C212.781 189.44 212.867 189.528 212.867 189.64C212.867 189.747 212.835 189.856 212.771 189.968C212.712 190.075 212.632 190.128 212.531 190.128C212.493 190.128 212.389 190.099 212.219 190.04C212.053 189.976 211.947 189.944 211.899 189.944C211.589 189.944 211.325 190.059 211.107 190.288C210.888 190.512 210.779 190.811 210.779 191.184C210.779 191.557 210.837 191.837 210.955 192.024C211.077 192.205 211.285 192.296 211.579 192.296C211.696 192.296 211.896 192.229 212.179 192.096C212.467 191.957 212.645 191.888 212.715 191.888C212.784 191.888 212.84 191.909 212.883 191.952C212.925 191.995 212.947 192.048 212.947 192.112C212.947 192.24 212.864 192.376 212.699 192.52C212.539 192.659 212.339 192.776 212.099 192.872C211.859 192.963 211.643 193.008 211.451 193.008C211.024 193.008 210.688 192.84 210.443 192.504C210.203 192.168 210.083 191.709 210.083 191.128ZM214.152 190.408L214.216 192.296C214.216 192.531 214.206 192.667 214.184 192.704C214.174 192.8 214.142 192.875 214.088 192.928C214.04 192.981 213.944 193.008 213.8 193.008C213.731 193.008 213.675 192.965 213.632 192.88C213.59 192.789 213.566 192.688 213.56 192.576C213.523 191.637 213.472 190.757 213.408 189.936C213.35 189.109 213.32 188.341 213.32 187.632C213.32 187.52 213.358 187.432 213.432 187.368C213.507 187.304 213.595 187.272 213.696 187.272C213.846 187.272 213.934 187.4 213.96 187.656C213.992 187.912 214.011 188.232 214.016 188.616C214.027 189 214.038 189.28 214.048 189.456C214.315 189.317 214.582 189.248 214.848 189.248C215.467 189.248 215.859 189.52 216.024 190.064C216.12 190.373 216.168 190.771 216.168 191.256C216.168 191.416 216.152 191.669 216.12 192.016C216.094 192.357 216.078 192.579 216.072 192.68C216.067 192.781 216.022 192.861 215.936 192.92C215.856 192.973 215.768 193 215.672 193C215.523 193 215.448 192.92 215.448 192.76L215.504 191.368C215.504 191.251 215.499 191.056 215.488 190.784C215.478 190.512 215.422 190.296 215.32 190.136C215.224 189.976 215.054 189.896 214.808 189.896C214.371 189.896 214.152 190.067 214.152 190.408ZM217.184 187.944C217.28 187.944 217.37 187.989 217.456 188.08C217.541 188.171 217.584 188.267 217.584 188.368C217.584 188.464 217.536 188.563 217.44 188.664C217.349 188.765 217.253 188.816 217.152 188.816C217.05 188.816 216.957 188.773 216.872 188.688C216.792 188.603 216.752 188.493 216.752 188.36C216.752 188.104 216.89 187.965 217.168 187.944C217.173 187.944 217.178 187.944 217.184 187.944ZM217.52 192.136L217.528 192.696C217.528 192.797 217.488 192.883 217.408 192.952C217.328 193.016 217.242 193.048 217.152 193.048C217.018 193.048 216.949 192.981 216.944 192.848C216.874 191.147 216.84 190.205 216.84 190.024C216.84 189.843 216.848 189.621 216.864 189.36C216.874 189.264 216.936 189.216 217.048 189.216C217.33 189.216 217.49 189.331 217.528 189.56C217.544 189.677 217.552 189.771 217.552 189.84L217.52 190.344V192.136ZM218.749 192.752L218.661 189.504C218.661 189.403 218.695 189.32 218.765 189.256C218.834 189.192 218.903 189.16 218.973 189.16C219.143 189.16 219.242 189.232 219.269 189.376C219.29 189.52 219.301 189.669 219.301 189.824C219.589 189.445 219.949 189.256 220.381 189.256C221.042 189.256 221.373 190.011 221.373 191.52C221.373 191.659 221.373 191.869 221.373 192.152C221.373 192.429 221.357 192.632 221.325 192.76C221.287 192.92 221.173 193 220.981 193C220.853 193 220.789 192.915 220.789 192.744L220.797 192.296C220.797 191.677 220.775 191.256 220.733 191.032C220.695 190.803 220.658 190.621 220.621 190.488C220.53 190.2 220.383 190.056 220.181 190.056C219.914 190.056 219.727 190.152 219.621 190.344C219.503 190.552 219.434 190.797 219.413 191.08C219.375 191.576 219.357 192.101 219.357 192.656C219.357 192.763 219.317 192.848 219.237 192.912C219.157 192.976 219.061 193.008 218.949 193.008C218.815 193.008 218.749 192.923 218.749 192.752ZM223.214 189.296C223.496 189.296 223.766 189.379 224.022 189.544C224.278 189.709 224.406 189.915 224.406 190.16C224.406 190.4 224.302 190.635 224.094 190.864C223.886 191.088 223.608 191.224 223.262 191.272C223.112 191.293 222.888 191.304 222.59 191.304C222.648 191.757 222.763 192.056 222.934 192.2C222.987 192.259 223.059 192.288 223.15 192.288C223.48 192.288 223.758 192.184 223.982 191.976C224.206 191.763 224.366 191.656 224.462 191.656C224.504 191.656 224.568 191.696 224.654 191.776C224.739 191.856 224.782 191.931 224.782 192C224.782 192.139 224.614 192.339 224.278 192.6C224.128 192.723 223.947 192.827 223.734 192.912C223.526 192.992 223.331 193.032 223.15 193.032C222.686 193.032 222.344 192.733 222.126 192.136C221.987 191.768 221.918 191.363 221.918 190.92C221.918 190.477 222.022 190.096 222.23 189.776C222.438 189.456 222.766 189.296 223.214 189.296ZM223.254 189.848C223.051 189.848 222.878 189.963 222.734 190.192C222.68 190.272 222.63 190.453 222.582 190.736C223.328 190.736 223.702 190.552 223.702 190.184C223.702 189.96 223.552 189.848 223.254 189.848ZM226.981 191.128C226.981 190.771 227.074 190.445 227.261 190.152C227.453 189.859 227.696 189.64 227.989 189.496C228.282 189.347 228.568 189.272 228.845 189.272C229.122 189.272 229.344 189.307 229.509 189.376C229.68 189.44 229.765 189.528 229.765 189.64C229.765 189.747 229.733 189.856 229.669 189.968C229.61 190.075 229.53 190.128 229.429 190.128C229.392 190.128 229.288 190.099 229.117 190.04C228.952 189.976 228.845 189.944 228.797 189.944C228.488 189.944 228.224 190.059 228.005 190.288C227.786 190.512 227.677 190.811 227.677 191.184C227.677 191.557 227.736 191.837 227.853 192.024C227.976 192.205 228.184 192.296 228.477 192.296C228.594 192.296 228.794 192.229 229.077 192.096C229.365 191.957 229.544 191.888 229.613 191.888C229.682 191.888 229.738 191.909 229.781 191.952C229.824 191.995 229.845 192.048 229.845 192.112C229.845 192.24 229.762 192.376 229.597 192.52C229.437 192.659 229.237 192.776 228.997 192.872C228.757 192.963 228.541 193.008 228.349 193.008C227.922 193.008 227.586 192.84 227.341 192.504C227.101 192.168 226.981 191.709 226.981 191.128ZM231.611 189.272C231.995 189.272 232.309 189.456 232.555 189.824C232.805 190.192 232.931 190.635 232.931 191.152C232.931 191.664 232.803 192.101 232.547 192.464C232.296 192.827 231.96 193.008 231.539 193.008C231.123 193.008 230.787 192.824 230.531 192.456C230.275 192.083 230.147 191.669 230.147 191.216C230.147 190.635 230.264 190.171 230.499 189.824C230.749 189.456 231.12 189.272 231.611 189.272ZM231.515 189.928C231.291 189.928 231.107 190.045 230.963 190.28C230.819 190.515 230.747 190.763 230.747 191.024C230.747 191.429 230.827 191.739 230.987 191.952C231.147 192.165 231.328 192.272 231.531 192.272C231.893 192.272 232.125 192.115 232.227 191.8C232.269 191.651 232.291 191.464 232.291 191.24C232.291 190.365 232.032 189.928 231.515 189.928ZM235.333 189.256L235.325 187.712C235.325 187.424 235.416 187.28 235.597 187.28C235.784 187.28 235.888 187.36 235.909 187.52C235.92 187.589 235.933 188.008 235.949 188.776C235.965 189.544 235.989 190.264 236.021 190.936C236.059 191.608 236.077 192.235 236.077 192.816C236.077 192.976 235.957 193.056 235.717 193.056C235.557 193.056 235.477 192.944 235.477 192.72C235.248 192.901 234.976 192.992 234.661 192.992C234.261 192.992 233.936 192.843 233.685 192.544C233.44 192.245 233.317 191.877 233.317 191.44C233.317 191.003 233.405 190.595 233.581 190.216C233.763 189.832 234.043 189.557 234.421 189.392C234.656 189.291 234.883 189.24 235.101 189.24C235.181 189.24 235.259 189.245 235.333 189.256ZM235.373 190.352C235.336 190.235 235.291 190.147 235.237 190.088C235.184 190.024 235.125 189.987 235.061 189.976C235.003 189.96 234.931 189.952 234.845 189.952C234.76 189.952 234.656 189.984 234.533 190.048C234.411 190.112 234.307 190.216 234.221 190.36C234.051 190.648 233.965 190.952 233.965 191.272C233.965 191.587 234.027 191.845 234.149 192.048C234.277 192.245 234.456 192.344 234.685 192.344C234.92 192.344 235.104 192.229 235.237 192C235.371 191.771 235.437 191.477 235.437 191.12C235.437 190.72 235.416 190.464 235.373 190.352ZM237.69 189.296C237.973 189.296 238.242 189.379 238.498 189.544C238.754 189.709 238.882 189.915 238.882 190.16C238.882 190.4 238.778 190.635 238.57 190.864C238.362 191.088 238.085 191.224 237.738 191.272C237.589 191.293 237.365 191.304 237.066 191.304C237.125 191.757 237.24 192.056 237.41 192.2C237.464 192.259 237.536 192.288 237.626 192.288C237.957 192.288 238.234 192.184 238.458 191.976C238.682 191.763 238.842 191.656 238.938 191.656C238.981 191.656 239.045 191.696 239.13 191.776C239.216 191.856 239.258 191.931 239.258 192C239.258 192.139 239.09 192.339 238.754 192.6C238.605 192.723 238.424 192.827 238.21 192.912C238.002 192.992 237.808 193.032 237.626 193.032C237.162 193.032 236.821 192.733 236.602 192.136C236.464 191.768 236.394 191.363 236.394 190.92C236.394 190.477 236.498 190.096 236.706 189.776C236.914 189.456 237.242 189.296 237.69 189.296ZM237.73 189.848C237.528 189.848 237.354 189.963 237.21 190.192C237.157 190.272 237.106 190.453 237.058 190.736C237.805 190.736 238.178 190.552 238.178 190.184C238.178 189.96 238.029 189.848 237.73 189.848ZM202.248 201.472C202.248 200.757 202.376 200.128 202.632 199.584C202.76 199.307 202.933 199.088 203.152 198.928C203.371 198.768 203.621 198.688 203.904 198.688C204.32 198.688 204.659 198.96 204.92 199.504C205.187 200.043 205.32 200.685 205.32 201.432C205.32 202.173 205.197 202.789 204.952 203.28C204.707 203.765 204.36 204.008 203.912 204.008C202.803 204.008 202.248 203.163 202.248 201.472ZM203.832 203.272C204.024 203.272 204.184 203.173 204.312 202.976C204.445 202.773 204.536 202.549 204.584 202.304C204.632 202.053 204.656 201.731 204.656 201.336C204.656 200.936 204.603 200.512 204.496 200.064C204.443 199.819 204.36 199.624 204.248 199.48C204.141 199.331 204.011 199.256 203.856 199.256C203.648 199.256 203.469 199.381 203.32 199.632C203.053 200.085 202.92 200.688 202.92 201.44C202.92 201.931 203.011 202.36 203.192 202.728C203.379 203.091 203.592 203.272 203.832 203.272ZM206.218 198.176C206.218 198.101 206.245 198.04 206.298 197.992C206.357 197.944 206.421 197.92 206.49 197.92C206.565 197.92 206.631 197.947 206.69 198C206.754 198.048 206.786 198.115 206.786 198.2C206.786 198.493 206.733 198.776 206.626 199.048C206.519 199.32 206.378 199.456 206.202 199.456C206.026 199.456 205.938 199.365 205.938 199.184C205.938 199.109 205.983 198.976 206.074 198.784C206.17 198.592 206.218 198.389 206.218 198.176ZM207.784 201.28C207.784 200.965 207.896 200.715 208.12 200.528C208.344 200.341 208.602 200.248 208.896 200.248C209.194 200.248 209.48 200.301 209.752 200.408C210.024 200.515 210.16 200.656 210.16 200.832C210.16 200.923 210.125 200.995 210.056 201.048C209.986 201.101 209.925 201.128 209.872 201.128C209.824 201.128 209.784 201.128 209.752 201.128C209.725 201.123 209.618 201.072 209.432 200.976C209.25 200.88 209.082 200.832 208.928 200.832C208.773 200.832 208.64 200.872 208.528 200.952C208.421 201.027 208.368 201.139 208.368 201.288C208.368 201.437 208.429 201.555 208.552 201.64C208.68 201.725 208.901 201.8 209.216 201.864C209.53 201.923 209.77 202.008 209.936 202.12C210.106 202.232 210.192 202.44 210.192 202.744C210.192 203.187 210.074 203.501 209.84 203.688C209.61 203.869 209.33 203.96 209 203.96C208.669 203.96 208.386 203.915 208.152 203.824C207.922 203.733 207.808 203.597 207.808 203.416C207.808 203.208 207.912 203.104 208.12 203.104C208.173 203.104 208.29 203.141 208.472 203.216C208.653 203.291 208.832 203.328 209.008 203.328C209.189 203.328 209.325 203.272 209.416 203.16C209.512 203.043 209.56 202.909 209.56 202.76C209.56 202.611 209.498 202.504 209.376 202.44C209.253 202.371 209.066 202.315 208.816 202.272C208.565 202.229 208.381 202.184 208.264 202.136C207.944 202.008 207.784 201.723 207.784 201.28ZM214.802 200.264C215.036 200.264 215.154 200.464 215.154 200.864C215.154 200.907 215.154 200.952 215.154 201L215.138 201.56C215.132 201.736 215.13 201.909 215.13 202.08L215.25 203.888C215.25 204.021 215.114 204.088 214.842 204.088C214.826 204.088 214.786 204.088 214.722 204.088C214.663 204.088 214.62 204.064 214.594 204.016C214.572 203.968 214.57 203.909 214.586 203.84C214.607 203.771 214.602 203.693 214.57 203.608C214.324 203.869 213.999 204 213.594 204C212.842 204 212.466 203.419 212.466 202.256C212.466 201.611 212.586 201.123 212.826 200.792C213.071 200.461 213.42 200.296 213.874 200.296C214.087 200.296 214.3 200.333 214.514 200.408C214.583 200.312 214.679 200.264 214.802 200.264ZM213.97 200.992C213.666 200.992 213.439 201.08 213.29 201.256C213.14 201.432 213.066 201.755 213.066 202.224C213.066 203.013 213.279 203.408 213.706 203.408C213.818 203.408 213.94 203.357 214.074 203.256C214.212 203.155 214.308 203.04 214.362 202.912C214.463 202.624 214.514 202.309 214.514 201.968C214.514 201.627 214.471 201.379 214.386 201.224C214.306 201.069 214.167 200.992 213.97 200.992ZM216.006 203.752L215.918 200.504C215.918 200.403 215.953 200.32 216.022 200.256C216.092 200.192 216.161 200.16 216.23 200.16C216.401 200.16 216.5 200.232 216.526 200.376C216.548 200.52 216.558 200.669 216.558 200.824C216.846 200.445 217.206 200.256 217.638 200.256C218.3 200.256 218.63 201.011 218.63 202.52C218.63 202.659 218.63 202.869 218.63 203.152C218.63 203.429 218.614 203.632 218.582 203.76C218.545 203.92 218.43 204 218.238 204C218.11 204 218.046 203.915 218.046 203.744L218.054 203.296C218.054 202.677 218.033 202.256 217.99 202.032C217.953 201.803 217.916 201.621 217.878 201.488C217.788 201.2 217.641 201.056 217.438 201.056C217.172 201.056 216.985 201.152 216.878 201.344C216.761 201.552 216.692 201.797 216.67 202.08C216.633 202.576 216.614 203.101 216.614 203.656C216.614 203.763 216.574 203.848 216.494 203.912C216.414 203.976 216.318 204.008 216.206 204.008C216.073 204.008 216.006 203.923 216.006 203.752ZM221.232 200.256L221.224 198.712C221.224 198.424 221.314 198.28 221.496 198.28C221.682 198.28 221.786 198.36 221.808 198.52C221.818 198.589 221.832 199.008 221.848 199.776C221.864 200.544 221.888 201.264 221.92 201.936C221.957 202.608 221.976 203.235 221.976 203.816C221.976 203.976 221.856 204.056 221.616 204.056C221.456 204.056 221.376 203.944 221.376 203.72C221.146 203.901 220.874 203.992 220.56 203.992C220.16 203.992 219.834 203.843 219.584 203.544C219.338 203.245 219.216 202.877 219.216 202.44C219.216 202.003 219.304 201.595 219.48 201.216C219.661 200.832 219.941 200.557 220.32 200.392C220.554 200.291 220.781 200.24 221 200.24C221.08 200.24 221.157 200.245 221.232 200.256ZM221.272 201.352C221.234 201.235 221.189 201.147 221.136 201.088C221.082 201.024 221.024 200.987 220.96 200.976C220.901 200.96 220.829 200.952 220.744 200.952C220.658 200.952 220.554 200.984 220.432 201.048C220.309 201.112 220.205 201.216 220.12 201.36C219.949 201.648 219.864 201.952 219.864 202.272C219.864 202.587 219.925 202.845 220.048 203.048C220.176 203.245 220.354 203.344 220.584 203.344C220.818 203.344 221.002 203.229 221.136 203C221.269 202.771 221.336 202.477 221.336 202.12C221.336 201.72 221.314 201.464 221.272 201.352ZM226.505 203.624C226.505 203.885 226.363 204.016 226.081 204.016C226.022 204.016 225.969 203.992 225.921 203.944C225.878 203.891 225.857 203.811 225.857 203.704L225.833 201.672C225.833 201 225.841 200.368 225.857 199.776C225.675 199.936 225.499 200.12 225.329 200.328C225.158 200.536 225.041 200.675 224.977 200.744C224.918 200.813 224.838 200.883 224.737 200.952C224.641 201.016 224.55 201.048 224.465 201.048C224.379 201.048 224.31 201.019 224.257 200.96C224.209 200.901 224.185 200.829 224.185 200.744C224.185 200.659 224.246 200.544 224.369 200.4C224.497 200.251 224.961 199.752 225.761 198.904C225.883 198.792 226.038 198.736 226.225 198.736C226.315 198.736 226.39 198.763 226.449 198.816C226.507 198.869 226.537 198.931 226.537 199L226.481 201.152L226.505 203.624ZM227.515 198.176C227.515 198.101 227.541 198.04 227.595 197.992C227.653 197.944 227.717 197.92 227.787 197.92C227.861 197.92 227.928 197.947 227.987 198C228.051 198.048 228.083 198.115 228.083 198.2C228.083 198.493 228.029 198.776 227.923 199.048C227.816 199.32 227.675 199.456 227.499 199.456C227.323 199.456 227.235 199.365 227.235 199.184C227.235 199.109 227.28 198.976 227.371 198.784C227.467 198.592 227.515 198.389 227.515 198.176ZM229.081 201.28C229.081 200.965 229.193 200.715 229.417 200.528C229.641 200.341 229.899 200.248 230.193 200.248C230.491 200.248 230.777 200.301 231.049 200.408C231.321 200.515 231.457 200.656 231.457 200.832C231.457 200.923 231.422 200.995 231.353 201.048C231.283 201.101 231.222 201.128 231.169 201.128C231.121 201.128 231.081 201.128 231.049 201.128C231.022 201.123 230.915 201.072 230.729 200.976C230.547 200.88 230.379 200.832 230.225 200.832C230.07 200.832 229.937 200.872 229.825 200.952C229.718 201.027 229.665 201.139 229.665 201.288C229.665 201.437 229.726 201.555 229.849 201.64C229.977 201.725 230.198 201.8 230.513 201.864C230.827 201.923 231.067 202.008 231.233 202.12C231.403 202.232 231.489 202.44 231.489 202.744C231.489 203.187 231.371 203.501 231.137 203.688C230.907 203.869 230.627 203.96 230.297 203.96C229.966 203.96 229.683 203.915 229.449 203.824C229.219 203.733 229.105 203.597 229.105 203.416C229.105 203.208 229.209 203.104 229.417 203.104C229.47 203.104 229.587 203.141 229.769 203.216C229.95 203.291 230.129 203.328 230.305 203.328C230.486 203.328 230.622 203.272 230.713 203.16C230.809 203.043 230.857 202.909 230.857 202.76C230.857 202.611 230.795 202.504 230.673 202.44C230.55 202.371 230.363 202.315 230.113 202.272C229.862 202.229 229.678 202.184 229.561 202.136C229.241 202.008 229.081 201.723 229.081 201.28Z" fill="black"/>
<path d="M40.0711 193.5L35.0711 190.613V196.387L40.0711 193.5ZM25.929 194H35.5711V193H25.929V194Z" fill="black"/>
<path d="M90 194L85 191.113V196.887L90 194ZM72 194.5H85.5V193.5H72V194.5Z" fill="black"/>
<path d="M144 193L139 190.113V195.887L144 193ZM124 193.5H139.5V192.5H124V193.5Z" fill="black"/>
<path d="M199 193L194 190.113V195.887L199 193ZM181 193.5H194.5V192.5H181V193.5Z" fill="black"/>
</svg>
