<svg width="210" height="104" viewBox="0 0 210 104" fill="none" xmlns="http://www.w3.org/2000/svg">
<rect width="210" height="104" fill="white"/>
<rect x="14" y="28" width="183" height="58" rx="5" fill="#63C7B2" stroke="black" stroke-width="0.5"/>
<rect x="31.1" y="49.1" width="20.8" height="20.8" rx="2.9" fill="#EE8434" stroke="black" stroke-width="0.2"/>
<rect x="64.1" y="49.1" width="20.8" height="20.8" rx="2.9" fill="#EE8434" stroke="black" stroke-width="0.2"/>
<rect x="97.1" y="49.1" width="20.8" height="20.8" rx="2.9" fill="#EE8434" stroke="black" stroke-width="0.2"/>
<path d="M24.156 16.008C24.348 16.008 24.472 16.148 24.528 16.428C24.568 17.732 24.588 19.156 24.588 20.7C24.588 22.236 24.58 23.124 24.564 23.364C24.548 23.604 24.496 23.772 24.408 23.868C24.32 23.964 24.16 24.012 23.928 24.012C23.72 24.012 23.616 23.884 23.616 23.628V20.916C23.616 20.476 23.608 20.024 23.592 19.56C23.576 19.096 23.568 18.804 23.568 18.684C23.296 19.148 22.936 19.532 22.488 19.836C22.04 20.132 21.54 20.28 20.988 20.28C20.436 20.28 19.972 20.052 19.596 19.596C19.58 20.084 19.572 20.664 19.572 21.336C19.572 22 19.576 22.7 19.584 23.436C19.584 23.636 19.516 23.784 19.38 23.88C19.252 23.968 19.104 24.012 18.936 24.012C18.72 24.012 18.612 23.88 18.612 23.616C18.62 22.896 18.624 21.756 18.624 20.196V16.788C18.624 16.652 18.668 16.52 18.756 16.392C18.852 16.264 18.96 16.2 19.08 16.2C19.208 16.2 19.324 16.236 19.428 16.308C19.532 16.372 19.588 16.472 19.596 16.608C19.628 17.496 19.772 18.156 20.028 18.588C20.284 19.02 20.588 19.236 20.94 19.236C21.292 19.236 21.592 19.18 21.84 19.068C22.096 18.948 22.304 18.812 22.464 18.66C22.632 18.508 22.792 18.292 22.944 18.012C23.16 17.612 23.368 17.12 23.568 16.536C23.688 16.184 23.884 16.008 24.156 16.008ZM27.3207 18.444C27.7447 18.444 28.1487 18.568 28.5327 18.816C28.9167 19.064 29.1087 19.372 29.1087 19.74C29.1087 20.1 28.9527 20.452 28.6407 20.796C28.3287 21.132 27.9127 21.336 27.3927 21.408C27.1687 21.44 26.8327 21.456 26.3847 21.456C26.4727 22.136 26.6447 22.584 26.9007 22.8C26.9807 22.888 27.0887 22.932 27.2247 22.932C27.7207 22.932 28.1367 22.776 28.4727 22.464C28.8087 22.144 29.0487 21.984 29.1927 21.984C29.2567 21.984 29.3527 22.044 29.4807 22.164C29.6087 22.284 29.6727 22.396 29.6727 22.5C29.6727 22.708 29.4207 23.008 28.9167 23.4C28.6927 23.584 28.4207 23.74 28.1007 23.868C27.7887 23.988 27.4967 24.048 27.2247 24.048C26.5287 24.048 26.0167 23.6 25.6887 22.704C25.4807 22.152 25.3767 21.544 25.3767 20.88C25.3767 20.216 25.5327 19.644 25.8447 19.164C26.1567 18.684 26.6487 18.444 27.3207 18.444ZM27.3807 19.272C27.0767 19.272 26.8167 19.444 26.6007 19.788C26.5207 19.908 26.4447 20.18 26.3727 20.604C27.4927 20.604 28.0527 20.328 28.0527 19.776C28.0527 19.44 27.8287 19.272 27.3807 19.272ZM31.058 24.012C30.85 24.012 30.726 23.896 30.686 23.664C30.686 22.048 30.59 20.608 30.398 19.344C30.398 19.184 30.454 19.04 30.566 18.912C30.686 18.784 30.818 18.72 30.962 18.72C31.114 18.72 31.226 18.804 31.298 18.972C31.594 18.58 31.99 18.384 32.486 18.384C33.118 18.384 33.606 18.688 33.95 19.296C34.35 18.72 34.878 18.432 35.534 18.432C36.198 18.432 36.694 18.696 37.022 19.224C37.238 19.552 37.39 19.984 37.478 20.52C37.566 21.056 37.61 21.816 37.61 22.8C37.61 23.184 37.57 23.484 37.49 23.7C37.41 23.908 37.242 24.012 36.986 24.012C36.778 24.012 36.674 23.88 36.674 23.616L36.71 22.116C36.71 20.316 36.242 19.416 35.306 19.416C35.01 19.416 34.802 19.52 34.682 19.728C34.546 19.976 34.466 20.236 34.442 20.508C34.41 20.988 34.394 21.424 34.394 21.816V23.556C34.394 23.684 34.33 23.792 34.202 23.88C34.074 23.968 33.942 24.012 33.806 24.012C33.63 24.012 33.518 23.896 33.47 23.664L33.506 21.18C33.506 20.3 33.358 19.752 33.062 19.536C32.918 19.432 32.698 19.38 32.402 19.38C32.114 19.38 31.898 19.488 31.754 19.704C31.618 19.92 31.55 20.268 31.55 20.748L31.622 22.98C31.622 23.668 31.434 24.012 31.058 24.012ZM40.6542 18.408C41.2302 18.408 41.7022 18.684 42.0702 19.236C42.4462 19.788 42.6342 20.452 42.6342 21.228C42.6342 21.996 42.4422 22.652 42.0582 23.196C41.6822 23.74 41.1782 24.012 40.5462 24.012C39.9222 24.012 39.4182 23.736 39.0342 23.184C38.6502 22.624 38.4582 22.004 38.4582 21.324C38.4582 20.452 38.6342 19.756 38.9862 19.236C39.3622 18.684 39.9182 18.408 40.6542 18.408ZM40.5102 19.392C40.1742 19.392 39.8982 19.568 39.6822 19.92C39.4662 20.272 39.3582 20.644 39.3582 21.036C39.3582 21.644 39.4782 22.108 39.7182 22.428C39.9582 22.748 40.2302 22.908 40.5342 22.908C41.0782 22.908 41.4262 22.672 41.5782 22.2C41.6422 21.976 41.6742 21.696 41.6742 21.36C41.6742 20.048 41.2862 19.392 40.5102 19.392ZM44.9181 22.248L44.9301 23.484C44.9301 23.628 44.8621 23.76 44.7261 23.88C44.5981 24 44.4701 24.06 44.3421 24.06C44.1581 24.06 44.0421 23.916 43.9941 23.628C43.9861 23.564 43.9541 22.98 43.8981 21.876C43.8421 20.764 43.7341 19.892 43.5741 19.26C43.5021 18.956 43.4661 18.776 43.4661 18.72C43.4661 18.456 43.6261 18.324 43.9461 18.324C44.0821 18.324 44.1901 18.376 44.2701 18.48C44.3501 18.584 44.3981 18.692 44.4141 18.804C44.4381 18.908 44.4581 19.052 44.4741 19.236C44.4901 19.42 44.5021 19.536 44.5101 19.584C44.6781 19.184 44.9301 18.884 45.2661 18.684C45.6021 18.484 45.9701 18.384 46.3701 18.384C47.0261 18.384 47.3541 18.552 47.3541 18.888C47.3541 19.056 47.2941 19.192 47.1741 19.296C47.0621 19.392 46.9301 19.44 46.7781 19.44C46.0981 19.44 45.6181 19.656 45.3381 20.088C45.0581 20.52 44.9181 21.24 44.9181 22.248ZM51.8153 18.456C51.9193 18.456 52.0193 18.492 52.1153 18.564C52.2193 18.636 52.2713 18.716 52.2713 18.804C52.2713 19.036 51.9313 20.292 51.2513 22.572C50.5713 24.852 50.0673 26.452 49.7393 27.372C49.6673 27.588 49.5553 27.696 49.4033 27.696C49.2513 27.696 49.1313 27.64 49.0433 27.528C48.9553 27.424 48.9113 27.268 48.9113 27.06C48.9113 26.852 49.0433 26.352 49.3073 25.56C49.5793 24.776 49.7433 24.276 49.7993 24.06C49.5993 23.724 48.9233 22.044 47.7713 19.02C47.7553 18.98 47.7473 18.928 47.7473 18.864C47.7473 18.8 47.7953 18.716 47.8913 18.612C47.9873 18.508 48.1193 18.456 48.2873 18.456C48.4553 18.456 48.5913 18.54 48.6953 18.708C48.8073 18.996 48.9913 19.5 49.2473 20.22C49.5033 20.932 49.6993 21.448 49.8353 21.768C49.9793 22.088 50.1153 22.42 50.2433 22.764C50.3553 22.388 50.5473 21.66 50.8193 20.58C51.0913 19.492 51.2473 18.872 51.2873 18.72C51.3193 18.544 51.4953 18.456 51.8153 18.456Z" fill="#ED254E"/>
<path d="M74.516 63.024L72.752 63C72.672 63 72.592 63 72.512 63C71.72 63 71.324 62.848 71.324 62.544C71.324 62.328 71.364 62.124 71.444 61.932C71.524 61.74 71.6 61.596 71.672 61.5C71.744 61.404 71.888 61.244 72.104 61.02C72.32 60.796 72.476 60.628 72.572 60.516C72.668 60.404 72.956 60.12 73.436 59.664C73.924 59.208 74.288 58.796 74.528 58.428C74.776 58.06 74.9 57.672 74.9 57.264C74.9 56.632 74.648 56.224 74.144 56.04C74 55.992 73.852 55.968 73.7 55.968C73.356 55.968 73.012 56.116 72.668 56.412C72.532 56.54 72.388 56.604 72.236 56.604C72.188 56.604 72.144 56.6 72.104 56.592C71.904 56.544 71.804 56.404 71.804 56.172C71.804 55.86 72.024 55.6 72.464 55.392C72.936 55.168 73.448 55.056 74 55.056C74.56 55.056 75.016 55.26 75.368 55.668C75.728 56.068 75.908 56.568 75.908 57.168C75.908 58.024 75.644 58.76 75.116 59.376C74.868 59.664 74.616 59.932 74.36 60.18C73.552 60.948 73.012 61.532 72.74 61.932C73.1 61.956 73.544 61.968 74.072 61.968C74.608 61.968 75.268 61.936 76.052 61.872C76.172 61.896 76.268 61.952 76.34 62.04C76.42 62.12 76.46 62.212 76.46 62.316C76.46 62.588 76.316 62.776 76.028 62.88C75.74 62.976 75.236 63.024 74.516 63.024Z" fill="#ED254E"/>
<path d="M107.024 60.348C106.736 60.396 106.328 60.42 105.8 60.42C105.272 60.42 104.912 60.332 104.72 60.156C104.528 59.98 104.432 59.6 104.432 59.016C104.432 58.424 104.476 57.776 104.564 57.072C104.652 56.368 104.748 55.852 104.852 55.524C104.964 55.188 105.18 55.02 105.5 55.02C105.716 55.02 105.84 55.112 105.872 55.296C105.872 55.344 105.872 55.42 105.872 55.524C105.872 55.628 105.848 55.776 105.8 55.968C105.608 57.376 105.512 58.38 105.512 58.98C105.512 59.124 105.516 59.244 105.524 59.34C105.668 59.372 105.86 59.388 106.1 59.388C106.348 59.388 106.66 59.364 107.036 59.316C107.052 59.148 107.06 58.924 107.06 58.644C107.06 58.356 107.064 58.116 107.072 57.924C107.08 57.732 107.108 57.596 107.156 57.516C107.204 57.436 107.34 57.396 107.564 57.396C107.796 57.396 107.94 57.436 107.996 57.516C108.06 57.596 108.092 57.708 108.092 57.852C108.092 57.988 108.08 58.28 108.056 58.728C108.032 59.168 108.02 60.416 108.02 62.472C108.02 62.832 107.844 63.012 107.492 63.012C107.476 63.012 107.46 63.012 107.444 63.012C107.148 63.012 107 62.768 107 62.28V61.62L107.024 60.348Z" fill="#ED254E"/>
<path d="M73.42 37.236C73.444 36.932 73.492 36.736 73.564 36.648C73.644 36.552 73.768 36.504 73.936 36.504C74.28 36.504 74.452 36.644 74.452 36.924C74.452 37.14 74.432 37.704 74.392 38.616C74.36 39.528 74.344 40.344 74.344 41.064C74.344 41.784 74.372 42.364 74.428 42.804C74.524 43.572 74.66 43.956 74.836 43.956C75.012 43.956 75.144 43.832 75.232 43.584C75.272 43.488 75.336 43.404 75.424 43.332C75.512 43.252 75.624 43.212 75.76 43.212C76.04 43.212 76.18 43.448 76.18 43.92C76.18 44.176 76.04 44.432 75.76 44.688C75.488 44.936 75.216 45.06 74.944 45.06C74.672 45.06 74.452 45.016 74.284 44.928C74.124 44.832 73.992 44.692 73.888 44.508C73.792 44.324 73.712 44.148 73.648 43.98C73.592 43.804 73.552 43.592 73.528 43.344C73.48 42.944 73.444 42.304 73.42 41.424C73.404 40.536 73.396 39.692 73.396 38.892C73.396 38.084 73.404 37.532 73.42 37.236Z" fill="#ED254E"/>
<path d="M106.48 36.888C106.48 36.568 106.68 36.408 107.08 36.408C107.264 36.408 107.372 36.52 107.404 36.744V38.544C107.404 38.88 107.408 39.216 107.416 39.552C107.576 39.504 107.78 39.48 108.028 39.48C108.804 39.48 109.404 39.74 109.828 40.26C110.252 40.78 110.464 41.432 110.464 42.216C110.464 43 110.212 43.664 109.708 44.208C109.212 44.744 108.572 45.012 107.788 45.012C107.004 45.012 106.612 44.792 106.612 44.352C106.612 43.904 106.588 42.776 106.54 40.968C106.5 39.152 106.48 37.792 106.48 36.888ZM108.904 40.752C108.616 40.528 108.312 40.416 107.992 40.416C107.816 40.416 107.636 40.448 107.452 40.512C107.5 41.168 107.524 42.332 107.524 44.004C107.66 44.052 107.8 44.076 107.944 44.076C108.256 44.076 108.568 43.96 108.88 43.728C109.344 43.408 109.576 42.92 109.576 42.264C109.576 41.6 109.352 41.096 108.904 40.752Z" fill="#ED254E"/>
<path d="M68.16 79.53C68.16 79.8567 67.9833 80.02 67.63 80.02C67.5567 80.02 67.49 79.99 67.43 79.93C67.3767 79.8633 67.35 79.7633 67.35 79.63L67.32 77.09C67.32 76.25 67.33 75.46 67.35 74.72C67.1233 74.92 66.9033 75.15 66.69 75.41C66.4767 75.67 66.33 75.8433 66.25 75.93C66.1767 76.0167 66.0767 76.1033 65.95 76.19C65.83 76.27 65.7167 76.31 65.61 76.31C65.5033 76.31 65.4167 76.2733 65.35 76.2C65.29 76.1267 65.26 76.0367 65.26 75.93C65.26 75.8233 65.3367 75.68 65.49 75.5C65.65 75.3133 66.23 74.69 67.23 73.63C67.3833 73.49 67.5767 73.42 67.81 73.42C67.9233 73.42 68.0167 73.4533 68.09 73.52C68.1633 73.5867 68.2 73.6633 68.2 73.75L68.13 76.44L68.16 79.53ZM68.9428 76.84C68.9428 75.9467 69.1028 75.16 69.4228 74.48C69.5828 74.1333 69.7995 73.86 70.0728 73.66C70.3461 73.46 70.6595 73.36 71.0128 73.36C71.5328 73.36 71.9561 73.7 72.2828 74.38C72.6161 75.0533 72.7828 75.8567 72.7828 76.79C72.7828 77.7167 72.6295 78.4867 72.3228 79.1C72.0161 79.7067 71.5828 80.01 71.0228 80.01C69.6361 80.01 68.9428 78.9533 68.9428 76.84ZM70.9228 79.09C71.1628 79.09 71.3628 78.9667 71.5228 78.72C71.6895 78.4667 71.8028 78.1867 71.8628 77.88C71.9228 77.5667 71.9528 77.1633 71.9528 76.67C71.9528 76.17 71.8861 75.64 71.7528 75.08C71.6861 74.7733 71.5828 74.53 71.4428 74.35C71.3095 74.1633 71.1461 74.07 70.9528 74.07C70.6928 74.07 70.4695 74.2267 70.2828 74.54C69.9495 75.1067 69.7828 75.86 69.7828 76.8C69.7828 77.4133 69.8961 77.95 70.1228 78.41C70.3561 78.8633 70.6228 79.09 70.9228 79.09ZM73.4252 76.84C73.4252 75.9467 73.5852 75.16 73.9052 74.48C74.0652 74.1333 74.2819 73.86 74.5552 73.66C74.8286 73.46 75.1419 73.36 75.4952 73.36C76.0152 73.36 76.4386 73.7 76.7652 74.38C77.0986 75.0533 77.2652 75.8567 77.2652 76.79C77.2652 77.7167 77.1119 78.4867 76.8052 79.1C76.4986 79.7067 76.0652 80.01 75.5052 80.01C74.1186 80.01 73.4252 78.9533 73.4252 76.84ZM75.4052 79.09C75.6452 79.09 75.8452 78.9667 76.0052 78.72C76.1719 78.4667 76.2852 78.1867 76.3452 77.88C76.4052 77.5667 76.4352 77.1633 76.4352 76.67C76.4352 76.17 76.3686 75.64 76.2352 75.08C76.1686 74.7733 76.0652 74.53 75.9252 74.35C75.7919 74.1633 75.6286 74.07 75.4352 74.07C75.1752 74.07 74.9519 74.2267 74.7652 74.54C74.4319 75.1067 74.2652 75.86 74.2652 76.8C74.2652 77.4133 74.3786 77.95 74.6052 78.41C74.8386 78.8633 75.1052 79.09 75.4052 79.09ZM77.9077 76.84C77.9077 75.9467 78.0677 75.16 78.3877 74.48C78.5477 74.1333 78.7643 73.86 79.0377 73.66C79.311 73.46 79.6243 73.36 79.9777 73.36C80.4977 73.36 80.921 73.7 81.2477 74.38C81.581 75.0533 81.7477 75.8567 81.7477 76.79C81.7477 77.7167 81.5943 78.4867 81.2877 79.1C80.981 79.7067 80.5477 80.01 79.9877 80.01C78.601 80.01 77.9077 78.9533 77.9077 76.84ZM79.8877 79.09C80.1277 79.09 80.3277 78.9667 80.4877 78.72C80.6543 78.4667 80.7677 78.1867 80.8277 77.88C80.8877 77.5667 80.9177 77.1633 80.9177 76.67C80.9177 76.17 80.851 75.64 80.7177 75.08C80.651 74.7733 80.5477 74.53 80.4077 74.35C80.2743 74.1633 80.111 74.07 79.9177 74.07C79.6577 74.07 79.4343 74.2267 79.2477 74.54C78.9143 75.1067 78.7477 75.86 78.7477 76.8C78.7477 77.4133 78.861 77.95 79.0877 78.41C79.321 78.8633 79.5877 79.09 79.8877 79.09Z" fill="#ED254E"/>
<path d="M102.16 79.53C102.16 79.8567 101.983 80.02 101.63 80.02C101.557 80.02 101.49 79.99 101.43 79.93C101.377 79.8633 101.35 79.7633 101.35 79.63L101.32 77.09C101.32 76.25 101.33 75.46 101.35 74.72C101.123 74.92 100.903 75.15 100.69 75.41C100.477 75.67 100.33 75.8433 100.25 75.93C100.177 76.0167 100.077 76.1033 99.95 76.19C99.83 76.27 99.7167 76.31 99.61 76.31C99.5033 76.31 99.4167 76.2733 99.35 76.2C99.29 76.1267 99.26 76.0367 99.26 75.93C99.26 75.8233 99.3367 75.68 99.49 75.5C99.65 75.3133 100.23 74.69 101.23 73.63C101.383 73.49 101.577 73.42 101.81 73.42C101.923 73.42 102.017 73.4533 102.09 73.52C102.163 73.5867 102.2 73.6633 102.2 73.75L102.13 76.44L102.16 79.53ZM102.943 76.84C102.943 75.9467 103.103 75.16 103.423 74.48C103.583 74.1333 103.799 73.86 104.073 73.66C104.346 73.46 104.659 73.36 105.013 73.36C105.533 73.36 105.956 73.7 106.283 74.38C106.616 75.0533 106.783 75.8567 106.783 76.79C106.783 77.7167 106.629 78.4867 106.323 79.1C106.016 79.7067 105.583 80.01 105.023 80.01C103.636 80.01 102.943 78.9533 102.943 76.84ZM104.923 79.09C105.163 79.09 105.363 78.9667 105.523 78.72C105.689 78.4667 105.803 78.1867 105.863 77.88C105.923 77.5667 105.953 77.1633 105.953 76.67C105.953 76.17 105.886 75.64 105.753 75.08C105.686 74.7733 105.583 74.53 105.443 74.35C105.309 74.1633 105.146 74.07 104.953 74.07C104.693 74.07 104.469 74.2267 104.283 74.54C103.949 75.1067 103.783 75.86 103.783 76.8C103.783 77.4133 103.896 77.95 104.123 78.41C104.356 78.8633 104.623 79.09 104.923 79.09ZM107.425 76.84C107.425 75.9467 107.585 75.16 107.905 74.48C108.065 74.1333 108.282 73.86 108.555 73.66C108.829 73.46 109.142 73.36 109.495 73.36C110.015 73.36 110.439 73.7 110.765 74.38C111.099 75.0533 111.265 75.8567 111.265 76.79C111.265 77.7167 111.112 78.4867 110.805 79.1C110.499 79.7067 110.065 80.01 109.505 80.01C108.119 80.01 107.425 78.9533 107.425 76.84ZM109.405 79.09C109.645 79.09 109.845 78.9667 110.005 78.72C110.172 78.4667 110.285 78.1867 110.345 77.88C110.405 77.5667 110.435 77.1633 110.435 76.67C110.435 76.17 110.369 75.64 110.235 75.08C110.169 74.7733 110.065 74.53 109.925 74.35C109.792 74.1633 109.629 74.07 109.435 74.07C109.175 74.07 108.952 74.2267 108.765 74.54C108.432 75.1067 108.265 75.86 108.265 76.8C108.265 77.4133 108.379 77.95 108.605 78.41C108.839 78.8633 109.105 79.09 109.405 79.09ZM114.118 77.79C113.878 77.83 113.538 77.85 113.098 77.85C112.658 77.85 112.358 77.7767 112.198 77.63C112.038 77.4833 111.958 77.1667 111.958 76.68C111.958 76.1867 111.994 75.6467 112.068 75.06C112.141 74.4733 112.221 74.0433 112.308 73.77C112.401 73.49 112.581 73.35 112.848 73.35C113.028 73.35 113.131 73.4267 113.158 73.58C113.158 73.62 113.158 73.6833 113.158 73.77C113.158 73.8567 113.138 73.98 113.098 74.14C112.938 75.3133 112.858 76.15 112.858 76.65C112.858 76.77 112.861 76.87 112.868 76.95C112.988 76.9767 113.148 76.99 113.348 76.99C113.554 76.99 113.814 76.97 114.128 76.93C114.141 76.79 114.148 76.6033 114.148 76.37C114.148 76.13 114.151 75.93 114.158 75.77C114.164 75.61 114.188 75.4967 114.228 75.43C114.268 75.3633 114.381 75.33 114.568 75.33C114.761 75.33 114.881 75.3633 114.928 75.43C114.981 75.4967 115.008 75.59 115.008 75.71C115.008 75.8233 114.998 76.0667 114.978 76.44C114.958 76.8067 114.948 77.8467 114.948 79.56C114.948 79.86 114.801 80.01 114.508 80.01C114.494 80.01 114.481 80.01 114.468 80.01C114.221 80.01 114.098 79.8067 114.098 79.4V78.85L114.118 77.79Z" fill="#ED254E"/>
</svg>
