<svg width="210" height="104" viewBox="0 0 210 104" fill="none" xmlns="http://www.w3.org/2000/svg">
<rect width="210" height="104" fill="white"/>
<rect x="47" y="25" width="141" height="45" fill="#63C7B2" stroke="black" stroke-width="0.5"/>
<line x1="54.3939" y1="78.5" x2="108" y2="78.5" stroke="#ED254E"/>
<path d="M47 78L54.625 73.6699V82.3301L47 78Z" fill="#ED254E"/>
<line x1="35" y1="62" x2="35" y2="54" stroke="#ED254E"/>
<path d="M35 69.1667L30.6699 61.5417H39.3301L35 69.1667Z" fill="#ED254E"/>
<line x1="34" y1="32.1667" x2="34" y2="40.1667" stroke="#ED254E"/>
<path d="M34 25L38.3301 32.625H29.6699L34 25Z" fill="#ED254E"/>
<line x1="180.606" y1="77.5" x2="127" y2="77.5" stroke="#ED254E"/>
<path d="M188 78L180.375 82.3301V73.6699L188 78Z" fill="#ED254E"/>
<path d="M33.42 43.236C33.444 42.932 33.492 42.736 33.564 42.648C33.644 42.552 33.768 42.504 33.936 42.504C34.28 42.504 34.452 42.644 34.452 42.924C34.452 43.14 34.432 43.704 34.392 44.616C34.36 45.528 34.344 46.344 34.344 47.064C34.344 47.784 34.372 48.364 34.428 48.804C34.524 49.572 34.66 49.956 34.836 49.956C35.012 49.956 35.144 49.832 35.232 49.584C35.272 49.488 35.336 49.404 35.424 49.332C35.512 49.252 35.624 49.212 35.76 49.212C36.04 49.212 36.18 49.448 36.18 49.92C36.18 50.176 36.04 50.432 35.76 50.688C35.488 50.936 35.216 51.06 34.944 51.06C34.672 51.06 34.452 51.016 34.284 50.928C34.124 50.832 33.992 50.692 33.888 50.508C33.792 50.324 33.712 50.148 33.648 49.98C33.592 49.804 33.552 49.592 33.528 49.344C33.48 48.944 33.444 48.304 33.42 47.424C33.404 46.536 33.396 45.692 33.396 44.892C33.396 44.084 33.404 43.532 33.42 43.236Z" fill="#ED254E"/>
<path d="M114.48 73.888C114.48 73.568 114.68 73.408 115.08 73.408C115.264 73.408 115.372 73.52 115.404 73.744V75.544C115.404 75.88 115.408 76.216 115.416 76.552C115.576 76.504 115.78 76.48 116.028 76.48C116.804 76.48 117.404 76.74 117.828 77.26C118.252 77.78 118.464 78.432 118.464 79.216C118.464 80 118.212 80.664 117.708 81.208C117.212 81.744 116.572 82.012 115.788 82.012C115.004 82.012 114.612 81.792 114.612 81.352C114.612 80.904 114.588 79.776 114.54 77.968C114.5 76.152 114.48 74.792 114.48 73.888ZM116.904 77.752C116.616 77.528 116.312 77.416 115.992 77.416C115.816 77.416 115.636 77.448 115.452 77.512C115.5 78.168 115.524 79.332 115.524 81.004C115.66 81.052 115.8 81.076 115.944 81.076C116.256 81.076 116.568 80.96 116.88 80.728C117.344 80.408 117.576 79.92 117.576 79.264C117.576 78.6 117.352 78.096 116.904 77.752Z" fill="#ED254E"/>
<path d="M110.19 83.35C110.677 83.35 111.083 83.4667 111.41 83.7C111.737 83.9333 111.9 84.2633 111.9 84.69C111.9 85.2967 111.573 85.82 110.92 86.26C111.3 86.6667 111.57 87.0167 111.73 87.31C111.903 87.63 111.99 88.01 111.99 88.45C111.99 88.89 111.827 89.2533 111.5 89.54C111.147 89.8467 110.703 90 110.17 90C109.637 90 109.22 89.8667 108.92 89.6C108.607 89.32 108.45 88.9367 108.45 88.45C108.45 87.6567 108.833 86.9567 109.6 86.35C109.313 86.1967 109.067 85.96 108.86 85.64C108.647 85.3133 108.54 84.97 108.54 84.61C108.54 84.2433 108.687 83.9467 108.98 83.72C109.3 83.4733 109.703 83.35 110.19 83.35ZM109.25 84.74C109.25 84.8733 109.29 85 109.37 85.12C109.45 85.24 109.53 85.33 109.61 85.39C109.69 85.45 109.8 85.5267 109.94 85.62C110.08 85.7133 110.173 85.7767 110.22 85.81C110.433 85.65 110.577 85.5433 110.65 85.49C110.723 85.43 110.807 85.35 110.9 85.25C111 85.1433 111.06 85.0533 111.08 84.98C111.107 84.9 111.117 84.7833 111.11 84.63C111.11 84.4767 111.017 84.3433 110.83 84.23C110.65 84.11 110.46 84.05 110.26 84.05C110.24 84.05 110.22 84.05 110.2 84.05C109.567 84.1033 109.25 84.3333 109.25 84.74ZM109.19 88.33C109.19 88.3633 109.19 88.3933 109.19 88.42C109.197 88.68 109.307 88.88 109.52 89.02C109.74 89.16 110.01 89.23 110.33 89.23C110.63 89.23 110.847 89.1467 110.98 88.98C111.113 88.8133 111.177 88.61 111.17 88.37C111.17 88.13 111.09 87.89 110.93 87.65C110.777 87.41 110.53 87.1167 110.19 86.77C109.85 87.0033 109.597 87.2567 109.43 87.53C109.27 87.8033 109.19 88.07 109.19 88.33ZM114.991 85.72C115.018 85.6067 115.074 85.5133 115.161 85.44C115.248 85.36 115.334 85.32 115.421 85.32C115.514 85.32 115.584 85.3367 115.631 85.37C115.684 85.4033 115.714 85.4333 115.721 85.46C115.734 85.4867 115.748 85.5333 115.761 85.6C115.721 86.12 115.701 86.59 115.701 87.01C115.701 87.4233 115.751 87.9 115.851 88.44C115.951 88.9733 116.061 89.24 116.181 89.24C116.361 89.24 116.588 89.14 116.861 88.94C117.141 88.74 117.341 88.53 117.461 88.31C117.381 87.35 117.341 86.5267 117.341 85.84C117.341 85.7 117.384 85.58 117.471 85.48C117.564 85.38 117.674 85.33 117.801 85.33C118.008 85.33 118.111 85.47 118.111 85.75C118.111 86.2233 118.144 86.9267 118.211 87.86C118.284 88.7933 118.358 89.3867 118.431 89.64C118.444 89.6933 118.451 89.7567 118.451 89.83C118.451 89.8967 118.404 89.96 118.311 90.02C118.224 90.0867 118.108 90.12 117.961 90.12C117.821 90.12 117.728 90.04 117.681 89.88C117.668 89.7467 117.634 89.5467 117.581 89.28C117.114 89.7667 116.644 90.01 116.171 90.01C115.951 90.01 115.754 89.9267 115.581 89.76C115.408 89.5933 115.271 89.3667 115.171 89.08C114.998 88.5267 114.911 88.0067 114.911 87.52C114.911 87.0333 114.938 86.4333 114.991 85.72ZM119.395 89.69L119.285 85.63C119.285 85.5033 119.328 85.4 119.415 85.32C119.501 85.24 119.588 85.2 119.675 85.2C119.888 85.2 120.011 85.29 120.045 85.47C120.071 85.65 120.085 85.8367 120.085 86.03C120.445 85.5567 120.895 85.32 121.435 85.32C122.261 85.32 122.675 86.2633 122.675 88.15C122.675 88.3233 122.675 88.5867 122.675 88.94C122.675 89.2867 122.655 89.54 122.615 89.7C122.568 89.9 122.425 90 122.185 90C122.025 90 121.945 89.8933 121.945 89.68L121.955 89.12C121.955 88.3467 121.928 87.82 121.875 87.54C121.828 87.2533 121.781 87.0267 121.735 86.86C121.621 86.5 121.438 86.32 121.185 86.32C120.851 86.32 120.618 86.44 120.485 86.68C120.338 86.94 120.251 87.2467 120.225 87.6C120.178 88.22 120.155 88.8767 120.155 89.57C120.155 89.7033 120.105 89.81 120.005 89.89C119.905 89.97 119.785 90.01 119.645 90.01C119.478 90.01 119.395 89.9033 119.395 89.69ZM124.196 83.68C124.316 83.68 124.43 83.7367 124.536 83.85C124.643 83.9633 124.696 84.0833 124.696 84.21C124.696 84.33 124.636 84.4533 124.516 84.58C124.403 84.7067 124.283 84.77 124.156 84.77C124.03 84.77 123.913 84.7167 123.806 84.61C123.706 84.5033 123.656 84.3667 123.656 84.2C123.656 83.88 123.83 83.7067 124.176 83.68C124.183 83.68 124.19 83.68 124.196 83.68ZM124.616 88.92L124.626 89.62C124.626 89.7467 124.576 89.8533 124.476 89.94C124.376 90.02 124.27 90.06 124.156 90.06C123.99 90.06 123.903 89.9767 123.896 89.81C123.81 87.6833 123.766 86.5067 123.766 86.28C123.766 86.0533 123.776 85.7767 123.796 85.45C123.81 85.33 123.886 85.27 124.026 85.27C124.38 85.27 124.58 85.4133 124.626 85.7C124.646 85.8467 124.656 85.9633 124.656 86.05L124.616 86.68V88.92ZM126.023 85.33L126.523 85.34C126.636 85.34 126.699 85.3367 126.713 85.33V83.28C126.719 83.1667 126.776 83.07 126.883 82.99C126.989 82.91 127.089 82.87 127.183 82.87C127.276 82.87 127.349 82.9 127.403 82.96C127.463 83.02 127.489 83.1133 127.483 83.24C127.476 83.3667 127.473 84.06 127.473 85.32L128.643 85.28C128.843 85.28 128.943 85.3967 128.943 85.63C128.943 85.8033 128.889 85.9333 128.783 86.02C128.683 86.1067 128.573 86.1533 128.453 86.16C128.339 86.1667 128.226 86.17 128.113 86.17L127.503 86.16C127.503 86.4333 127.529 86.9733 127.583 87.78C127.643 88.5867 127.689 89.11 127.723 89.35C127.756 89.5833 127.763 89.7367 127.743 89.81C127.723 89.8767 127.686 89.9233 127.633 89.95C127.546 89.99 127.429 90.01 127.283 90.01C127.136 90.01 127.049 89.93 127.023 89.77C126.889 88.8967 126.799 87.6967 126.753 86.17C126.693 86.1767 126.463 86.18 126.063 86.18C125.663 86.18 125.463 86.0633 125.463 85.83C125.463 85.4967 125.649 85.33 126.023 85.33ZM129.38 86.6C129.38 86.2067 129.52 85.8933 129.8 85.66C130.08 85.4267 130.403 85.31 130.77 85.31C131.143 85.31 131.5 85.3767 131.84 85.51C132.18 85.6433 132.35 85.82 132.35 86.04C132.35 86.1533 132.307 86.2433 132.22 86.31C132.133 86.3767 132.057 86.41 131.99 86.41C131.93 86.41 131.88 86.41 131.84 86.41C131.807 86.4033 131.673 86.34 131.44 86.22C131.213 86.1 131.003 86.04 130.81 86.04C130.617 86.04 130.45 86.09 130.31 86.19C130.177 86.2833 130.11 86.4233 130.11 86.61C130.11 86.7967 130.187 86.9433 130.34 87.05C130.5 87.1567 130.777 87.25 131.17 87.33C131.563 87.4033 131.863 87.51 132.07 87.65C132.283 87.79 132.39 88.05 132.39 88.43C132.39 88.9833 132.243 89.3767 131.95 89.61C131.663 89.8367 131.313 89.95 130.9 89.95C130.487 89.95 130.133 89.8933 129.84 89.78C129.553 89.6667 129.41 89.4967 129.41 89.27C129.41 89.01 129.54 88.88 129.8 88.88C129.867 88.88 130.013 88.9267 130.24 89.02C130.467 89.1133 130.69 89.16 130.91 89.16C131.137 89.16 131.307 89.09 131.42 88.95C131.54 88.8033 131.6 88.6367 131.6 88.45C131.6 88.2633 131.523 88.13 131.37 88.05C131.217 87.9633 130.983 87.8933 130.67 87.84C130.357 87.7867 130.127 87.73 129.98 87.67C129.58 87.51 129.38 87.1533 129.38 86.6Z" fill="#ED254E"/>
<path d="M6.93 49.02L5.46 49C5.39333 49 5.32667 49 5.26 49C4.6 49 4.27 48.8733 4.27 48.62C4.27 48.44 4.30333 48.27 4.37 48.11C4.43667 47.95 4.5 47.83 4.56 47.75C4.62 47.67 4.74 47.5367 4.92 47.35C5.1 47.1633 5.23 47.0233 5.31 46.93C5.39 46.8367 5.63 46.6 6.03 46.22C6.43667 45.84 6.74 45.4967 6.94 45.19C7.14667 44.8833 7.25 44.56 7.25 44.22C7.25 43.6933 7.04 43.3533 6.62 43.2C6.5 43.16 6.37667 43.14 6.25 43.14C5.96333 43.14 5.67667 43.2633 5.39 43.51C5.27667 43.6167 5.15667 43.67 5.03 43.67C4.99 43.67 4.95333 43.6667 4.92 43.66C4.75333 43.62 4.67 43.5033 4.67 43.31C4.67 43.05 4.85333 42.8333 5.22 42.66C5.61333 42.4733 6.04 42.38 6.5 42.38C6.96667 42.38 7.34667 42.55 7.64 42.89C7.94 43.2233 8.09 43.64 8.09 44.14C8.09 44.8533 7.87 45.4667 7.43 45.98C7.22333 46.22 7.01333 46.4433 6.8 46.65C6.12667 47.29 5.67667 47.7767 5.45 48.11C5.75 48.13 6.12 48.14 6.56 48.14C7.00667 48.14 7.55667 48.1133 8.21 48.06C8.31 48.08 8.39 48.1267 8.45 48.2C8.51667 48.2667 8.55 48.3433 8.55 48.43C8.55 48.6567 8.43 48.8133 8.19 48.9C7.95 48.98 7.53 49.02 6.93 49.02ZM11.3424 44.72C11.3691 44.6067 11.4258 44.5133 11.5124 44.44C11.5991 44.36 11.6858 44.32 11.7724 44.32C11.8658 44.32 11.9358 44.3367 11.9824 44.37C12.0358 44.4033 12.0658 44.4333 12.0724 44.46C12.0858 44.4867 12.0991 44.5333 12.1124 44.6C12.0724 45.12 12.0524 45.59 12.0524 46.01C12.0524 46.4233 12.1024 46.9 12.2024 47.44C12.3024 47.9733 12.4124 48.24 12.5324 48.24C12.7124 48.24 12.9391 48.14 13.2124 47.94C13.4924 47.74 13.6924 47.53 13.8124 47.31C13.7324 46.35 13.6924 45.5267 13.6924 44.84C13.6924 44.7 13.7358 44.58 13.8224 44.48C13.9158 44.38 14.0258 44.33 14.1524 44.33C14.3591 44.33 14.4624 44.47 14.4624 44.75C14.4624 45.2233 14.4958 45.9267 14.5624 46.86C14.6358 47.7933 14.7091 48.3867 14.7824 48.64C14.7958 48.6933 14.8024 48.7567 14.8024 48.83C14.8024 48.8967 14.7558 48.96 14.6624 49.02C14.5758 49.0867 14.4591 49.12 14.3124 49.12C14.1724 49.12 14.0791 49.04 14.0324 48.88C14.0191 48.7467 13.9858 48.5467 13.9324 48.28C13.4658 48.7667 12.9958 49.01 12.5224 49.01C12.3024 49.01 12.1058 48.9267 11.9324 48.76C11.7591 48.5933 11.6224 48.3667 11.5224 48.08C11.3491 47.5267 11.2624 47.0067 11.2624 46.52C11.2624 46.0333 11.2891 45.4333 11.3424 44.72ZM15.7463 48.69L15.6363 44.63C15.6363 44.5033 15.6797 44.4 15.7663 44.32C15.853 44.24 15.9397 44.2 16.0263 44.2C16.2397 44.2 16.363 44.29 16.3963 44.47C16.423 44.65 16.4363 44.8367 16.4363 45.03C16.7963 44.5567 17.2463 44.32 17.7863 44.32C18.613 44.32 19.0263 45.2633 19.0263 47.15C19.0263 47.3233 19.0263 47.5867 19.0263 47.94C19.0263 48.2867 19.0063 48.54 18.9663 48.7C18.9197 48.9 18.7763 49 18.5363 49C18.3763 49 18.2963 48.8933 18.2963 48.68L18.3063 48.12C18.3063 47.3467 18.2797 46.82 18.2263 46.54C18.1797 46.2533 18.133 46.0267 18.0863 45.86C17.973 45.5 17.7897 45.32 17.5363 45.32C17.203 45.32 16.9697 45.44 16.8363 45.68C16.6897 45.94 16.603 46.2467 16.5763 46.6C16.5297 47.22 16.5063 47.8767 16.5063 48.57C16.5063 48.7033 16.4563 48.81 16.3563 48.89C16.2563 48.97 16.1363 49.01 15.9963 49.01C15.8297 49.01 15.7463 48.9033 15.7463 48.69ZM20.5478 42.68C20.6678 42.68 20.7811 42.7367 20.8878 42.85C20.9945 42.9633 21.0478 43.0833 21.0478 43.21C21.0478 43.33 20.9878 43.4533 20.8678 43.58C20.7545 43.7067 20.6345 43.77 20.5078 43.77C20.3811 43.77 20.2645 43.7167 20.1578 43.61C20.0578 43.5033 20.0078 43.3667 20.0078 43.2C20.0078 42.88 20.1811 42.7067 20.5278 42.68C20.5345 42.68 20.5411 42.68 20.5478 42.68ZM20.9678 47.92L20.9778 48.62C20.9778 48.7467 20.9278 48.8533 20.8278 48.94C20.7278 49.02 20.6211 49.06 20.5078 49.06C20.3411 49.06 20.2545 48.9767 20.2478 48.81C20.1611 46.6833 20.1178 45.5067 20.1178 45.28C20.1178 45.0533 20.1278 44.7767 20.1478 44.45C20.1611 44.33 20.2378 44.27 20.3778 44.27C20.7311 44.27 20.9311 44.4133 20.9778 44.7C20.9978 44.8467 21.0078 44.9633 21.0078 45.05L20.9678 45.68V47.92ZM22.3741 44.33L22.8741 44.34C22.9875 44.34 23.0508 44.3367 23.0641 44.33V42.28C23.0708 42.1667 23.1275 42.07 23.2341 41.99C23.3408 41.91 23.4408 41.87 23.5341 41.87C23.6275 41.87 23.7008 41.9 23.7541 41.96C23.8141 42.02 23.8408 42.1133 23.8341 42.24C23.8275 42.3667 23.8241 43.06 23.8241 44.32L24.9941 44.28C25.1941 44.28 25.2941 44.3967 25.2941 44.63C25.2941 44.8033 25.2408 44.9333 25.1341 45.02C25.0341 45.1067 24.9241 45.1533 24.8041 45.16C24.6908 45.1667 24.5775 45.17 24.4641 45.17L23.8541 45.16C23.8541 45.4333 23.8808 45.9733 23.9341 46.78C23.9941 47.5867 24.0408 48.11 24.0741 48.35C24.1075 48.5833 24.1141 48.7367 24.0941 48.81C24.0741 48.8767 24.0375 48.9233 23.9841 48.95C23.8975 48.99 23.7808 49.01 23.6341 49.01C23.4875 49.01 23.4008 48.93 23.3741 48.77C23.2408 47.8967 23.1508 46.6967 23.1041 45.17C23.0441 45.1767 22.8141 45.18 22.4141 45.18C22.0141 45.18 21.8141 45.0633 21.8141 44.83C21.8141 44.4967 22.0008 44.33 22.3741 44.33ZM25.7316 45.6C25.7316 45.2067 25.8716 44.8933 26.1516 44.66C26.4316 44.4267 26.755 44.31 27.1216 44.31C27.495 44.31 27.8516 44.3767 28.1916 44.51C28.5316 44.6433 28.7016 44.82 28.7016 45.04C28.7016 45.1533 28.6583 45.2433 28.5716 45.31C28.485 45.3767 28.4083 45.41 28.3416 45.41C28.2816 45.41 28.2316 45.41 28.1916 45.41C28.1583 45.4033 28.025 45.34 27.7916 45.22C27.565 45.1 27.355 45.04 27.1616 45.04C26.9683 45.04 26.8016 45.09 26.6616 45.19C26.5283 45.2833 26.4616 45.4233 26.4616 45.61C26.4616 45.7967 26.5383 45.9433 26.6916 46.05C26.8516 46.1567 27.1283 46.25 27.5216 46.33C27.915 46.4033 28.215 46.51 28.4216 46.65C28.635 46.79 28.7416 47.05 28.7416 47.43C28.7416 47.9833 28.595 48.3767 28.3016 48.61C28.015 48.8367 27.665 48.95 27.2516 48.95C26.8383 48.95 26.485 48.8933 26.1916 48.78C25.905 48.6667 25.7616 48.4967 25.7616 48.27C25.7616 48.01 25.8916 47.88 26.1516 47.88C26.2183 47.88 26.365 47.9267 26.5916 48.02C26.8183 48.1133 27.0416 48.16 27.2616 48.16C27.4883 48.16 27.6583 48.09 27.7716 47.95C27.8916 47.8033 27.9516 47.6367 27.9516 47.45C27.9516 47.2633 27.875 47.13 27.7216 47.05C27.5683 46.9633 27.335 46.8933 27.0216 46.84C26.7083 46.7867 26.4783 46.73 26.3316 46.67C25.9316 46.51 25.7316 46.1533 25.7316 45.6Z" fill="#ED254E"/>
</svg>
