<svg width="212" height="73" viewBox="0 0 212 73" fill="none" xmlns="http://www.w3.org/2000/svg">
<rect width="212" height="73" fill="white"/>
<path d="M24.328 35.4568C24.328 35.2381 24.4647 35.1288 24.738 35.1288C24.8637 35.1288 24.9375 35.2053 24.9594 35.3584V36.5884C24.9594 36.818 24.9621 37.0476 24.9676 37.2772C25.0769 37.2444 25.2163 37.228 25.3858 37.228C25.9161 37.228 26.3261 37.4057 26.6158 37.761C26.9055 38.1163 27.0504 38.5619 27.0504 39.0976C27.0504 39.6333 26.8782 40.0871 26.5338 40.4588C26.1949 40.8251 25.7575 41.0082 25.2218 41.0082C24.6861 41.0082 24.4182 40.8579 24.4182 40.5572C24.4182 40.2511 24.4018 39.4803 24.369 38.2448C24.3417 37.0039 24.328 36.0745 24.328 35.4568ZM25.9844 38.0972C25.7876 37.9441 25.5799 37.8676 25.3612 37.8676C25.2409 37.8676 25.1179 37.8895 24.9922 37.9332C25.025 38.3815 25.0414 39.1769 25.0414 40.3194C25.1343 40.3522 25.23 40.3686 25.3284 40.3686C25.5416 40.3686 25.7548 40.2893 25.968 40.1308C26.2851 39.9121 26.4436 39.5787 26.4436 39.1304C26.4436 38.6767 26.2905 38.3323 25.9844 38.0972ZM30.3067 37.2116C30.3778 37.2116 30.4461 37.2362 30.5117 37.2854C30.5828 37.3346 30.6183 37.3893 30.6183 37.4494C30.6183 37.6079 30.386 38.4662 29.9213 40.0242C29.4566 41.5822 29.1122 42.6755 28.8881 43.3042C28.8389 43.4518 28.7624 43.5256 28.6585 43.5256C28.5546 43.5256 28.4726 43.4873 28.4125 43.4108C28.3524 43.3397 28.3223 43.2331 28.3223 43.091C28.3223 42.9489 28.4125 42.6072 28.5929 42.066C28.7788 41.5303 28.8908 41.1886 28.9291 41.041C28.7924 40.8114 28.3305 39.6634 27.5433 37.597C27.5324 37.5697 27.5269 37.5341 27.5269 37.4904C27.5269 37.4467 27.5597 37.3893 27.6253 37.3182C27.6909 37.2471 27.7811 37.2116 27.8959 37.2116C28.0107 37.2116 28.1036 37.269 28.1747 37.3838C28.2512 37.5806 28.377 37.925 28.5519 38.417C28.7268 38.9035 28.8608 39.2561 28.9537 39.4748C29.0521 39.6935 29.145 39.9203 29.2325 40.1554C29.309 39.8985 29.4402 39.401 29.6261 38.663C29.812 37.9195 29.9186 37.4959 29.9459 37.392C29.9678 37.2717 30.088 37.2116 30.3067 37.2116ZM31.3633 37.1706L31.7733 37.1788C31.8662 37.1788 31.9181 37.1761 31.9291 37.1706V35.4896C31.9345 35.3967 31.981 35.3174 32.0685 35.2518C32.1559 35.1862 32.2379 35.1534 32.3145 35.1534C32.391 35.1534 32.4511 35.178 32.4949 35.2272C32.5441 35.2764 32.5659 35.3529 32.5605 35.4568C32.555 35.5607 32.5523 36.1292 32.5523 37.1624L33.5117 37.1296C33.6757 37.1296 33.7577 37.2253 33.7577 37.4166C33.7577 37.5587 33.7139 37.6653 33.6265 37.7364C33.5445 37.8075 33.4543 37.8457 33.3559 37.8512C33.2629 37.8567 33.17 37.8594 33.0771 37.8594L32.5769 37.8512C32.5769 38.0753 32.5987 38.5181 32.6425 39.1796C32.6917 39.8411 32.7299 40.2702 32.7573 40.467C32.7846 40.6583 32.7901 40.7841 32.7737 40.8442C32.7573 40.8989 32.7272 40.9371 32.6835 40.959C32.6124 40.9918 32.5167 41.0082 32.3965 41.0082C32.2762 41.0082 32.2051 40.9426 32.1833 40.8114C32.0739 40.0953 32.0001 39.1113 31.9619 37.8594C31.9127 37.8649 31.7241 37.8676 31.3961 37.8676C31.0681 37.8676 30.9041 37.7719 30.9041 37.5806C30.9041 37.3073 31.0571 37.1706 31.3633 37.1706ZM35.1578 37.2034C35.4476 37.2034 35.7236 37.2881 35.986 37.4576C36.2484 37.6271 36.3796 37.8375 36.3796 38.089C36.3796 38.335 36.273 38.5755 36.0598 38.8106C35.8466 39.0402 35.5624 39.1796 35.207 39.2288C35.054 39.2507 34.8244 39.2616 34.5182 39.2616C34.5784 39.7263 34.6959 40.0324 34.8708 40.18C34.9255 40.2401 34.9993 40.2702 35.0922 40.2702C35.4312 40.2702 35.7154 40.1636 35.945 39.9504C36.1746 39.7317 36.3386 39.6224 36.437 39.6224C36.4808 39.6224 36.5464 39.6634 36.6338 39.7454C36.7213 39.8274 36.765 39.9039 36.765 39.975C36.765 40.1171 36.5928 40.3221 36.2484 40.59C36.0954 40.7157 35.9095 40.8223 35.6908 40.9098C35.4776 40.9918 35.2781 41.0328 35.0922 41.0328C34.6166 41.0328 34.2668 40.7267 34.0426 40.1144C33.9005 39.7372 33.8294 39.3217 33.8294 38.868C33.8294 38.4143 33.936 38.0234 34.1492 37.6954C34.3624 37.3674 34.6986 37.2034 35.1578 37.2034ZM35.1988 37.7692C34.9911 37.7692 34.8134 37.8867 34.6658 38.1218C34.6112 38.2038 34.5592 38.3897 34.51 38.6794C35.2754 38.6794 35.658 38.4908 35.658 38.1136C35.658 37.884 35.505 37.7692 35.1988 37.7692Z" fill="#63C7B2"/>
<path d="M86.8528 35.8176C86.9512 35.8176 87.0441 35.8641 87.1316 35.957C87.2191 36.0499 87.2628 36.1483 87.2628 36.2522C87.2628 36.3506 87.2136 36.4517 87.1152 36.5556C87.0223 36.6595 86.9239 36.7114 86.82 36.7114C86.7161 36.7114 86.6205 36.6677 86.533 36.5802C86.451 36.4927 86.41 36.3807 86.41 36.244C86.41 35.9816 86.5521 35.8395 86.8364 35.8176C86.8419 35.8176 86.8473 35.8176 86.8528 35.8176ZM87.1972 40.1144L87.2054 40.6884C87.2054 40.7923 87.1644 40.8797 87.0824 40.9508C87.0004 41.0164 86.9129 41.0492 86.82 41.0492C86.6833 41.0492 86.6123 40.9809 86.6068 40.8442C86.5357 39.1003 86.5002 38.1355 86.5002 37.9496C86.5002 37.7637 86.5084 37.5369 86.5248 37.269C86.5357 37.1706 86.5986 37.1214 86.7134 37.1214C87.0031 37.1214 87.1671 37.2389 87.2054 37.474C87.2218 37.5943 87.23 37.6899 87.23 37.761L87.1972 38.2776V40.1144ZM88.457 40.7458L88.3668 37.4166C88.3668 37.3127 88.4023 37.228 88.4734 37.1624C88.5445 37.0968 88.6155 37.064 88.6866 37.064C88.8615 37.064 88.9627 37.1378 88.99 37.2854C89.0119 37.433 89.0228 37.5861 89.0228 37.7446C89.318 37.3565 89.687 37.1624 90.1298 37.1624C90.8077 37.1624 91.1466 37.9359 91.1466 39.483C91.1466 39.6251 91.1466 39.8411 91.1466 40.1308C91.1466 40.4151 91.1302 40.6228 91.0974 40.754C91.0591 40.918 90.9416 41 90.7448 41C90.6136 41 90.548 40.9125 90.548 40.7376L90.5562 40.2784C90.5562 39.6443 90.5343 39.2124 90.4906 38.9828C90.4523 38.7477 90.4141 38.5619 90.3758 38.4252C90.2829 38.13 90.1325 37.9824 89.9248 37.9824C89.6515 37.9824 89.4601 38.0808 89.3508 38.2776C89.2305 38.4908 89.1595 38.7423 89.1376 39.032C89.0993 39.5404 89.0802 40.0789 89.0802 40.6474C89.0802 40.7567 89.0392 40.8442 88.9572 40.9098C88.8752 40.9754 88.7768 41.0082 88.662 41.0082C88.5253 41.0082 88.457 40.9207 88.457 40.7458ZM92.058 37.1706L92.468 37.1788C92.5609 37.1788 92.6129 37.1761 92.6238 37.1706V35.4896C92.6293 35.3967 92.6757 35.3174 92.7632 35.2518C92.8507 35.1862 92.9327 35.1534 93.0092 35.1534C93.0857 35.1534 93.1459 35.178 93.1896 35.2272C93.2388 35.2764 93.2607 35.3529 93.2552 35.4568C93.2497 35.5607 93.247 36.1292 93.247 37.1624L94.2064 37.1296C94.3704 37.1296 94.4524 37.2253 94.4524 37.4166C94.4524 37.5587 94.4087 37.6653 94.3212 37.7364C94.2392 37.8075 94.149 37.8457 94.0506 37.8512C93.9577 37.8567 93.8647 37.8594 93.7718 37.8594L93.2716 37.8512C93.2716 38.0753 93.2935 38.5181 93.3372 39.1796C93.3864 39.8411 93.4247 40.2702 93.452 40.467C93.4793 40.6583 93.4848 40.7841 93.4684 40.8442C93.452 40.8989 93.4219 40.9371 93.3782 40.959C93.3071 40.9918 93.2115 41.0082 93.0912 41.0082C92.9709 41.0082 92.8999 40.9426 92.878 40.8114C92.7687 40.0953 92.6949 39.1113 92.6566 37.8594C92.6074 37.8649 92.4188 37.8676 92.0908 37.8676C91.7628 37.8676 91.5988 37.7719 91.5988 37.5806C91.5988 37.3073 91.7519 37.1706 92.058 37.1706Z" fill="#63C7B2"/>
<path d="M110.287 35.6946C110.303 35.4869 110.336 35.3529 110.385 35.2928C110.44 35.2272 110.525 35.1944 110.64 35.1944C110.875 35.1944 110.992 35.2901 110.992 35.4814C110.992 35.629 110.979 36.0144 110.951 36.6376C110.929 37.2608 110.918 37.8184 110.918 38.3104C110.918 38.8024 110.938 39.1987 110.976 39.4994C111.041 40.0242 111.134 40.2866 111.255 40.2866C111.375 40.2866 111.465 40.2019 111.525 40.0324C111.553 39.9668 111.596 39.9094 111.656 39.8602C111.717 39.8055 111.793 39.7782 111.886 39.7782C112.077 39.7782 112.173 39.9395 112.173 40.262C112.173 40.4369 112.077 40.6119 111.886 40.7868C111.7 40.9563 111.514 41.041 111.328 41.041C111.143 41.041 110.992 41.0109 110.877 40.9508C110.768 40.8852 110.678 40.7895 110.607 40.6638C110.541 40.5381 110.487 40.4178 110.443 40.303C110.405 40.1827 110.377 40.0379 110.361 39.8684C110.328 39.5951 110.303 39.1577 110.287 38.5564C110.276 37.9496 110.271 37.3729 110.271 36.8262C110.271 36.2741 110.276 35.8969 110.287 35.6946ZM113.941 37.1788C114.335 37.1788 114.657 37.3674 114.909 37.7446C115.166 38.1218 115.294 38.5755 115.294 39.1058C115.294 39.6306 115.163 40.0789 114.901 40.4506C114.644 40.8223 114.299 41.0082 113.867 41.0082C113.441 41.0082 113.097 40.8196 112.834 40.4424C112.572 40.0597 112.441 39.6361 112.441 39.1714C112.441 38.5755 112.561 38.0999 112.801 37.7446C113.058 37.3674 113.438 37.1788 113.941 37.1788ZM113.843 37.8512C113.613 37.8512 113.425 37.9715 113.277 38.212C113.129 38.4525 113.056 38.7067 113.056 38.9746C113.056 39.3901 113.138 39.7071 113.302 39.9258C113.466 40.1445 113.651 40.2538 113.859 40.2538C114.231 40.2538 114.469 40.0925 114.573 39.77C114.616 39.6169 114.638 39.4256 114.638 39.196C114.638 38.2995 114.373 37.8512 113.843 37.8512ZM116.109 40.7458L116.018 37.4166C116.018 37.3127 116.054 37.228 116.125 37.1624C116.196 37.0968 116.267 37.064 116.338 37.064C116.513 37.064 116.614 37.1378 116.642 37.2854C116.663 37.433 116.674 37.5861 116.674 37.7446C116.97 37.3565 117.339 37.1624 117.781 37.1624C118.459 37.1624 118.798 37.9359 118.798 39.483C118.798 39.6251 118.798 39.8411 118.798 40.1308C118.798 40.4151 118.782 40.6228 118.749 40.754C118.711 40.918 118.593 41 118.396 41C118.265 41 118.2 40.9125 118.2 40.7376L118.208 40.2784C118.208 39.6443 118.186 39.2124 118.142 38.9828C118.104 38.7477 118.066 38.5619 118.027 38.4252C117.934 38.13 117.784 37.9824 117.576 37.9824C117.303 37.9824 117.112 38.0808 117.002 38.2776C116.882 38.4908 116.811 38.7423 116.789 39.032C116.751 39.5404 116.732 40.0789 116.732 40.6474C116.732 40.7567 116.691 40.8442 116.609 40.9098C116.527 40.9754 116.428 41.0082 116.314 41.0082C116.177 41.0082 116.109 40.9207 116.109 40.7458ZM121.858 40.6638C121.661 40.8934 121.412 41.0082 121.112 41.0082C120.811 41.0082 120.551 40.9153 120.333 40.7294C119.874 40.3741 119.644 39.8301 119.644 39.0976C119.644 38.5236 119.803 38.0644 120.12 37.72C120.437 37.3701 120.828 37.1952 121.292 37.1952C121.757 37.1952 122.074 37.3537 122.243 37.6708C122.391 37.9496 122.465 38.3705 122.465 38.9336L122.448 39.606C122.448 39.9231 122.462 40.3631 122.489 40.9262C122.522 41.4838 122.539 41.9047 122.539 42.189C122.539 42.6591 122.421 43.0035 122.186 43.2222C121.956 43.4463 121.604 43.5584 121.128 43.5584C120.844 43.5584 120.554 43.4983 120.259 43.378C119.964 43.2577 119.816 43.1183 119.816 42.9598C119.816 42.845 119.846 42.7575 119.906 42.6974C119.972 42.6373 120.046 42.6072 120.128 42.6072C120.21 42.6072 120.393 42.6673 120.677 42.7876C120.967 42.9079 121.175 42.968 121.3 42.968C121.694 42.968 121.891 42.6455 121.891 42.0004C121.891 41.3553 121.88 40.9098 121.858 40.6638ZM121.85 38.9336C121.85 38.5345 121.79 38.2557 121.669 38.0972C121.555 37.9332 121.371 37.8512 121.12 37.8512C120.869 37.8512 120.666 37.966 120.513 38.1956C120.36 38.4252 120.284 38.7177 120.284 39.073C120.284 39.4229 120.355 39.7017 120.497 39.9094C120.644 40.1171 120.869 40.221 121.169 40.221C121.47 40.221 121.664 40.0925 121.751 39.8356C121.817 39.6279 121.85 39.3272 121.85 38.9336Z" fill="#63C7B2"/>
<path d="M164.271 35.1624L164.263 33.5798C164.263 33.2846 164.356 33.137 164.542 33.137C164.733 33.137 164.84 33.219 164.862 33.383C164.873 33.4541 164.886 33.8832 164.903 34.6704C164.919 35.4576 164.944 36.1956 164.977 36.8844C165.015 37.5732 165.034 38.2155 165.034 38.8114C165.034 38.9754 164.911 39.0574 164.665 39.0574C164.501 39.0574 164.419 38.9426 164.419 38.713C164.184 38.8989 163.905 38.9918 163.583 38.9918C163.173 38.9918 162.839 38.8387 162.582 38.5326C162.331 38.2265 162.205 37.8493 162.205 37.401C162.205 36.9527 162.295 36.5345 162.476 36.1464C162.661 35.7528 162.948 35.4713 163.337 35.3018C163.577 35.1979 163.809 35.146 164.034 35.146C164.116 35.146 164.195 35.1515 164.271 35.1624ZM164.312 36.2858C164.274 36.1655 164.228 36.0753 164.173 36.0152C164.118 35.9496 164.058 35.9113 163.993 35.9004C163.932 35.884 163.859 35.8758 163.771 35.8758C163.684 35.8758 163.577 35.9086 163.451 35.9742C163.326 36.0398 163.219 36.1464 163.132 36.294C162.957 36.5892 162.869 36.9008 162.869 37.2288C162.869 37.5513 162.932 37.8165 163.058 38.0242C163.189 38.2265 163.372 38.3276 163.607 38.3276C163.848 38.3276 164.036 38.2101 164.173 37.975C164.31 37.7399 164.378 37.4393 164.378 37.073C164.378 36.663 164.356 36.4006 164.312 36.2858ZM166.958 35.1788C167.352 35.1788 167.674 35.3674 167.926 35.7446C168.183 36.1218 168.311 36.5755 168.311 37.1058C168.311 37.6306 168.18 38.0789 167.918 38.4506C167.661 38.8223 167.316 39.0082 166.884 39.0082C166.458 39.0082 166.114 38.8196 165.851 38.4424C165.589 38.0597 165.458 37.6361 165.458 37.1714C165.458 36.5755 165.578 36.0999 165.818 35.7446C166.075 35.3674 166.455 35.1788 166.958 35.1788ZM166.86 35.8512C166.63 35.8512 166.442 35.9715 166.294 36.212C166.146 36.4525 166.073 36.7067 166.073 36.9746C166.073 37.3901 166.155 37.7071 166.319 37.9258C166.483 38.1445 166.668 38.2538 166.876 38.2538C167.248 38.2538 167.486 38.0925 167.59 37.77C167.633 37.6169 167.655 37.4256 167.655 37.196C167.655 36.2995 167.39 35.8512 166.86 35.8512ZM168.798 35.4904C168.819 35.3975 168.866 35.3209 168.937 35.2608C169.008 35.1952 169.079 35.1624 169.15 35.1624C169.227 35.1624 169.284 35.1761 169.322 35.2034C169.366 35.2307 169.391 35.2553 169.396 35.2772C169.407 35.2991 169.418 35.3373 169.429 35.392C169.396 35.8184 169.38 36.2038 169.38 36.5482C169.38 36.8871 169.421 37.278 169.503 37.7208C169.585 38.1581 169.675 38.3768 169.773 38.3768C169.921 38.3768 170.107 38.2948 170.331 38.1308C170.561 37.9668 170.725 37.7946 170.823 37.6142C170.757 36.827 170.725 36.1519 170.725 35.5888C170.725 35.474 170.76 35.3756 170.831 35.2936C170.908 35.2116 170.998 35.1706 171.102 35.1706C171.271 35.1706 171.356 35.2854 171.356 35.515C171.356 35.9031 171.383 36.4799 171.438 37.2452C171.498 38.0105 171.558 38.4971 171.618 38.7048C171.629 38.7485 171.635 38.8005 171.635 38.8606C171.635 38.9153 171.596 38.9672 171.52 39.0164C171.449 39.0711 171.353 39.0984 171.233 39.0984C171.118 39.0984 171.042 39.0328 171.003 38.9016C170.992 38.7923 170.965 38.6283 170.921 38.4096C170.539 38.8087 170.153 39.0082 169.765 39.0082C169.585 39.0082 169.423 38.9399 169.281 38.8032C169.139 38.6665 169.027 38.4807 168.945 38.2456C168.803 37.7919 168.732 37.3655 168.732 36.9664C168.732 36.5673 168.754 36.0753 168.798 35.4904ZM172.114 33.4568C172.114 33.2381 172.25 33.1288 172.524 33.1288C172.649 33.1288 172.723 33.2053 172.745 33.3584V34.5884C172.745 34.818 172.748 35.0476 172.753 35.2772C172.862 35.2444 173.002 35.228 173.171 35.228C173.702 35.228 174.112 35.4057 174.401 35.761C174.691 36.1163 174.836 36.5619 174.836 37.0976C174.836 37.6333 174.664 38.0871 174.319 38.4588C173.98 38.8251 173.543 39.0082 173.007 39.0082C172.472 39.0082 172.204 38.8579 172.204 38.5572C172.204 38.2511 172.187 37.4803 172.155 36.2448C172.127 35.0039 172.114 34.0745 172.114 33.4568ZM173.77 36.0972C173.573 35.9441 173.365 35.8676 173.147 35.8676C173.026 35.8676 172.903 35.8895 172.778 35.9332C172.811 36.3815 172.827 37.1769 172.827 38.3194C172.92 38.3522 173.016 38.3686 173.114 38.3686C173.327 38.3686 173.54 38.2893 173.754 38.1308C174.071 37.9121 174.229 37.5787 174.229 37.1304C174.229 36.6767 174.076 36.3323 173.77 36.0972ZM175.452 33.6946C175.468 33.4869 175.501 33.3529 175.55 33.2928C175.605 33.2272 175.69 33.1944 175.804 33.1944C176.04 33.1944 176.157 33.2901 176.157 33.4814C176.157 33.629 176.143 34.0144 176.116 34.6376C176.094 35.2608 176.083 35.8184 176.083 36.3104C176.083 36.8024 176.102 37.1987 176.141 37.4994C176.206 38.0242 176.299 38.2866 176.419 38.2866C176.54 38.2866 176.63 38.2019 176.69 38.0324C176.717 37.9668 176.761 37.9094 176.821 37.8602C176.881 37.8055 176.958 37.7782 177.051 37.7782C177.242 37.7782 177.338 37.9395 177.338 38.262C177.338 38.4369 177.242 38.6119 177.051 38.7868C176.865 38.9563 176.679 39.041 176.493 39.041C176.307 39.041 176.157 39.0109 176.042 38.9508C175.933 38.8852 175.843 38.7895 175.772 38.6638C175.706 38.5381 175.651 38.4178 175.608 38.303C175.569 38.1827 175.542 38.0379 175.526 37.8684C175.493 37.5951 175.468 37.1577 175.452 36.5564C175.441 35.9496 175.435 35.3729 175.435 34.8262C175.435 34.2741 175.441 33.8969 175.452 33.6946ZM178.835 35.2034C179.125 35.2034 179.401 35.2881 179.664 35.4576C179.926 35.6271 180.057 35.8375 180.057 36.089C180.057 36.335 179.951 36.5755 179.737 36.8106C179.524 37.0402 179.24 37.1796 178.885 37.2288C178.732 37.2507 178.502 37.2616 178.196 37.2616C178.256 37.7263 178.373 38.0324 178.548 38.18C178.603 38.2401 178.677 38.2702 178.77 38.2702C179.109 38.2702 179.393 38.1636 179.623 37.9504C179.852 37.7317 180.016 37.6224 180.115 37.6224C180.158 37.6224 180.224 37.6634 180.311 37.7454C180.399 37.8274 180.443 37.9039 180.443 37.975C180.443 38.1171 180.27 38.3221 179.926 38.59C179.773 38.7157 179.587 38.8223 179.368 38.9098C179.155 38.9918 178.956 39.0328 178.77 39.0328C178.294 39.0328 177.944 38.7267 177.72 38.1144C177.578 37.7372 177.507 37.3217 177.507 36.868C177.507 36.4143 177.614 36.0234 177.827 35.6954C178.04 35.3674 178.376 35.2034 178.835 35.2034ZM178.876 35.7692C178.669 35.7692 178.491 35.8867 178.343 36.1218C178.289 36.2038 178.237 36.3897 178.188 36.6794C178.953 36.6794 179.336 36.4908 179.336 36.1136C179.336 35.884 179.183 35.7692 178.876 35.7692Z" fill="#63C7B2"/>
<path d="M139.879 39.7782C140.07 39.7782 140.166 39.9395 140.166 40.262C140.166 40.4369 140.07 40.6119 139.879 40.7868C139.693 40.9563 139.507 41.041 139.321 41.041C139.135 41.041 138.985 41.0109 138.87 40.9508C138.761 40.8852 138.67 40.7895 138.599 40.6638C138.534 40.5381 138.479 40.4178 138.435 40.303C138.397 40.1827 138.367 40.0379 138.345 39.8684C138.318 39.5951 138.301 39.3409 138.296 39.1058C138.296 38.8653 138.291 38.4225 138.28 37.7774C138.181 37.8211 138.091 37.8457 138.009 37.8512C137.927 37.8512 137.85 37.8512 137.779 37.8512C137.708 37.8512 137.629 37.8485 137.542 37.843C137.553 38.0617 137.577 38.4525 137.615 39.0156C137.654 39.5732 137.673 40.1171 137.673 40.6474C137.673 40.7567 137.629 40.8442 137.542 40.9098C137.454 40.9754 137.364 41.0082 137.271 41.0082C137.123 41.0082 137.05 40.9207 137.05 40.7458C137.05 40.2538 137.03 39.7755 136.992 39.3108C136.954 38.8461 136.927 38.3569 136.91 37.843C136.418 37.843 136.131 37.7938 136.049 37.6954C136.016 37.6571 136 37.6079 136 37.5478C136 37.4057 136.057 37.3127 136.172 37.269C136.292 37.2253 136.429 37.2034 136.582 37.2034C136.735 37.2034 136.845 37.2034 136.91 37.2034C136.927 36.3123 136.976 35.7602 137.058 35.547C137.107 35.4158 137.173 35.3201 137.255 35.26C137.342 35.1944 137.416 35.1589 137.476 35.1534C137.542 35.1425 137.686 35.137 137.911 35.137C138.135 35.137 138.318 35.1671 138.46 35.2272C138.504 35.2053 138.569 35.1944 138.657 35.1944C138.75 35.1944 138.826 35.219 138.886 35.2682C138.952 35.3174 138.985 35.4021 138.985 35.5224C138.985 35.6427 138.971 36.0144 138.944 36.6376C138.922 37.2608 138.911 37.8184 138.911 38.3104C138.911 38.8024 138.93 39.1987 138.968 39.4994C139.034 40.0242 139.127 40.2866 139.247 40.2866C139.367 40.2866 139.46 40.2019 139.526 40.0324C139.548 39.9668 139.589 39.9094 139.649 39.8602C139.709 39.8055 139.786 39.7782 139.879 39.7782ZM138.099 37.228C138.165 37.228 138.222 37.2362 138.271 37.2526C138.271 36.5638 138.274 36.1046 138.28 35.875C138.05 35.793 137.919 35.752 137.886 35.752C137.695 35.752 137.58 35.8668 137.542 36.0964C137.531 36.1784 137.525 36.3479 137.525 36.6048C137.525 36.8563 137.525 37.064 137.525 37.228H138.099ZM141.959 37.1788C142.353 37.1788 142.675 37.3674 142.927 37.7446C143.184 38.1218 143.312 38.5755 143.312 39.1058C143.312 39.6306 143.181 40.0789 142.918 40.4506C142.662 40.8223 142.317 41.0082 141.885 41.0082C141.459 41.0082 141.114 40.8196 140.852 40.4424C140.59 40.0597 140.458 39.6361 140.458 39.1714C140.458 38.5755 140.579 38.0999 140.819 37.7446C141.076 37.3674 141.456 37.1788 141.959 37.1788ZM141.861 37.8512C141.631 37.8512 141.442 37.9715 141.295 38.212C141.147 38.4525 141.073 38.7067 141.073 38.9746C141.073 39.3901 141.155 39.7071 141.319 39.9258C141.483 40.1445 141.669 40.2538 141.877 40.2538C142.249 40.2538 142.487 40.0925 142.59 39.77C142.634 39.6169 142.656 39.4256 142.656 39.196C142.656 38.2995 142.391 37.8512 141.861 37.8512ZM146.103 37.1706C146.343 37.1706 146.464 37.3756 146.464 37.7856C146.464 37.8293 146.464 37.8758 146.464 37.925L146.447 38.499C146.442 38.6794 146.439 38.8571 146.439 39.032L146.562 40.8852C146.562 41.0219 146.423 41.0902 146.144 41.0902C146.127 41.0902 146.086 41.0902 146.021 41.0902C145.961 41.0902 145.917 41.0656 145.89 41.0164C145.868 40.9672 145.865 40.9071 145.881 40.836C145.903 40.7649 145.898 40.6857 145.865 40.5982C145.613 40.8661 145.28 41 144.865 41C144.094 41 143.708 40.4041 143.708 39.2124C143.708 38.5509 143.831 38.0507 144.077 37.7118C144.329 37.3729 144.687 37.2034 145.152 37.2034C145.37 37.2034 145.589 37.2417 145.808 37.3182C145.879 37.2198 145.977 37.1706 146.103 37.1706ZM145.25 37.9168C144.938 37.9168 144.706 38.007 144.553 38.1874C144.4 38.3678 144.323 38.6985 144.323 39.1796C144.323 39.9887 144.542 40.3932 144.979 40.3932C145.094 40.3932 145.22 40.3413 145.357 40.2374C145.499 40.1335 145.597 40.016 145.652 39.8848C145.756 39.5896 145.808 39.2671 145.808 38.9172C145.808 38.5673 145.764 38.3131 145.676 38.1546C145.594 37.9961 145.452 37.9168 145.25 37.9168ZM147.231 37.1706L147.641 37.1788C147.734 37.1788 147.786 37.1761 147.797 37.1706V35.4896C147.802 35.3967 147.849 35.3174 147.936 35.2518C148.024 35.1862 148.106 35.1534 148.182 35.1534C148.259 35.1534 148.319 35.178 148.363 35.2272C148.412 35.2764 148.434 35.3529 148.428 35.4568C148.423 35.5607 148.42 36.1292 148.42 37.1624L149.379 37.1296C149.543 37.1296 149.625 37.2253 149.625 37.4166C149.625 37.5587 149.582 37.6653 149.494 37.7364C149.412 37.8075 149.322 37.8457 149.224 37.8512C149.131 37.8567 149.038 37.8594 148.945 37.8594L148.445 37.8512C148.445 38.0753 148.467 38.5181 148.51 39.1796C148.559 39.8411 148.598 40.2702 148.625 40.467C148.652 40.6583 148.658 40.7841 148.641 40.8442C148.625 40.8989 148.595 40.9371 148.551 40.959C148.48 40.9918 148.385 41.0082 148.264 41.0082C148.144 41.0082 148.073 40.9426 148.051 40.8114C147.942 40.0953 147.868 39.1113 147.83 37.8594C147.78 37.8649 147.592 37.8676 147.264 37.8676C146.936 37.8676 146.772 37.7719 146.772 37.5806C146.772 37.3073 146.925 37.1706 147.231 37.1706Z" fill="#63C7B2"/>
<path d="M54.451 38.212C54.451 37.8895 54.5658 37.6325 54.7954 37.4412C55.025 37.2499 55.2901 37.1542 55.5908 37.1542C55.8969 37.1542 56.1894 37.2089 56.4682 37.3182C56.747 37.4275 56.8864 37.5724 56.8864 37.7528C56.8864 37.8457 56.8509 37.9195 56.7798 37.9742C56.7087 38.0289 56.6459 38.0562 56.5912 38.0562C56.542 38.0562 56.501 38.0562 56.4682 38.0562C56.4409 38.0507 56.3315 37.9988 56.1402 37.9004C55.9543 37.802 55.7821 37.7528 55.6236 37.7528C55.4651 37.7528 55.3284 37.7938 55.2136 37.8758C55.1043 37.9523 55.0496 38.0671 55.0496 38.2202C55.0496 38.3733 55.1125 38.4935 55.2382 38.581C55.3694 38.6685 55.5963 38.745 55.9188 38.8106C56.2413 38.8707 56.4873 38.9582 56.6568 39.073C56.8317 39.1878 56.9192 39.401 56.9192 39.7126C56.9192 40.1663 56.7989 40.4889 56.5584 40.6802C56.3233 40.8661 56.0363 40.959 55.6974 40.959C55.3585 40.959 55.0687 40.9125 54.8282 40.8196C54.5931 40.7267 54.4756 40.5873 54.4756 40.4014C54.4756 40.1882 54.5822 40.0816 54.7954 40.0816C54.8501 40.0816 54.9703 40.1199 55.1562 40.1964C55.3421 40.2729 55.5252 40.3112 55.7056 40.3112C55.8915 40.3112 56.0309 40.2538 56.1238 40.139C56.2222 40.0187 56.2714 39.8821 56.2714 39.729C56.2714 39.5759 56.2085 39.4666 56.0828 39.401C55.9571 39.3299 55.7657 39.2725 55.5088 39.2288C55.2519 39.1851 55.0633 39.1386 54.943 39.0894C54.615 38.9582 54.451 38.6657 54.451 38.212ZM58.3441 38.3432L58.4097 40.2784C58.4097 40.5189 58.3987 40.6583 58.3769 40.6966C58.3659 40.795 58.3331 40.8715 58.2785 40.9262C58.2293 40.9809 58.1309 41.0082 57.9833 41.0082C57.9122 41.0082 57.8548 40.9645 57.8111 40.877C57.7673 40.7841 57.7427 40.6802 57.7373 40.5654C57.699 39.6033 57.6471 38.7013 57.5815 37.8594C57.5213 37.0121 57.4913 36.2249 57.4913 35.4978C57.4913 35.383 57.5295 35.2928 57.6061 35.2272C57.6826 35.1616 57.7728 35.1288 57.8767 35.1288C58.0297 35.1288 58.1199 35.26 58.1473 35.5224C58.1801 35.7848 58.1992 36.1128 58.2047 36.5064C58.2156 36.9 58.2265 37.187 58.2375 37.3674C58.5108 37.2253 58.7841 37.1542 59.0575 37.1542C59.6916 37.1542 60.0934 37.433 60.2629 37.9906C60.3613 38.3077 60.4105 38.7149 60.4105 39.2124C60.4105 39.3764 60.3941 39.6361 60.3613 39.9914C60.3339 40.3413 60.3175 40.5681 60.3121 40.672C60.3066 40.7759 60.2601 40.8579 60.1727 40.918C60.0907 40.9727 60.0005 41 59.9021 41C59.749 41 59.6725 40.918 59.6725 40.754L59.7299 39.3272C59.7299 39.2069 59.7244 39.0074 59.7135 38.7286C59.7025 38.4498 59.6451 38.2284 59.5413 38.0644C59.4429 37.9004 59.2679 37.8184 59.0165 37.8184C58.5682 37.8184 58.3441 37.9933 58.3441 38.3432ZM62.3614 37.1788C62.755 37.1788 63.0776 37.3674 63.329 37.7446C63.586 38.1218 63.7144 38.5755 63.7144 39.1058C63.7144 39.6306 63.5832 40.0789 63.3208 40.4506C63.0639 40.8223 62.7195 41.0082 62.2876 41.0082C61.8612 41.0082 61.5168 40.8196 61.2544 40.4424C60.992 40.0597 60.8608 39.6361 60.8608 39.1714C60.8608 38.5755 60.9811 38.0999 61.2216 37.7446C61.4786 37.3674 61.8585 37.1788 62.3614 37.1788ZM62.263 37.8512C62.0334 37.8512 61.8448 37.9715 61.6972 38.212C61.5496 38.4525 61.4758 38.7067 61.4758 38.9746C61.4758 39.3901 61.5578 39.7071 61.7218 39.9258C61.8858 40.1445 62.0717 40.2538 62.2794 40.2538C62.6512 40.2538 62.889 40.0925 62.9928 39.77C63.0366 39.6169 63.0584 39.4256 63.0584 39.196C63.0584 38.2995 62.7933 37.8512 62.263 37.8512ZM65.2751 39.8028L65.2833 40.6474C65.2833 40.7458 65.2368 40.836 65.1439 40.918C65.0564 41 64.9689 41.041 64.8815 41.041C64.7557 41.041 64.6765 40.9426 64.6437 40.7458C64.6382 40.7021 64.6163 40.303 64.5781 39.5486C64.5398 38.7887 64.466 38.1929 64.3567 37.761C64.3075 37.5533 64.2829 37.4303 64.2829 37.392C64.2829 37.2116 64.3922 37.1214 64.6109 37.1214C64.7038 37.1214 64.7776 37.1569 64.8323 37.228C64.8869 37.2991 64.9197 37.3729 64.9307 37.4494C64.9471 37.5205 64.9607 37.6189 64.9717 37.7446C64.9826 37.8703 64.9908 37.9496 64.9963 37.9824C65.1111 37.7091 65.2833 37.5041 65.5129 37.3674C65.7425 37.2307 65.9939 37.1624 66.2673 37.1624C66.7155 37.1624 66.9397 37.2772 66.9397 37.5068C66.9397 37.6216 66.8987 37.7145 66.8167 37.7856C66.7401 37.8512 66.6499 37.884 66.5461 37.884C66.0814 37.884 65.7534 38.0316 65.5621 38.3268C65.3707 38.622 65.2751 39.114 65.2751 39.8028ZM67.5773 37.1706L67.9873 37.1788C68.0803 37.1788 68.1322 37.1761 68.1431 37.1706V35.4896C68.1486 35.3967 68.1951 35.3174 68.2825 35.2518C68.37 35.1862 68.452 35.1534 68.5285 35.1534C68.6051 35.1534 68.6652 35.178 68.7089 35.2272C68.7581 35.2764 68.78 35.3529 68.7745 35.4568C68.7691 35.5607 68.7663 36.1292 68.7663 37.1624L69.7257 37.1296C69.8897 37.1296 69.9717 37.2253 69.9717 37.4166C69.9717 37.5587 69.928 37.6653 69.8405 37.7364C69.7585 37.8075 69.6683 37.8457 69.5699 37.8512C69.477 37.8567 69.3841 37.8594 69.2911 37.8594L68.7909 37.8512C68.7909 38.0753 68.8128 38.5181 68.8565 39.1796C68.9057 39.8411 68.944 40.2702 68.9713 40.467C68.9987 40.6583 69.0041 40.7841 68.9877 40.8442C68.9713 40.8989 68.9413 40.9371 68.8975 40.959C68.8265 40.9918 68.7308 41.0082 68.6105 41.0082C68.4903 41.0082 68.4192 40.9426 68.3973 40.8114C68.288 40.0953 68.2142 39.1113 68.1759 37.8594C68.1267 37.8649 67.9381 37.8676 67.6101 37.8676C67.2821 37.8676 67.1181 37.7719 67.1181 37.5806C67.1181 37.3073 67.2712 37.1706 67.5773 37.1706Z" fill="#63C7B2"/>
<g filter="url(#filter0_d_44_233)">
<path d="M175.606 51.5L173.106 50.0566V52.9434L175.606 51.5ZM174.106 51.25C173.968 51.25 173.856 51.3619 173.856 51.5C173.856 51.6381 173.968 51.75 174.106 51.75V51.25ZM171.106 51.75C171.244 51.75 171.356 51.6381 171.356 51.5C171.356 51.3619 171.244 51.25 171.106 51.25V51.75ZM168.106 51.25C167.968 51.25 167.856 51.3619 167.856 51.5C167.856 51.6381 167.968 51.75 168.106 51.75V51.25ZM165.106 51.75C165.244 51.75 165.356 51.6381 165.356 51.5C165.356 51.3619 165.244 51.25 165.106 51.25V51.75ZM162.106 51.25C161.968 51.25 161.856 51.3619 161.856 51.5C161.856 51.6381 161.968 51.75 162.106 51.75V51.25ZM159.106 51.75C159.244 51.75 159.356 51.6381 159.356 51.5C159.356 51.3619 159.244 51.25 159.106 51.25V51.75ZM156.106 51.25C155.968 51.25 155.856 51.3619 155.856 51.5C155.856 51.6381 155.968 51.75 156.106 51.75V51.25ZM153.106 51.75C153.244 51.75 153.356 51.6381 153.356 51.5C153.356 51.3619 153.244 51.25 153.106 51.25V51.75ZM150.106 51.25C149.968 51.25 149.856 51.3619 149.856 51.5C149.856 51.6381 149.968 51.75 150.106 51.75V51.25ZM147.106 51.75C147.244 51.75 147.356 51.6381 147.356 51.5C147.356 51.3619 147.244 51.25 147.106 51.25V51.75ZM144.106 51.25C143.968 51.25 143.856 51.3619 143.856 51.5C143.856 51.6381 143.968 51.75 144.106 51.75V51.25ZM141.106 51.75C141.244 51.75 141.356 51.6381 141.356 51.5C141.356 51.3619 141.244 51.25 141.106 51.25V51.75ZM138.106 51.25C137.968 51.25 137.856 51.3619 137.856 51.5C137.856 51.6381 137.968 51.75 138.106 51.75V51.25ZM135.106 51.75C135.244 51.75 135.356 51.6381 135.356 51.5C135.356 51.3619 135.244 51.25 135.106 51.25V51.75ZM132.106 51.25C131.968 51.25 131.856 51.3619 131.856 51.5C131.856 51.6381 131.968 51.75 132.106 51.75V51.25ZM129.106 51.75C129.244 51.75 129.356 51.6381 129.356 51.5C129.356 51.3619 129.244 51.25 129.106 51.25V51.75ZM126.106 51.25C125.968 51.25 125.856 51.3619 125.856 51.5C125.856 51.6381 125.968 51.75 126.106 51.75V51.25ZM123.106 51.75C123.244 51.75 123.356 51.6381 123.356 51.5C123.356 51.3619 123.244 51.25 123.106 51.25V51.75ZM120.106 51.25C119.968 51.25 119.856 51.3619 119.856 51.5C119.856 51.6381 119.968 51.75 120.106 51.75V51.25ZM117.106 51.75C117.244 51.75 117.356 51.6381 117.356 51.5C117.356 51.3619 117.244 51.25 117.106 51.25V51.75ZM114.106 51.25C113.968 51.25 113.856 51.3619 113.856 51.5C113.856 51.6381 113.968 51.75 114.106 51.75V51.25ZM111.106 51.75C111.244 51.75 111.356 51.6381 111.356 51.5C111.356 51.3619 111.244 51.25 111.106 51.25V51.75ZM108.106 51.25C107.968 51.25 107.856 51.3619 107.856 51.5C107.856 51.6381 107.968 51.75 108.106 51.75V51.25ZM105.106 51.75C105.244 51.75 105.356 51.6381 105.356 51.5C105.356 51.3619 105.244 51.25 105.106 51.25V51.75ZM102.106 51.25C101.968 51.25 101.856 51.3619 101.856 51.5C101.856 51.6381 101.968 51.75 102.106 51.75V51.25ZM99.1061 51.75C99.2442 51.75 99.3561 51.6381 99.3561 51.5C99.3561 51.3619 99.2442 51.25 99.1061 51.25V51.75ZM96.1061 51.25C95.968 51.25 95.8561 51.3619 95.8561 51.5C95.8561 51.6381 95.968 51.75 96.1061 51.75V51.25ZM93.1061 51.75C93.2441 51.75 93.3561 51.6381 93.3561 51.5C93.3561 51.3619 93.2441 51.25 93.1061 51.25V51.75ZM90.1061 51.25C89.968 51.25 89.8561 51.3619 89.8561 51.5C89.8561 51.6381 89.968 51.75 90.1061 51.75V51.25ZM87.1061 51.75C87.2442 51.75 87.3561 51.6381 87.3561 51.5C87.3561 51.3619 87.2442 51.25 87.1061 51.25V51.75ZM84.1061 51.25C83.968 51.25 83.8561 51.3619 83.8561 51.5C83.8561 51.6381 83.968 51.75 84.1061 51.75V51.25ZM81.1061 51.75C81.2442 51.75 81.3561 51.6381 81.3561 51.5C81.3561 51.3619 81.2442 51.25 81.1061 51.25V51.75ZM78.1061 51.25C77.968 51.25 77.8561 51.3619 77.8561 51.5C77.8561 51.6381 77.968 51.75 78.1061 51.75V51.25ZM75.1061 51.75C75.2441 51.75 75.3561 51.6381 75.3561 51.5C75.3561 51.3619 75.2441 51.25 75.1061 51.25V51.75ZM72.1061 51.25C71.968 51.25 71.8561 51.3619 71.8561 51.5C71.8561 51.6381 71.968 51.75 72.1061 51.75V51.25ZM69.1061 51.75C69.2442 51.75 69.3561 51.6381 69.3561 51.5C69.3561 51.3619 69.2442 51.25 69.1061 51.25V51.75ZM66.1061 51.25C65.968 51.25 65.8561 51.3619 65.8561 51.5C65.8561 51.6381 65.968 51.75 66.1061 51.75V51.25ZM63.1061 51.75C63.2442 51.75 63.3561 51.6381 63.3561 51.5C63.3561 51.3619 63.2442 51.25 63.1061 51.25V51.75ZM60.1061 51.25C59.968 51.25 59.8561 51.3619 59.8561 51.5C59.8561 51.6381 59.968 51.75 60.1061 51.75V51.25ZM57.1061 51.75C57.2441 51.75 57.3561 51.6381 57.3561 51.5C57.3561 51.3619 57.2441 51.25 57.1061 51.25V51.75ZM54.1061 51.25C53.968 51.25 53.8561 51.3619 53.8561 51.5C53.8561 51.6381 53.968 51.75 54.1061 51.75V51.25ZM51.1061 51.75C51.2442 51.75 51.3561 51.6381 51.3561 51.5C51.3561 51.3619 51.2442 51.25 51.1061 51.25V51.75ZM48.1061 51.25C47.968 51.25 47.8561 51.3619 47.8561 51.5C47.8561 51.6381 47.968 51.75 48.1061 51.75V51.25ZM45.1061 51.75C45.2441 51.75 45.3561 51.6381 45.3561 51.5C45.3561 51.3619 45.2441 51.25 45.1061 51.25V51.75ZM42.1061 51.25C41.968 51.25 41.8561 51.3619 41.8561 51.5C41.8561 51.6381 41.968 51.75 42.1061 51.75V51.25ZM39.1061 51.75C39.2441 51.75 39.3561 51.6381 39.3561 51.5C39.3561 51.3619 39.2441 51.25 39.1061 51.25V51.75ZM36.1061 51.25C35.968 51.25 35.8561 51.3619 35.8561 51.5C35.8561 51.6381 35.968 51.75 36.1061 51.75V51.25ZM33.1061 51.75C33.2442 51.75 33.3561 51.6381 33.3561 51.5C33.3561 51.3619 33.2442 51.25 33.1061 51.25V51.75ZM30.1061 51.25C29.968 51.25 29.8561 51.3619 29.8561 51.5C29.8561 51.6381 29.968 51.75 30.1061 51.75V51.25ZM27.1061 51.75C27.2441 51.75 27.3561 51.6381 27.3561 51.5C27.3561 51.3619 27.2441 51.25 27.1061 51.25V51.75ZM171.106 51.25H168.106V51.75H171.106V51.25ZM165.106 51.25H162.106V51.75H165.106V51.25ZM159.106 51.25H156.106V51.75H159.106V51.25ZM153.106 51.25H150.106V51.75H153.106V51.25ZM147.106 51.25L144.106 51.25V51.75L147.106 51.75V51.25ZM141.106 51.25H138.106V51.75H141.106V51.25ZM135.106 51.25H132.106V51.75H135.106V51.25ZM129.106 51.25H126.106V51.75H129.106V51.25ZM123.106 51.25H120.106V51.75H123.106V51.25ZM117.106 51.25H114.106V51.75H117.106V51.25ZM111.106 51.25H108.106V51.75H111.106V51.25ZM105.106 51.25H102.106V51.75H105.106V51.25ZM99.1061 51.25H96.1061V51.75H99.1061V51.25ZM93.1061 51.25H90.1061V51.75H93.1061V51.25ZM87.1061 51.25H84.1061V51.75H87.1061V51.25ZM81.1061 51.25H78.1061V51.75H81.1061V51.25ZM75.1061 51.25H72.1061V51.75H75.1061V51.25ZM69.1061 51.25H66.1061V51.75H69.1061V51.25ZM63.1061 51.25H60.1061V51.75H63.1061V51.25ZM57.1061 51.25H54.1061V51.75H57.1061V51.25ZM51.1061 51.25H48.1061V51.75H51.1061V51.25ZM45.1061 51.25H42.1061V51.75H45.1061V51.25ZM39.1061 51.25H36.1061V51.75H39.1061V51.25ZM33.1061 51.25L30.1061 51.25V51.75L33.1061 51.75V51.25ZM27.1061 51.25H25.6061V51.75H27.1061V51.25ZM175.606 51.5L170.606 48.6132V54.3868L175.606 51.5ZM174.106 51C173.83 51 173.606 51.2239 173.606 51.5C173.606 51.7761 173.83 52 174.106 52V51ZM171.106 52C171.382 52 171.606 51.7761 171.606 51.5C171.606 51.2239 171.382 51 171.106 51V52ZM168.106 51C167.83 51 167.606 51.2239 167.606 51.5C167.606 51.7761 167.83 52 168.106 52V51ZM165.106 52C165.382 52 165.606 51.7761 165.606 51.5C165.606 51.2239 165.382 51 165.106 51V52ZM162.106 51C161.83 51 161.606 51.2239 161.606 51.5C161.606 51.7761 161.83 52 162.106 52V51ZM159.106 52C159.382 52 159.606 51.7761 159.606 51.5C159.606 51.2239 159.382 51 159.106 51V52ZM156.106 51C155.83 51 155.606 51.2239 155.606 51.5C155.606 51.7761 155.83 52 156.106 52V51ZM153.106 52C153.382 52 153.606 51.7761 153.606 51.5C153.606 51.2239 153.382 51 153.106 51V52ZM150.106 51C149.83 51 149.606 51.2239 149.606 51.5C149.606 51.7761 149.83 52 150.106 52V51ZM147.106 52C147.382 52 147.606 51.7761 147.606 51.5C147.606 51.2239 147.382 51 147.106 51V52ZM144.106 51C143.83 51 143.606 51.2239 143.606 51.5C143.606 51.7761 143.83 52 144.106 52V51ZM141.106 52C141.382 52 141.606 51.7761 141.606 51.5C141.606 51.2239 141.382 51 141.106 51V52ZM138.106 51C137.83 51 137.606 51.2239 137.606 51.5C137.606 51.7761 137.83 52 138.106 52V51ZM135.106 52C135.382 52 135.606 51.7761 135.606 51.5C135.606 51.2239 135.382 51 135.106 51V52ZM132.106 51C131.83 51 131.606 51.2239 131.606 51.5C131.606 51.7761 131.83 52 132.106 52V51ZM129.106 52C129.382 52 129.606 51.7761 129.606 51.5C129.606 51.2239 129.382 51 129.106 51V52ZM126.106 51C125.83 51 125.606 51.2239 125.606 51.5C125.606 51.7761 125.83 52 126.106 52V51ZM123.106 52C123.382 52 123.606 51.7761 123.606 51.5C123.606 51.2239 123.382 51 123.106 51V52ZM120.106 51C119.83 51 119.606 51.2239 119.606 51.5C119.606 51.7761 119.83 52 120.106 52V51ZM117.106 52C117.382 52 117.606 51.7761 117.606 51.5C117.606 51.2239 117.382 51 117.106 51V52ZM114.106 51C113.83 51 113.606 51.2239 113.606 51.5C113.606 51.7761 113.83 52 114.106 52V51ZM111.106 52C111.382 52 111.606 51.7761 111.606 51.5C111.606 51.2239 111.382 51 111.106 51V52ZM108.106 51C107.83 51 107.606 51.2239 107.606 51.5C107.606 51.7761 107.83 52 108.106 52V51ZM105.106 52C105.382 52 105.606 51.7761 105.606 51.5C105.606 51.2239 105.382 51 105.106 51V52ZM102.106 51C101.83 51 101.606 51.2239 101.606 51.5C101.606 51.7761 101.83 52 102.106 52V51ZM99.1061 52C99.3822 52 99.6061 51.7761 99.6061 51.5C99.6061 51.2239 99.3822 51 99.1061 51V52ZM96.1061 51C95.8299 51 95.6061 51.2239 95.6061 51.5C95.6061 51.7761 95.8299 52 96.1061 52V51ZM93.1061 52C93.3822 52 93.6061 51.7761 93.6061 51.5C93.6061 51.2239 93.3822 51 93.1061 51V52ZM90.1061 51C89.8299 51 89.6061 51.2239 89.6061 51.5C89.6061 51.7761 89.8299 52 90.1061 52V51ZM87.1061 52C87.3822 52 87.6061 51.7761 87.6061 51.5C87.6061 51.2239 87.3822 51 87.1061 51V52ZM84.1061 51C83.8299 51 83.6061 51.2239 83.6061 51.5C83.6061 51.7761 83.8299 52 84.1061 52V51ZM81.1061 52C81.3822 52 81.6061 51.7761 81.6061 51.5C81.6061 51.2239 81.3822 51 81.1061 51V52ZM78.1061 51C77.8299 51 77.6061 51.2239 77.6061 51.5C77.6061 51.7761 77.8299 52 78.1061 52V51ZM75.1061 52C75.3822 52 75.6061 51.7761 75.6061 51.5C75.6061 51.2239 75.3822 51 75.1061 51V52ZM72.1061 51C71.8299 51 71.6061 51.2239 71.6061 51.5C71.6061 51.7761 71.8299 52 72.1061 52V51ZM69.1061 52C69.3822 52 69.6061 51.7761 69.6061 51.5C69.6061 51.2239 69.3822 51 69.1061 51V52ZM66.1061 51C65.8299 51 65.6061 51.2239 65.6061 51.5C65.6061 51.7761 65.8299 52 66.1061 52V51ZM63.1061 52C63.3822 52 63.6061 51.7761 63.6061 51.5C63.6061 51.2239 63.3822 51 63.1061 51V52ZM60.1061 51C59.8299 51 59.6061 51.2239 59.6061 51.5C59.6061 51.7761 59.8299 52 60.1061 52V51ZM57.1061 52C57.3822 52 57.6061 51.7761 57.6061 51.5C57.6061 51.2239 57.3822 51 57.1061 51V52ZM54.1061 51C53.8299 51 53.6061 51.2239 53.6061 51.5C53.6061 51.7761 53.8299 52 54.1061 52V51ZM51.1061 52C51.3822 52 51.6061 51.7761 51.6061 51.5C51.6061 51.2239 51.3822 51 51.1061 51V52ZM48.1061 51C47.8299 51 47.6061 51.2239 47.6061 51.5C47.6061 51.7761 47.8299 52 48.1061 52V51ZM45.1061 52C45.3822 52 45.6061 51.7761 45.6061 51.5C45.6061 51.2239 45.3822 51 45.1061 51V52ZM42.1061 51C41.8299 51 41.6061 51.2239 41.6061 51.5C41.6061 51.7761 41.8299 52 42.1061 52V51ZM39.1061 52C39.3822 52 39.6061 51.7761 39.6061 51.5C39.6061 51.2239 39.3822 51 39.1061 51V52ZM36.1061 51C35.8299 51 35.6061 51.2239 35.6061 51.5C35.6061 51.7761 35.8299 52 36.1061 52V51ZM33.1061 52C33.3822 52 33.6061 51.7761 33.6061 51.5C33.6061 51.2239 33.3822 51 33.1061 51V52ZM30.1061 51C29.8299 51 29.6061 51.2239 29.6061 51.5C29.6061 51.7761 29.8299 52 30.1061 52V51ZM27.1061 52C27.3822 52 27.6061 51.7761 27.6061 51.5C27.6061 51.2239 27.3822 51 27.1061 51V52ZM171.106 51H168.106V52H171.106V51ZM165.106 51H162.106V52H165.106V51ZM159.106 51H156.106V52H159.106V51ZM153.106 51H150.106V52H153.106V51ZM147.106 51L144.106 51V52L147.106 52V51ZM141.106 51H138.106V52H141.106V51ZM135.106 51H132.106V52H135.106V51ZM129.106 51H126.106V52H129.106V51ZM123.106 51H120.106V52H123.106V51ZM117.106 51H114.106V52H117.106V51ZM111.106 51H108.106V52H111.106V51ZM105.106 51H102.106V52H105.106V51ZM99.1061 51H96.1061V52H99.1061V51ZM93.1061 51H90.1061V52H93.1061V51ZM87.1061 51H84.1061V52H87.1061V51ZM81.1061 51H78.1061V52H81.1061V51ZM75.1061 51H72.1061V52H75.1061V51ZM69.1061 51H66.1061V52H69.1061V51ZM63.1061 51H60.1061V52H63.1061V51ZM57.1061 51H54.1061V52H57.1061V51ZM51.1061 51H48.1061V52H51.1061V51ZM45.1061 51H42.1061V52H45.1061V51ZM39.1061 51H36.1061V52H39.1061V51ZM33.1061 51H30.1061V52L33.1061 52V51ZM27.1061 51H25.6061V52H27.1061V51Z" fill="#ED254E"/>
</g>
<path d="M69.6 55.664C69.712 55.664 69.7893 55.744 69.832 55.904C69.8 56.4427 69.7653 56.8267 69.728 57.056C69.6907 57.28 69.6587 57.4773 69.632 57.648C69.6107 57.8187 69.5947 57.936 69.584 58C69.5787 58.064 69.5573 58.1947 69.52 58.392C69.4827 58.5893 69.4427 58.7867 69.4 58.984C69.3627 59.176 69.3387 59.2907 69.328 59.328C69.3227 59.3653 69.2747 59.6053 69.184 60.048C69.0933 60.4853 69.024 60.7547 68.976 60.856C68.9333 60.952 68.856 61 68.744 61C68.6373 61 68.552 60.968 68.488 60.904C68.2427 60.568 68.0107 60.152 67.792 59.656C67.7387 59.528 67.6773 59.3893 67.608 59.24C67.544 59.0907 67.496 58.9787 67.464 58.904L67.392 58.736C67.28 58.928 67.1253 59.2533 66.928 59.712C66.7307 60.1707 66.5573 60.5387 66.408 60.816C66.312 60.9387 66.2053 61 66.088 61C65.8427 61 65.656 60.3467 65.528 59.04C65.528 59.0347 65.5227 59.0053 65.512 58.952C65.5067 58.8987 65.496 58.8053 65.48 58.672C65.4693 58.5387 65.4533 58.392 65.432 58.232C65.416 58.0667 65.3493 57.392 65.232 56.208C65.232 56.1013 65.272 56.0053 65.352 55.92C65.432 55.8293 65.52 55.784 65.616 55.784C65.7333 55.784 65.8133 55.8613 65.856 56.016C66 57.7493 66.144 59.0293 66.288 59.856C66.3307 59.7813 66.44 59.536 66.616 59.12C66.792 58.6987 66.952 58.3653 67.096 58.12C67.24 57.8693 67.3787 57.744 67.512 57.744C67.6027 57.744 67.68 57.792 67.744 57.888C68.08 58.8427 68.368 59.5147 68.608 59.904C68.6133 59.8453 68.6453 59.6853 68.704 59.424L68.808 58.912C68.808 58.88 68.8133 58.8347 68.824 58.776C68.84 58.7173 68.8507 58.6613 68.856 58.608C68.8667 58.5493 68.8773 58.496 68.888 58.448L68.976 57.944C69.104 57.1547 69.184 56.5067 69.216 56C69.2373 55.9093 69.2853 55.832 69.36 55.768C69.44 55.6987 69.52 55.664 69.6 55.664ZM70.7617 55.944C70.8577 55.944 70.9484 55.9893 71.0337 56.08C71.119 56.1707 71.1617 56.2667 71.1617 56.368C71.1617 56.464 71.1137 56.5627 71.0177 56.664C70.927 56.7653 70.831 56.816 70.7297 56.816C70.6284 56.816 70.535 56.7733 70.4497 56.688C70.3697 56.6027 70.3297 56.4933 70.3297 56.36C70.3297 56.104 70.4684 55.9653 70.7457 55.944C70.751 55.944 70.7564 55.944 70.7617 55.944ZM71.0977 60.136L71.1057 60.696C71.1057 60.7973 71.0657 60.8827 70.9857 60.952C70.9057 61.016 70.8204 61.048 70.7297 61.048C70.5964 61.048 70.527 60.9813 70.5217 60.848C70.4524 59.1467 70.4177 58.2053 70.4177 58.024C70.4177 57.8427 70.4257 57.6213 70.4417 57.36C70.4524 57.264 70.5137 57.216 70.6257 57.216C70.9084 57.216 71.0684 57.3307 71.1057 57.56C71.1217 57.6773 71.1297 57.7707 71.1297 57.84L71.0977 58.344V60.136ZM73.9348 57.256L73.9268 55.712C73.9268 55.424 74.0174 55.28 74.1988 55.28C74.3854 55.28 74.4894 55.36 74.5108 55.52C74.5214 55.5893 74.5348 56.008 74.5508 56.776C74.5668 57.544 74.5908 58.264 74.6228 58.936C74.6601 59.608 74.6788 60.2347 74.6788 60.816C74.6788 60.976 74.5588 61.056 74.3188 61.056C74.1588 61.056 74.0788 60.944 74.0788 60.72C73.8494 60.9013 73.5774 60.992 73.2628 60.992C72.8628 60.992 72.5374 60.8427 72.2868 60.544C72.0414 60.2453 71.9188 59.8773 71.9188 59.44C71.9188 59.0027 72.0068 58.5947 72.1828 58.216C72.3641 57.832 72.6441 57.5573 73.0228 57.392C73.2574 57.2907 73.4841 57.24 73.7028 57.24C73.7828 57.24 73.8601 57.2453 73.9348 57.256ZM73.9748 58.352C73.9374 58.2347 73.8921 58.1467 73.8388 58.088C73.7854 58.024 73.7268 57.9867 73.6628 57.976C73.6041 57.96 73.5321 57.952 73.4468 57.952C73.3614 57.952 73.2574 57.984 73.1348 58.048C73.0121 58.112 72.9081 58.216 72.8228 58.36C72.6521 58.648 72.5668 58.952 72.5668 59.272C72.5668 59.5867 72.6281 59.8453 72.7508 60.048C72.8788 60.2453 73.0574 60.344 73.2868 60.344C73.5214 60.344 73.7054 60.2293 73.8388 60C73.9721 59.7707 74.0388 59.4773 74.0388 59.12C74.0388 58.72 74.0174 58.464 73.9748 58.352ZM76.2919 57.296C76.5746 57.296 76.8439 57.3787 77.0999 57.544C77.3559 57.7093 77.4839 57.9147 77.4839 58.16C77.4839 58.4 77.3799 58.6347 77.1719 58.864C76.9639 59.088 76.6866 59.224 76.3399 59.272C76.1906 59.2933 75.9666 59.304 75.6679 59.304C75.7266 59.7573 75.8413 60.056 76.0119 60.2C76.0653 60.2587 76.1373 60.288 76.2279 60.288C76.5586 60.288 76.8359 60.184 77.0599 59.976C77.2839 59.7627 77.4439 59.656 77.5399 59.656C77.5826 59.656 77.6466 59.696 77.7319 59.776C77.8173 59.856 77.8599 59.9307 77.8599 60C77.8599 60.1387 77.6919 60.3387 77.3559 60.6C77.2066 60.7227 77.0253 60.8267 76.8119 60.912C76.6039 60.992 76.4093 61.032 76.2279 61.032C75.7639 61.032 75.4226 60.7333 75.2039 60.136C75.0653 59.768 74.9959 59.3627 74.9959 58.92C74.9959 58.4773 75.0999 58.096 75.3079 57.776C75.5159 57.456 75.8439 57.296 76.2919 57.296ZM76.3319 57.848C76.1293 57.848 75.9559 57.9627 75.8119 58.192C75.7586 58.272 75.7079 58.4533 75.6599 58.736C76.4066 58.736 76.7799 58.552 76.7799 58.184C76.7799 57.96 76.6306 57.848 76.3319 57.848ZM78.6314 60.752L78.5434 57.504C78.5434 57.4027 78.5781 57.32 78.6474 57.256C78.7168 57.192 78.7861 57.16 78.8554 57.16C79.0261 57.16 79.1248 57.232 79.1514 57.376C79.1728 57.52 79.1834 57.6693 79.1834 57.824C79.4714 57.4453 79.8314 57.256 80.2634 57.256C80.9248 57.256 81.2554 58.0107 81.2554 59.52C81.2554 59.6587 81.2554 59.8693 81.2554 60.152C81.2554 60.4293 81.2394 60.632 81.2074 60.76C81.1701 60.92 81.0554 61 80.8634 61C80.7354 61 80.6714 60.9147 80.6714 60.744L80.6794 60.296C80.6794 59.6773 80.6581 59.256 80.6154 59.032C80.5781 58.8027 80.5408 58.6213 80.5034 58.488C80.4128 58.2 80.2661 58.056 80.0634 58.056C79.7968 58.056 79.6101 58.152 79.5034 58.344C79.3861 58.552 79.3168 58.7973 79.2954 59.08C79.2581 59.576 79.2394 60.1013 79.2394 60.656C79.2394 60.7627 79.1994 60.848 79.1194 60.912C79.0394 60.976 78.9434 61.008 78.8314 61.008C78.6981 61.008 78.6314 60.9227 78.6314 60.752ZM82.4726 55.944C82.5686 55.944 82.6593 55.9893 82.7446 56.08C82.83 56.1707 82.8726 56.2667 82.8726 56.368C82.8726 56.464 82.8246 56.5627 82.7286 56.664C82.638 56.7653 82.542 56.816 82.4406 56.816C82.3393 56.816 82.246 56.7733 82.1606 56.688C82.0806 56.6027 82.0406 56.4933 82.0406 56.36C82.0406 56.104 82.1793 55.9653 82.4566 55.944C82.462 55.944 82.4673 55.944 82.4726 55.944ZM82.8086 60.136L82.8166 60.696C82.8166 60.7973 82.7766 60.8827 82.6966 60.952C82.6166 61.016 82.5313 61.048 82.4406 61.048C82.3073 61.048 82.238 60.9813 82.2326 60.848C82.1633 59.1467 82.1286 58.2053 82.1286 58.024C82.1286 57.8427 82.1366 57.6213 82.1526 57.36C82.1633 57.264 82.2246 57.216 82.3366 57.216C82.6193 57.216 82.7793 57.3307 82.8166 57.56C82.8326 57.6773 82.8406 57.7707 82.8406 57.84L82.8086 58.344V60.136ZM84.0377 60.752L83.9497 57.504C83.9497 57.4027 83.9844 57.32 84.0537 57.256C84.123 57.192 84.1924 57.16 84.2617 57.16C84.4324 57.16 84.531 57.232 84.5577 57.376C84.579 57.52 84.5897 57.6693 84.5897 57.824C84.8777 57.4453 85.2377 57.256 85.6697 57.256C86.331 57.256 86.6617 58.0107 86.6617 59.52C86.6617 59.6587 86.6617 59.8693 86.6617 60.152C86.6617 60.4293 86.6457 60.632 86.6137 60.76C86.5764 60.92 86.4617 61 86.2697 61C86.1417 61 86.0777 60.9147 86.0777 60.744L86.0857 60.296C86.0857 59.6773 86.0644 59.256 86.0217 59.032C85.9844 58.8027 85.947 58.6213 85.9097 58.488C85.819 58.2 85.6724 58.056 85.4697 58.056C85.203 58.056 85.0164 58.152 84.9097 58.344C84.7924 58.552 84.723 58.7973 84.7017 59.08C84.6644 59.576 84.6457 60.1013 84.6457 60.656C84.6457 60.7627 84.6057 60.848 84.5257 60.912C84.4457 60.976 84.3497 61.008 84.2377 61.008C84.1044 61.008 84.0377 60.9227 84.0377 60.752ZM89.6469 60.672C89.4549 60.896 89.2122 61.008 88.9189 61.008C88.6255 61.008 88.3722 60.9173 88.1589 60.736C87.7109 60.3893 87.4869 59.8587 87.4869 59.144C87.4869 58.584 87.6415 58.136 87.9509 57.8C88.2602 57.4587 88.6415 57.288 89.0949 57.288C89.5482 57.288 89.8575 57.4427 90.0229 57.752C90.1669 58.024 90.2389 58.4347 90.2389 58.984L90.2229 59.64C90.2229 59.9493 90.2362 60.3787 90.2629 60.928C90.2949 61.472 90.3109 61.8827 90.3109 62.16C90.3109 62.6187 90.1962 62.9547 89.9669 63.168C89.7429 63.3867 89.3989 63.496 88.9349 63.496C88.6575 63.496 88.3749 63.4373 88.0869 63.32C87.7989 63.2027 87.6549 63.0667 87.6549 62.912C87.6549 62.8 87.6842 62.7147 87.7429 62.656C87.8069 62.5973 87.8789 62.568 87.9589 62.568C88.0389 62.568 88.2175 62.6267 88.4949 62.744C88.7775 62.8613 88.9802 62.92 89.1029 62.92C89.4869 62.92 89.6789 62.6053 89.6789 61.976C89.6789 61.3467 89.6682 60.912 89.6469 60.672ZM89.6389 58.984C89.6389 58.5947 89.5802 58.3227 89.4629 58.168C89.3509 58.008 89.1722 57.928 88.9269 57.928C88.6815 57.928 88.4842 58.04 88.3349 58.264C88.1855 58.488 88.1109 58.7733 88.1109 59.12C88.1109 59.4613 88.1802 59.7333 88.3189 59.936C88.4629 60.1387 88.6815 60.24 88.9749 60.24C89.2682 60.24 89.4575 60.1147 89.5429 59.864C89.6069 59.6613 89.6389 59.368 89.6389 58.984ZM92.8051 55.808L96.0451 55.76C96.1998 55.808 96.2771 55.8853 96.2771 55.992C96.2771 56.2587 96.1678 56.392 95.9491 56.392C95.5491 56.392 95.1251 56.4027 94.6771 56.424C94.6505 56.8827 94.6371 57.2293 94.6371 57.464C94.6371 57.6933 94.6371 57.84 94.6371 57.904L94.6691 60.712C94.6691 60.8773 94.6265 60.9733 94.5411 61C94.4771 61.0213 94.3971 61.032 94.3011 61.032C94.1465 61.032 94.0611 60.944 94.0451 60.768C94.0131 60.3573 93.9971 59.592 93.9971 58.472C93.9971 57.3467 94.0131 56.6693 94.0451 56.44C93.9331 56.4453 93.7678 56.448 93.5491 56.448C93.3305 56.448 93.0585 56.4453 92.7331 56.44C92.6478 56.44 92.5811 56.4133 92.5331 56.36C92.4851 56.3067 92.4611 56.2427 92.4611 56.168C92.4611 56.088 92.4931 56.0107 92.5571 55.936C92.6265 55.8613 92.7091 55.8187 92.8051 55.808ZM99.0513 57.304C99.1206 57.304 99.1873 57.328 99.2513 57.376C99.3206 57.424 99.3553 57.4773 99.3553 57.536C99.3553 57.6907 99.1286 58.528 98.6753 60.048C98.222 61.568 97.886 62.6347 97.6673 63.248C97.6193 63.392 97.5446 63.464 97.4433 63.464C97.342 63.464 97.262 63.4267 97.2033 63.352C97.1446 63.2827 97.1153 63.1787 97.1153 63.04C97.1153 62.9013 97.2033 62.568 97.3793 62.04C97.5606 61.5173 97.67 61.184 97.7073 61.04C97.574 60.816 97.1233 59.696 96.3553 57.68C96.3446 57.6533 96.3393 57.6187 96.3393 57.576C96.3393 57.5333 96.3713 57.4773 96.4353 57.408C96.4993 57.3387 96.5873 57.304 96.6993 57.304C96.8113 57.304 96.902 57.36 96.9713 57.472C97.046 57.664 97.1686 58 97.3393 58.48C97.51 58.9547 97.6406 59.2987 97.7313 59.512C97.8273 59.7253 97.918 59.9467 98.0033 60.176C98.078 59.9253 98.206 59.44 98.3873 58.72C98.5686 57.9947 98.6726 57.5813 98.6993 57.48C98.7206 57.3627 98.838 57.304 99.0513 57.304ZM101.146 60.992C100.965 60.992 100.797 60.9307 100.642 60.808C100.642 60.808 100.607 60.7787 100.538 60.72V63.12C100.506 63.2267 100.45 63.3147 100.37 63.384C100.29 63.4587 100.205 63.496 100.114 63.496C99.9755 63.496 99.9061 63.4027 99.9061 63.216V57.64C99.9381 57.5013 99.9755 57.4027 100.018 57.344C100.066 57.2853 100.138 57.256 100.234 57.256C100.335 57.256 100.399 57.28 100.426 57.328C100.458 57.3707 100.495 57.4933 100.538 57.696C100.559 57.5893 100.645 57.4907 100.794 57.4C100.943 57.3093 101.143 57.264 101.394 57.264C101.938 57.264 102.325 57.4613 102.554 57.856C102.783 58.2507 102.898 58.7173 102.898 59.256C102.898 59.7893 102.741 60.2133 102.426 60.528C102.117 60.8373 101.69 60.992 101.146 60.992ZM100.538 58.592V60.08C100.57 60.096 100.607 60.1227 100.65 60.16C100.805 60.2987 100.973 60.368 101.154 60.368C101.89 60.368 102.258 59.9893 102.258 59.232C102.258 58.5867 102.093 58.1787 101.762 58.008C101.623 57.9333 101.453 57.896 101.25 57.896C101.053 57.9227 100.885 58.0107 100.746 58.16C100.607 58.304 100.538 58.448 100.538 58.592ZM104.456 57.296C104.739 57.296 105.008 57.3787 105.264 57.544C105.52 57.7093 105.648 57.9147 105.648 58.16C105.648 58.4 105.544 58.6347 105.336 58.864C105.128 59.088 104.851 59.224 104.504 59.272C104.355 59.2933 104.131 59.304 103.832 59.304C103.891 59.7573 104.005 60.056 104.176 60.2C104.229 60.2587 104.301 60.288 104.392 60.288C104.723 60.288 105 60.184 105.224 59.976C105.448 59.7627 105.608 59.656 105.704 59.656C105.747 59.656 105.811 59.696 105.896 59.776C105.981 59.856 106.024 59.9307 106.024 60C106.024 60.1387 105.856 60.3387 105.52 60.6C105.371 60.7227 105.189 60.8267 104.976 60.912C104.768 60.992 104.573 61.032 104.392 61.032C103.928 61.032 103.587 60.7333 103.368 60.136C103.229 59.768 103.16 59.3627 103.16 58.92C103.16 58.4773 103.264 58.096 103.472 57.776C103.68 57.456 104.008 57.296 104.456 57.296ZM104.496 57.848C104.293 57.848 104.12 57.9627 103.976 58.192C103.923 58.272 103.872 58.4533 103.824 58.736C104.571 58.736 104.944 58.552 104.944 58.184C104.944 57.96 104.795 57.848 104.496 57.848ZM110.719 55.768C111.077 55.768 111.471 55.8373 111.903 55.976C111.999 56.0507 112.047 56.1333 112.047 56.224C112.047 56.3093 112.002 56.3867 111.911 56.456C111.826 56.52 111.727 56.552 111.615 56.552C111.327 56.4773 111.058 56.44 110.807 56.44C110.231 56.44 109.794 56.6107 109.495 56.952C109.197 57.2933 109.047 57.8 109.047 58.472C109.047 59.144 109.223 59.6693 109.575 60.048C109.757 60.2453 109.973 60.344 110.223 60.344C110.474 60.344 110.874 60.2107 111.423 59.944C111.615 59.8533 111.743 59.808 111.807 59.808C111.946 59.808 112.015 59.88 112.015 60.024C112.015 60.168 111.949 60.288 111.815 60.384C111.357 60.624 110.999 60.7867 110.743 60.872C110.487 60.952 110.266 60.992 110.079 60.992C109.695 60.992 109.367 60.8507 109.095 60.568C108.61 60.0453 108.367 59.3333 108.367 58.432C108.367 57.5253 108.597 56.856 109.055 56.424C109.519 55.9867 110.074 55.768 110.719 55.768ZM114.95 57.264C115.185 57.264 115.302 57.464 115.302 57.864C115.302 57.9067 115.302 57.952 115.302 58L115.286 58.56C115.281 58.736 115.278 58.9093 115.278 59.08L115.398 60.888C115.398 61.0213 115.262 61.088 114.99 61.088C114.974 61.088 114.934 61.088 114.87 61.088C114.811 61.088 114.769 61.064 114.742 61.016C114.721 60.968 114.718 60.9093 114.734 60.84C114.755 60.7707 114.75 60.6933 114.718 60.608C114.473 60.8693 114.147 61 113.742 61C112.99 61 112.614 60.4187 112.614 59.256C112.614 58.6107 112.734 58.1227 112.974 57.792C113.219 57.4613 113.569 57.296 114.022 57.296C114.235 57.296 114.449 57.3333 114.662 57.408C114.731 57.312 114.827 57.264 114.95 57.264ZM114.118 57.992C113.814 57.992 113.587 58.08 113.438 58.256C113.289 58.432 113.214 58.7547 113.214 59.224C113.214 60.0133 113.427 60.408 113.854 60.408C113.966 60.408 114.089 60.3573 114.222 60.256C114.361 60.1547 114.457 60.04 114.51 59.912C114.611 59.624 114.662 59.3093 114.662 58.968C114.662 58.6267 114.619 58.3787 114.534 58.224C114.454 58.0693 114.315 57.992 114.118 57.992ZM115.987 58.28C115.987 57.9653 116.099 57.7147 116.323 57.528C116.547 57.3413 116.806 57.248 117.099 57.248C117.398 57.248 117.683 57.3013 117.955 57.408C118.227 57.5147 118.363 57.656 118.363 57.832C118.363 57.9227 118.328 57.9947 118.259 58.048C118.19 58.1013 118.128 58.128 118.075 58.128C118.027 58.128 117.987 58.128 117.955 58.128C117.928 58.1227 117.822 58.072 117.635 57.976C117.454 57.88 117.286 57.832 117.131 57.832C116.976 57.832 116.843 57.872 116.731 57.952C116.624 58.0267 116.571 58.1387 116.571 58.288C116.571 58.4373 116.632 58.5547 116.755 58.64C116.883 58.7253 117.104 58.8 117.419 58.864C117.734 58.9227 117.974 59.008 118.139 59.12C118.31 59.232 118.395 59.44 118.395 59.744C118.395 60.1867 118.278 60.5013 118.043 60.688C117.814 60.8693 117.534 60.96 117.203 60.96C116.872 60.96 116.59 60.9147 116.355 60.824C116.126 60.7333 116.011 60.5973 116.011 60.416C116.011 60.208 116.115 60.104 116.323 60.104C116.376 60.104 116.494 60.1413 116.675 60.216C116.856 60.2907 117.035 60.328 117.211 60.328C117.392 60.328 117.528 60.272 117.619 60.16C117.715 60.0427 117.763 59.9093 117.763 59.76C117.763 59.6107 117.702 59.504 117.579 59.44C117.456 59.3707 117.27 59.3147 117.019 59.272C116.768 59.2293 116.584 59.184 116.467 59.136C116.147 59.008 115.987 58.7227 115.987 58.28ZM119.129 57.264L119.529 57.272C119.62 57.272 119.67 57.2693 119.681 57.264V55.624C119.686 55.5333 119.732 55.456 119.817 55.392C119.902 55.328 119.982 55.296 120.057 55.296C120.132 55.296 120.19 55.32 120.233 55.368C120.281 55.416 120.302 55.4907 120.297 55.592C120.292 55.6933 120.289 56.248 120.289 57.256L121.225 57.224C121.385 57.224 121.465 57.3173 121.465 57.504C121.465 57.6427 121.422 57.7467 121.337 57.816C121.257 57.8853 121.169 57.9227 121.073 57.928C120.982 57.9333 120.892 57.936 120.801 57.936L120.313 57.928C120.313 58.1467 120.334 58.5787 120.377 59.224C120.425 59.8693 120.462 60.288 120.489 60.48C120.516 60.6667 120.521 60.7893 120.505 60.848C120.489 60.9013 120.46 60.9387 120.417 60.96C120.348 60.992 120.254 61.008 120.137 61.008C120.02 61.008 119.95 60.944 119.929 60.816C119.822 60.1173 119.75 59.1573 119.713 57.936C119.665 57.9413 119.481 57.944 119.161 57.944C118.841 57.944 118.681 57.8507 118.681 57.664C118.681 57.3973 118.83 57.264 119.129 57.264ZM122.207 55.944C122.303 55.944 122.394 55.9893 122.479 56.08C122.564 56.1707 122.607 56.2667 122.607 56.368C122.607 56.464 122.559 56.5627 122.463 56.664C122.372 56.7653 122.276 56.816 122.175 56.816C122.074 56.816 121.98 56.7733 121.895 56.688C121.815 56.6027 121.775 56.4933 121.775 56.36C121.775 56.104 121.914 55.9653 122.191 55.944C122.196 55.944 122.202 55.944 122.207 55.944ZM122.543 60.136L122.551 60.696C122.551 60.7973 122.511 60.8827 122.431 60.952C122.351 61.016 122.266 61.048 122.175 61.048C122.042 61.048 121.972 60.9813 121.967 60.848C121.898 59.1467 121.863 58.2053 121.863 58.024C121.863 57.8427 121.871 57.6213 121.887 57.36C121.898 57.264 121.959 57.216 122.071 57.216C122.354 57.216 122.514 57.3307 122.551 57.56C122.567 57.6773 122.575 57.7707 122.575 57.84L122.543 58.344V60.136ZM123.772 60.752L123.684 57.504C123.684 57.4027 123.719 57.32 123.788 57.256C123.857 57.192 123.927 57.16 123.996 57.16C124.167 57.16 124.265 57.232 124.292 57.376C124.313 57.52 124.324 57.6693 124.324 57.824C124.612 57.4453 124.972 57.256 125.404 57.256C126.065 57.256 126.396 58.0107 126.396 59.52C126.396 59.6587 126.396 59.8693 126.396 60.152C126.396 60.4293 126.38 60.632 126.348 60.76C126.311 60.92 126.196 61 126.004 61C125.876 61 125.812 60.9147 125.812 60.744L125.82 60.296C125.82 59.6773 125.799 59.256 125.756 59.032C125.719 58.8027 125.681 58.6213 125.644 58.488C125.553 58.2 125.407 58.056 125.204 58.056C124.937 58.056 124.751 58.152 124.644 58.344C124.527 58.552 124.457 58.7973 124.436 59.08C124.399 59.576 124.38 60.1013 124.38 60.656C124.38 60.7627 124.34 60.848 124.26 60.912C124.18 60.976 124.084 61.008 123.972 61.008C123.839 61.008 123.772 60.9227 123.772 60.752ZM129.381 60.672C129.189 60.896 128.947 61.008 128.653 61.008C128.36 61.008 128.107 60.9173 127.893 60.736C127.445 60.3893 127.221 59.8587 127.221 59.144C127.221 58.584 127.376 58.136 127.685 57.8C127.995 57.4587 128.376 57.288 128.829 57.288C129.283 57.288 129.592 57.4427 129.757 57.752C129.901 58.024 129.973 58.4347 129.973 58.984L129.957 59.64C129.957 59.9493 129.971 60.3787 129.997 60.928C130.029 61.472 130.045 61.8827 130.045 62.16C130.045 62.6187 129.931 62.9547 129.701 63.168C129.477 63.3867 129.133 63.496 128.669 63.496C128.392 63.496 128.109 63.4373 127.821 63.32C127.533 63.2027 127.389 63.0667 127.389 62.912C127.389 62.8 127.419 62.7147 127.477 62.656C127.541 62.5973 127.613 62.568 127.693 62.568C127.773 62.568 127.952 62.6267 128.229 62.744C128.512 62.8613 128.715 62.92 128.837 62.92C129.221 62.92 129.413 62.6053 129.413 61.976C129.413 61.3467 129.403 60.912 129.381 60.672ZM129.373 58.984C129.373 58.5947 129.315 58.3227 129.197 58.168C129.085 58.008 128.907 57.928 128.661 57.928C128.416 57.928 128.219 58.04 128.069 58.264C127.92 58.488 127.845 58.7733 127.845 59.12C127.845 59.4613 127.915 59.7333 128.053 59.936C128.197 60.1387 128.416 60.24 128.709 60.24C129.003 60.24 129.192 60.1147 129.277 59.864C129.341 59.6613 129.373 59.368 129.373 58.984Z" fill="#ED254E"/>
<g filter="url(#filter1_d_44_233)">
<path d="M24 25L26.5 26.4434V23.5566L24 25ZM172.5 24.75C172.362 24.75 172.25 24.8619 172.25 25C172.25 25.1381 172.362 25.25 172.5 25.25V24.75ZM169.5 25.25C169.638 25.25 169.75 25.1381 169.75 25C169.75 24.8619 169.638 24.75 169.5 24.75V25.25ZM166.5 24.75C166.362 24.75 166.25 24.8619 166.25 25C166.25 25.1381 166.362 25.25 166.5 25.25V24.75ZM163.5 25.25C163.638 25.25 163.75 25.1381 163.75 25C163.75 24.8619 163.638 24.75 163.5 24.75V25.25ZM160.5 24.75C160.362 24.75 160.25 24.8619 160.25 25C160.25 25.1381 160.362 25.25 160.5 25.25V24.75ZM157.5 25.25C157.638 25.25 157.75 25.1381 157.75 25C157.75 24.8619 157.638 24.75 157.5 24.75V25.25ZM154.5 24.75C154.362 24.75 154.25 24.8619 154.25 25C154.25 25.1381 154.362 25.25 154.5 25.25V24.75ZM151.5 25.25C151.638 25.25 151.75 25.1381 151.75 25C151.75 24.8619 151.638 24.75 151.5 24.75V25.25ZM148.5 24.75C148.362 24.75 148.25 24.8619 148.25 25C148.25 25.1381 148.362 25.25 148.5 25.25V24.75ZM145.5 25.25C145.638 25.25 145.75 25.1381 145.75 25C145.75 24.8619 145.638 24.75 145.5 24.75V25.25ZM142.5 24.75C142.362 24.75 142.25 24.8619 142.25 25C142.25 25.1381 142.362 25.25 142.5 25.25V24.75ZM139.5 25.25C139.638 25.25 139.75 25.1381 139.75 25C139.75 24.8619 139.638 24.75 139.5 24.75V25.25ZM136.5 24.75C136.362 24.75 136.25 24.8619 136.25 25C136.25 25.1381 136.362 25.25 136.5 25.25V24.75ZM133.5 25.25C133.638 25.25 133.75 25.1381 133.75 25C133.75 24.8619 133.638 24.75 133.5 24.75V25.25ZM130.5 24.75C130.362 24.75 130.25 24.8619 130.25 25C130.25 25.1381 130.362 25.25 130.5 25.25V24.75ZM127.5 25.25C127.638 25.25 127.75 25.1381 127.75 25C127.75 24.8619 127.638 24.75 127.5 24.75V25.25ZM124.5 24.75C124.362 24.75 124.25 24.8619 124.25 25C124.25 25.1381 124.362 25.25 124.5 25.25V24.75ZM121.5 25.25C121.638 25.25 121.75 25.1381 121.75 25C121.75 24.8619 121.638 24.75 121.5 24.75V25.25ZM118.5 24.75C118.362 24.75 118.25 24.8619 118.25 25C118.25 25.1381 118.362 25.25 118.5 25.25V24.75ZM115.5 25.25C115.638 25.25 115.75 25.1381 115.75 25C115.75 24.8619 115.638 24.75 115.5 24.75V25.25ZM112.5 24.75C112.362 24.75 112.25 24.8619 112.25 25C112.25 25.1381 112.362 25.25 112.5 25.25V24.75ZM109.5 25.25C109.638 25.25 109.75 25.1381 109.75 25C109.75 24.8619 109.638 24.75 109.5 24.75V25.25ZM106.5 24.75C106.362 24.75 106.25 24.8619 106.25 25C106.25 25.1381 106.362 25.25 106.5 25.25V24.75ZM103.5 25.25C103.638 25.25 103.75 25.1381 103.75 25C103.75 24.8619 103.638 24.75 103.5 24.75V25.25ZM100.5 24.75C100.362 24.75 100.25 24.8619 100.25 25C100.25 25.1381 100.362 25.25 100.5 25.25V24.75ZM97.5 25.25C97.6381 25.25 97.75 25.1381 97.75 25C97.75 24.8619 97.6381 24.75 97.5 24.75V25.25ZM94.5 24.75C94.3619 24.75 94.25 24.8619 94.25 25C94.25 25.1381 94.3619 25.25 94.5 25.25V24.75ZM91.5 25.25C91.6381 25.25 91.75 25.1381 91.75 25C91.75 24.8619 91.6381 24.75 91.5 24.75V25.25ZM88.5 24.75C88.3619 24.75 88.25 24.8619 88.25 25C88.25 25.1381 88.3619 25.25 88.5 25.25V24.75ZM85.5 25.25C85.6381 25.25 85.75 25.1381 85.75 25C85.75 24.8619 85.6381 24.75 85.5 24.75V25.25ZM82.5 24.75C82.3619 24.75 82.25 24.8619 82.25 25C82.25 25.1381 82.3619 25.25 82.5 25.25V24.75ZM79.5 25.25C79.6381 25.25 79.75 25.1381 79.75 25C79.75 24.8619 79.6381 24.75 79.5 24.75V25.25ZM76.5 24.75C76.3619 24.75 76.25 24.8619 76.25 25C76.25 25.1381 76.3619 25.25 76.5 25.25V24.75ZM73.5 25.25C73.6381 25.25 73.75 25.1381 73.75 25C73.75 24.8619 73.6381 24.75 73.5 24.75V25.25ZM70.5 24.75C70.3619 24.75 70.25 24.8619 70.25 25C70.25 25.1381 70.3619 25.25 70.5 25.25V24.75ZM67.5 25.25C67.6381 25.25 67.75 25.1381 67.75 25C67.75 24.8619 67.6381 24.75 67.5 24.75V25.25ZM64.5 24.75C64.3619 24.75 64.25 24.8619 64.25 25C64.25 25.1381 64.3619 25.25 64.5 25.25V24.75ZM61.5 25.25C61.6381 25.25 61.75 25.1381 61.75 25C61.75 24.8619 61.6381 24.75 61.5 24.75V25.25ZM58.5 24.75C58.3619 24.75 58.25 24.8619 58.25 25C58.25 25.1381 58.3619 25.25 58.5 25.25V24.75ZM55.5 25.25C55.6381 25.25 55.75 25.1381 55.75 25C55.75 24.8619 55.6381 24.75 55.5 24.75V25.25ZM52.5 24.75C52.3619 24.75 52.25 24.8619 52.25 25C52.25 25.1381 52.3619 25.25 52.5 25.25V24.75ZM49.5 25.25C49.6381 25.25 49.75 25.1381 49.75 25C49.75 24.8619 49.6381 24.75 49.5 24.75V25.25ZM46.5 24.75C46.3619 24.75 46.25 24.8619 46.25 25C46.25 25.1381 46.3619 25.25 46.5 25.25V24.75ZM43.5 25.25C43.6381 25.25 43.75 25.1381 43.75 25C43.75 24.8619 43.6381 24.75 43.5 24.75V25.25ZM40.5 24.75C40.3619 24.75 40.25 24.8619 40.25 25C40.25 25.1381 40.3619 25.25 40.5 25.25V24.75ZM37.5 25.25C37.6381 25.25 37.75 25.1381 37.75 25C37.75 24.8619 37.6381 24.75 37.5 24.75V25.25ZM34.5 24.75C34.3619 24.75 34.25 24.8619 34.25 25C34.25 25.1381 34.3619 25.25 34.5 25.25V24.75ZM31.5 25.25C31.6381 25.25 31.75 25.1381 31.75 25C31.75 24.8619 31.6381 24.75 31.5 24.75V25.25ZM28.5 24.75C28.3619 24.75 28.25 24.8619 28.25 25C28.25 25.1381 28.3619 25.25 28.5 25.25V24.75ZM25.5 25.25C25.6381 25.25 25.75 25.1381 25.75 25C25.75 24.8619 25.6381 24.75 25.5 24.75V25.25ZM174 24.75H172.5V25.25H174V24.75ZM169.5 24.75H166.5V25.25H169.5V24.75ZM163.5 24.75H160.5V25.25H163.5V24.75ZM157.5 24.75H154.5V25.25H157.5V24.75ZM151.5 24.75H148.5V25.25H151.5V24.75ZM145.5 24.75H142.5V25.25H145.5V24.75ZM139.5 24.75H136.5V25.25H139.5V24.75ZM133.5 24.75L130.5 24.75V25.25L133.5 25.25V24.75ZM127.5 24.75H124.5V25.25H127.5V24.75ZM121.5 24.75H118.5V25.25H121.5V24.75ZM115.5 24.75H112.5V25.25H115.5V24.75ZM109.5 24.75H106.5V25.25H109.5V24.75ZM103.5 24.75L100.5 24.75V25.25L103.5 25.25V24.75ZM97.5 24.75H94.5V25.25H97.5V24.75ZM91.5 24.75H88.5V25.25H91.5V24.75ZM85.5 24.75H82.5V25.25H85.5V24.75ZM79.5 24.75H76.5V25.25H79.5V24.75ZM73.5 24.75L70.5 24.75V25.25L73.5 25.25V24.75ZM67.5 24.75H64.5V25.25H67.5V24.75ZM61.5 24.75H58.5V25.25H61.5V24.75ZM55.5 24.75H52.5V25.25H55.5V24.75ZM49.5 24.75H46.5V25.25H49.5V24.75ZM43.5 24.75L40.5 24.75V25.25L43.5 25.25V24.75ZM37.5 24.75H34.5V25.25H37.5V24.75ZM31.5 24.75H28.5V25.25H31.5V24.75ZM24 25L29 27.8868V22.1132L24 25ZM172.5 24.5C172.224 24.5 172 24.7239 172 25C172 25.2761 172.224 25.5 172.5 25.5V24.5ZM169.5 25.5C169.776 25.5 170 25.2761 170 25C170 24.7239 169.776 24.5 169.5 24.5V25.5ZM166.5 24.5C166.224 24.5 166 24.7239 166 25C166 25.2761 166.224 25.5 166.5 25.5V24.5ZM163.5 25.5C163.776 25.5 164 25.2761 164 25C164 24.7239 163.776 24.5 163.5 24.5V25.5ZM160.5 24.5C160.224 24.5 160 24.7239 160 25C160 25.2761 160.224 25.5 160.5 25.5V24.5ZM157.5 25.5C157.776 25.5 158 25.2761 158 25C158 24.7239 157.776 24.5 157.5 24.5V25.5ZM154.5 24.5C154.224 24.5 154 24.7239 154 25C154 25.2761 154.224 25.5 154.5 25.5V24.5ZM151.5 25.5C151.776 25.5 152 25.2761 152 25C152 24.7239 151.776 24.5 151.5 24.5V25.5ZM148.5 24.5C148.224 24.5 148 24.7239 148 25C148 25.2761 148.224 25.5 148.5 25.5V24.5ZM145.5 25.5C145.776 25.5 146 25.2761 146 25C146 24.7239 145.776 24.5 145.5 24.5V25.5ZM142.5 24.5C142.224 24.5 142 24.7239 142 25C142 25.2761 142.224 25.5 142.5 25.5V24.5ZM139.5 25.5C139.776 25.5 140 25.2761 140 25C140 24.7239 139.776 24.5 139.5 24.5V25.5ZM136.5 24.5C136.224 24.5 136 24.7239 136 25C136 25.2761 136.224 25.5 136.5 25.5V24.5ZM133.5 25.5C133.776 25.5 134 25.2761 134 25C134 24.7239 133.776 24.5 133.5 24.5V25.5ZM130.5 24.5C130.224 24.5 130 24.7239 130 25C130 25.2761 130.224 25.5 130.5 25.5V24.5ZM127.5 25.5C127.776 25.5 128 25.2761 128 25C128 24.7239 127.776 24.5 127.5 24.5V25.5ZM124.5 24.5C124.224 24.5 124 24.7239 124 25C124 25.2761 124.224 25.5 124.5 25.5V24.5ZM121.5 25.5C121.776 25.5 122 25.2761 122 25C122 24.7239 121.776 24.5 121.5 24.5V25.5ZM118.5 24.5C118.224 24.5 118 24.7239 118 25C118 25.2761 118.224 25.5 118.5 25.5V24.5ZM115.5 25.5C115.776 25.5 116 25.2761 116 25C116 24.7239 115.776 24.5 115.5 24.5V25.5ZM112.5 24.5C112.224 24.5 112 24.7239 112 25C112 25.2761 112.224 25.5 112.5 25.5V24.5ZM109.5 25.5C109.776 25.5 110 25.2761 110 25C110 24.7239 109.776 24.5 109.5 24.5V25.5ZM106.5 24.5C106.224 24.5 106 24.7239 106 25C106 25.2761 106.224 25.5 106.5 25.5V24.5ZM103.5 25.5C103.776 25.5 104 25.2761 104 25C104 24.7239 103.776 24.5 103.5 24.5V25.5ZM100.5 24.5C100.224 24.5 100 24.7239 100 25C100 25.2761 100.224 25.5 100.5 25.5V24.5ZM97.5 25.5C97.7761 25.5 98 25.2761 98 25C98 24.7239 97.7761 24.5 97.5 24.5V25.5ZM94.5 24.5C94.2239 24.5 94 24.7239 94 25C94 25.2761 94.2239 25.5 94.5 25.5V24.5ZM91.5 25.5C91.7761 25.5 92 25.2761 92 25C92 24.7239 91.7761 24.5 91.5 24.5V25.5ZM88.5 24.5C88.2239 24.5 88 24.7239 88 25C88 25.2761 88.2239 25.5 88.5 25.5V24.5ZM85.5 25.5C85.7761 25.5 86 25.2761 86 25C86 24.7239 85.7761 24.5 85.5 24.5V25.5ZM82.5 24.5C82.2239 24.5 82 24.7239 82 25C82 25.2761 82.2239 25.5 82.5 25.5V24.5ZM79.5 25.5C79.7761 25.5 80 25.2761 80 25C80 24.7239 79.7761 24.5 79.5 24.5V25.5ZM76.5 24.5C76.2239 24.5 76 24.7239 76 25C76 25.2761 76.2239 25.5 76.5 25.5V24.5ZM73.5 25.5C73.7761 25.5 74 25.2761 74 25C74 24.7239 73.7761 24.5 73.5 24.5V25.5ZM70.5 24.5C70.2239 24.5 70 24.7239 70 25C70 25.2761 70.2239 25.5 70.5 25.5V24.5ZM67.5 25.5C67.7761 25.5 68 25.2761 68 25C68 24.7239 67.7761 24.5 67.5 24.5V25.5ZM64.5 24.5C64.2239 24.5 64 24.7239 64 25C64 25.2761 64.2239 25.5 64.5 25.5V24.5ZM61.5 25.5C61.7761 25.5 62 25.2761 62 25C62 24.7239 61.7761 24.5 61.5 24.5V25.5ZM58.5 24.5C58.2239 24.5 58 24.7239 58 25C58 25.2761 58.2239 25.5 58.5 25.5V24.5ZM55.5 25.5C55.7761 25.5 56 25.2761 56 25C56 24.7239 55.7761 24.5 55.5 24.5V25.5ZM52.5 24.5C52.2239 24.5 52 24.7239 52 25C52 25.2761 52.2239 25.5 52.5 25.5V24.5ZM49.5 25.5C49.7761 25.5 50 25.2761 50 25C50 24.7239 49.7761 24.5 49.5 24.5V25.5ZM46.5 24.5C46.2239 24.5 46 24.7239 46 25C46 25.2761 46.2239 25.5 46.5 25.5V24.5ZM43.5 25.5C43.7761 25.5 44 25.2761 44 25C44 24.7239 43.7761 24.5 43.5 24.5V25.5ZM40.5 24.5C40.2239 24.5 40 24.7239 40 25C40 25.2761 40.2239 25.5 40.5 25.5V24.5ZM37.5 25.5C37.7761 25.5 38 25.2761 38 25C38 24.7239 37.7761 24.5 37.5 24.5V25.5ZM34.5 24.5C34.2239 24.5 34 24.7239 34 25C34 25.2761 34.2239 25.5 34.5 25.5V24.5ZM31.5 25.5C31.7761 25.5 32 25.2761 32 25C32 24.7239 31.7761 24.5 31.5 24.5V25.5ZM28.5 24.5C28.2239 24.5 28 24.7239 28 25C28 25.2761 28.2239 25.5 28.5 25.5V24.5ZM25.5 25.5C25.7761 25.5 26 25.2761 26 25C26 24.7239 25.7761 24.5 25.5 24.5V25.5ZM174 24.5H172.5V25.5H174V24.5ZM169.5 24.5H166.5V25.5H169.5V24.5ZM163.5 24.5H160.5V25.5H163.5V24.5ZM157.5 24.5H154.5V25.5H157.5V24.5ZM151.5 24.5H148.5V25.5H151.5V24.5ZM145.5 24.5H142.5V25.5H145.5V24.5ZM139.5 24.5H136.5V25.5H139.5V24.5ZM133.5 24.5L130.5 24.5V25.5L133.5 25.5V24.5ZM127.5 24.5H124.5V25.5H127.5V24.5ZM121.5 24.5H118.5V25.5H121.5V24.5ZM115.5 24.5H112.5V25.5H115.5V24.5ZM109.5 24.5H106.5V25.5H109.5V24.5ZM103.5 24.5L100.5 24.5V25.5L103.5 25.5V24.5ZM97.5 24.5H94.5V25.5H97.5V24.5ZM91.5 24.5H88.5V25.5H91.5V24.5ZM85.5 24.5H82.5V25.5H85.5V24.5ZM79.5 24.5H76.5V25.5H79.5V24.5ZM73.5 24.5L70.5 24.5V25.5L73.5 25.5V24.5ZM67.5 24.5H64.5V25.5H67.5V24.5ZM61.5 24.5H58.5V25.5H61.5V24.5ZM55.5 24.5H52.5V25.5H55.5V24.5ZM49.5 24.5H46.5V25.5H49.5V24.5ZM43.5 24.5L40.5 24.5V25.5L43.5 25.5V24.5ZM37.5 24.5H34.5V25.5H37.5V24.5ZM31.5 24.5H28.5V25.5H31.5V24.5Z" fill="#ED254E"/>
</g>
<path d="M66.7779 12.252C66.8313 12.22 66.9006 12.204 66.9859 12.204C67.0713 12.204 67.1486 12.2413 67.2179 12.316C67.2873 12.3853 67.3219 12.468 67.3219 12.564C67.3219 14.6493 67.3299 15.9107 67.3459 16.348C67.3673 16.78 67.3779 17.0013 67.3779 17.012C67.3779 17.1293 67.3459 17.2413 67.2819 17.348C67.2179 17.4493 67.1459 17.5 67.0659 17.5C66.9913 17.5 66.9326 17.4973 66.8899 17.492C66.8526 17.4813 66.8179 17.4707 66.7859 17.46C66.7539 17.4493 66.7219 17.428 66.6899 17.396L66.6099 17.316C66.5886 17.2947 66.5593 17.2547 66.5219 17.196C66.4899 17.132 66.4633 17.0813 66.4419 17.044C66.4206 17.0067 66.3859 16.9427 66.3379 16.852C66.2953 16.756 66.1966 16.564 66.0419 16.276C65.8926 15.988 65.7566 15.7293 65.6339 15.5C65.2126 14.7267 64.8206 14.116 64.4579 13.668C64.4579 15.4013 64.4099 16.604 64.3139 17.276C64.2979 17.404 64.1993 17.468 64.0179 17.468C63.9326 17.468 63.8606 17.4467 63.8019 17.404C63.7486 17.3613 63.7219 17.292 63.7219 17.196C63.7219 17.1 63.7406 16.572 63.7779 15.612C63.8206 14.652 63.8419 14.0547 63.8419 13.82C63.8419 13.58 63.8419 13.428 63.8419 13.364C63.8419 12.98 63.8713 12.764 63.9299 12.716C63.9886 12.668 64.0499 12.644 64.1139 12.644C64.4073 12.644 64.8553 13.124 65.4579 14.084C65.5753 14.2707 65.7993 14.6627 66.1299 15.26C66.4606 15.852 66.6579 16.2173 66.7219 16.356L66.6259 13.036C66.6259 12.5773 66.6766 12.316 66.7779 12.252ZM70.1877 13.764C70.4224 13.764 70.5397 13.964 70.5397 14.364C70.5397 14.4067 70.5397 14.452 70.5397 14.5L70.5237 15.06C70.5184 15.236 70.5157 15.4093 70.5157 15.58L70.6357 17.388C70.6357 17.5213 70.4997 17.588 70.2277 17.588C70.2117 17.588 70.1717 17.588 70.1077 17.588C70.0491 17.588 70.0064 17.564 69.9797 17.516C69.9584 17.468 69.9557 17.4093 69.9717 17.34C69.9931 17.2707 69.9877 17.1933 69.9557 17.108C69.7104 17.3693 69.3851 17.5 68.9797 17.5C68.2277 17.5 67.8517 16.9187 67.8517 15.756C67.8517 15.1107 67.9717 14.6227 68.2117 14.292C68.4571 13.9613 68.8064 13.796 69.2597 13.796C69.4731 13.796 69.6864 13.8333 69.8997 13.908C69.9691 13.812 70.0651 13.764 70.1877 13.764ZM69.3557 14.492C69.0517 14.492 68.8251 14.58 68.6757 14.756C68.5264 14.932 68.4517 15.2547 68.4517 15.724C68.4517 16.5133 68.6651 16.908 69.0917 16.908C69.2037 16.908 69.3264 16.8573 69.4597 16.756C69.5984 16.6547 69.6944 16.54 69.7477 16.412C69.8491 16.124 69.8997 15.8093 69.8997 15.468C69.8997 15.1267 69.8571 14.8787 69.7717 14.724C69.6917 14.5693 69.5531 14.492 69.3557 14.492ZM72.1205 16.332L72.1285 17.156C72.1285 17.252 72.0832 17.34 71.9925 17.42C71.9072 17.5 71.8219 17.54 71.7365 17.54C71.6139 17.54 71.5365 17.444 71.5045 17.252C71.4992 17.2093 71.4779 16.82 71.4405 16.084C71.4032 15.3427 71.3312 14.7613 71.2245 14.34C71.1765 14.1373 71.1525 14.0173 71.1525 13.98C71.1525 13.804 71.2592 13.716 71.4725 13.716C71.5632 13.716 71.6352 13.7507 71.6885 13.82C71.7419 13.8893 71.7739 13.9613 71.7845 14.036C71.8005 14.1053 71.8139 14.2013 71.8245 14.324C71.8352 14.4467 71.8432 14.524 71.8485 14.556C71.9605 14.2893 72.1285 14.0893 72.3525 13.956C72.5765 13.8227 72.8219 13.756 73.0885 13.756C73.5259 13.756 73.7445 13.868 73.7445 14.092C73.7445 14.204 73.7045 14.2947 73.6245 14.364C73.5499 14.428 73.4619 14.46 73.3605 14.46C72.9072 14.46 72.5872 14.604 72.4005 14.892C72.2139 15.18 72.1205 15.66 72.1205 16.332ZM75.1987 16.332L75.2067 17.156C75.2067 17.252 75.1613 17.34 75.0707 17.42C74.9853 17.5 74.9 17.54 74.8147 17.54C74.692 17.54 74.6147 17.444 74.5827 17.252C74.5773 17.2093 74.556 16.82 74.5187 16.084C74.4813 15.3427 74.4093 14.7613 74.3027 14.34C74.2547 14.1373 74.2307 14.0173 74.2307 13.98C74.2307 13.804 74.3373 13.716 74.5507 13.716C74.6413 13.716 74.7133 13.7507 74.7667 13.82C74.82 13.8893 74.852 13.9613 74.8627 14.036C74.8787 14.1053 74.892 14.2013 74.9027 14.324C74.9133 14.4467 74.9213 14.524 74.9267 14.556C75.0387 14.2893 75.2067 14.0893 75.4307 13.956C75.6547 13.8227 75.9 13.756 76.1667 13.756C76.604 13.756 76.8227 13.868 76.8227 14.092C76.8227 14.204 76.7827 14.2947 76.7027 14.364C76.628 14.428 76.54 14.46 76.4387 14.46C75.9853 14.46 75.6653 14.604 75.4787 14.892C75.292 15.18 75.1987 15.66 75.1987 16.332ZM78.6608 13.772C79.0448 13.772 79.3595 13.956 79.6048 14.324C79.8555 14.692 79.9808 15.1347 79.9808 15.652C79.9808 16.164 79.8528 16.6013 79.5968 16.964C79.3461 17.3267 79.0101 17.508 78.5888 17.508C78.1728 17.508 77.8368 17.324 77.5808 16.956C77.3248 16.5827 77.1968 16.1693 77.1968 15.716C77.1968 15.1347 77.3141 14.6707 77.5488 14.324C77.7995 13.956 78.1701 13.772 78.6608 13.772ZM78.5648 14.428C78.3408 14.428 78.1568 14.5453 78.0128 14.78C77.8688 15.0147 77.7968 15.2627 77.7968 15.524C77.7968 15.9293 77.8768 16.2387 78.0368 16.452C78.1968 16.6653 78.3781 16.772 78.5808 16.772C78.9435 16.772 79.1755 16.6147 79.2768 16.3C79.3195 16.1507 79.3408 15.964 79.3408 15.74C79.3408 14.8653 79.0821 14.428 78.5648 14.428ZM81.1354 17.492C80.954 17.492 80.778 17.14 80.6074 16.436C80.442 15.7267 80.3594 14.932 80.3594 14.052C80.3594 13.9613 80.3967 13.892 80.4714 13.844C80.5514 13.7907 80.6234 13.764 80.6874 13.764C80.7514 13.764 80.802 13.7853 80.8394 13.828C80.882 13.8653 80.9034 13.916 80.9034 13.98C80.9034 14.812 81.0447 15.612 81.3274 16.38C81.37 16.316 81.4367 16.188 81.5274 15.996C81.618 15.7987 81.7034 15.6547 81.7834 15.564C81.8634 15.4733 81.9594 15.428 82.0714 15.428C82.1834 15.428 82.3007 15.5107 82.4234 15.676C82.546 15.8413 82.65 16.02 82.7354 16.212C82.826 16.3987 82.8767 16.4973 82.8874 16.508C83.0314 16.06 83.1034 15.644 83.1034 15.26L83.0554 14.044C83.05 13.964 83.0874 13.8973 83.1674 13.844C83.2474 13.7853 83.3247 13.756 83.3994 13.756C83.554 13.756 83.6314 14.0573 83.6314 14.66V15.1C83.6314 15.8147 83.522 16.452 83.3034 17.012C83.186 17.332 83.0394 17.492 82.8634 17.492C82.762 17.492 82.6687 17.428 82.5834 17.3C82.498 17.1667 82.402 16.98 82.2954 16.74C82.1887 16.5 82.106 16.3347 82.0474 16.244L81.8074 16.716C81.7167 16.9027 81.6474 17.0387 81.5994 17.124C81.5514 17.204 81.4847 17.2867 81.3994 17.372C81.314 17.452 81.226 17.492 81.1354 17.492ZM84.7025 12.444C84.7985 12.444 84.8892 12.4893 84.9745 12.58C85.0598 12.6707 85.1025 12.7667 85.1025 12.868C85.1025 12.964 85.0545 13.0627 84.9585 13.164C84.8678 13.2653 84.7718 13.316 84.6705 13.316C84.5692 13.316 84.4758 13.2733 84.3905 13.188C84.3105 13.1027 84.2705 12.9933 84.2705 12.86C84.2705 12.604 84.4092 12.4653 84.6865 12.444C84.6918 12.444 84.6972 12.444 84.7025 12.444ZM85.0385 16.636L85.0465 17.196C85.0465 17.2973 85.0065 17.3827 84.9265 17.452C84.8465 17.516 84.7612 17.548 84.6705 17.548C84.5372 17.548 84.4678 17.4813 84.4625 17.348C84.3932 15.6467 84.3585 14.7053 84.3585 14.524C84.3585 14.3427 84.3665 14.1213 84.3825 13.86C84.3932 13.764 84.4545 13.716 84.5665 13.716C84.8492 13.716 85.0092 13.8307 85.0465 14.06C85.0625 14.1773 85.0705 14.2707 85.0705 14.34L85.0385 14.844V16.636ZM86.2675 17.252L86.1795 14.004C86.1795 13.9027 86.2142 13.82 86.2835 13.756C86.3529 13.692 86.4222 13.66 86.4915 13.66C86.6622 13.66 86.7609 13.732 86.7875 13.876C86.8089 14.02 86.8195 14.1693 86.8195 14.324C87.1075 13.9453 87.4675 13.756 87.8995 13.756C88.5609 13.756 88.8915 14.5107 88.8915 16.02C88.8915 16.1587 88.8915 16.3693 88.8915 16.652C88.8915 16.9293 88.8755 17.132 88.8435 17.26C88.8062 17.42 88.6915 17.5 88.4995 17.5C88.3715 17.5 88.3075 17.4147 88.3075 17.244L88.3155 16.796C88.3155 16.1773 88.2942 15.756 88.2515 15.532C88.2142 15.3027 88.1769 15.1213 88.1395 14.988C88.0489 14.7 87.9022 14.556 87.6995 14.556C87.4329 14.556 87.2462 14.652 87.1395 14.844C87.0222 15.052 86.9529 15.2973 86.9315 15.58C86.8942 16.076 86.8755 16.6013 86.8755 17.156C86.8755 17.2627 86.8355 17.348 86.7555 17.412C86.6755 17.476 86.5795 17.508 86.4675 17.508C86.3342 17.508 86.2675 17.4227 86.2675 17.252ZM91.8767 17.172C91.6847 17.396 91.4421 17.508 91.1487 17.508C90.8554 17.508 90.6021 17.4173 90.3887 17.236C89.9407 16.8893 89.7167 16.3587 89.7167 15.644C89.7167 15.084 89.8714 14.636 90.1807 14.3C90.4901 13.9587 90.8714 13.788 91.3247 13.788C91.7781 13.788 92.0874 13.9427 92.2527 14.252C92.3967 14.524 92.4687 14.9347 92.4687 15.484L92.4527 16.14C92.4527 16.4493 92.4661 16.8787 92.4927 17.428C92.5247 17.972 92.5407 18.3827 92.5407 18.66C92.5407 19.1187 92.4261 19.4547 92.1967 19.668C91.9727 19.8867 91.6287 19.996 91.1647 19.996C90.8874 19.996 90.6047 19.9373 90.3167 19.82C90.0287 19.7027 89.8847 19.5667 89.8847 19.412C89.8847 19.3 89.9141 19.2147 89.9727 19.156C90.0367 19.0973 90.1087 19.068 90.1887 19.068C90.2687 19.068 90.4474 19.1267 90.7247 19.244C91.0074 19.3613 91.2101 19.42 91.3327 19.42C91.7167 19.42 91.9087 19.1053 91.9087 18.476C91.9087 17.8467 91.8981 17.412 91.8767 17.172ZM91.8687 15.484C91.8687 15.0947 91.8101 14.8227 91.6927 14.668C91.5807 14.508 91.4021 14.428 91.1567 14.428C90.9114 14.428 90.7141 14.54 90.5647 14.764C90.4154 14.988 90.3407 15.2733 90.3407 15.62C90.3407 15.9613 90.4101 16.2333 90.5487 16.436C90.6927 16.6387 90.9114 16.74 91.2047 16.74C91.4981 16.74 91.6874 16.6147 91.7727 16.364C91.8367 16.1613 91.8687 15.868 91.8687 15.484ZM95.035 12.308L98.275 12.26C98.4297 12.308 98.507 12.3853 98.507 12.492C98.507 12.7587 98.3977 12.892 98.179 12.892C97.779 12.892 97.355 12.9027 96.907 12.924C96.8803 13.3827 96.867 13.7293 96.867 13.964C96.867 14.1933 96.867 14.34 96.867 14.404L96.899 17.212C96.899 17.3773 96.8563 17.4733 96.771 17.5C96.707 17.5213 96.627 17.532 96.531 17.532C96.3763 17.532 96.291 17.444 96.275 17.268C96.243 16.8573 96.227 16.092 96.227 14.972C96.227 13.8467 96.243 13.1693 96.275 12.94C96.163 12.9453 95.9977 12.948 95.779 12.948C95.5603 12.948 95.2883 12.9453 94.963 12.94C94.8777 12.94 94.811 12.9133 94.763 12.86C94.715 12.8067 94.691 12.7427 94.691 12.668C94.691 12.588 94.723 12.5107 94.787 12.436C94.8563 12.3613 94.939 12.3187 95.035 12.308ZM101.281 13.804C101.351 13.804 101.417 13.828 101.481 13.876C101.551 13.924 101.585 13.9773 101.585 14.036C101.585 14.1907 101.359 15.028 100.905 16.548C100.452 18.068 100.116 19.1347 99.8972 19.748C99.8492 19.892 99.7745 19.964 99.6732 19.964C99.5718 19.964 99.4918 19.9267 99.4332 19.852C99.3745 19.7827 99.3452 19.6787 99.3452 19.54C99.3452 19.4013 99.4332 19.068 99.6092 18.54C99.7905 18.0173 99.8998 17.684 99.9372 17.54C99.8038 17.316 99.3532 16.196 98.5852 14.18C98.5745 14.1533 98.5692 14.1187 98.5692 14.076C98.5692 14.0333 98.6012 13.9773 98.6652 13.908C98.7292 13.8387 98.8172 13.804 98.9292 13.804C99.0412 13.804 99.1318 13.86 99.2012 13.972C99.2758 14.164 99.3985 14.5 99.5692 14.98C99.7398 15.4547 99.8705 15.7987 99.9612 16.012C100.057 16.2253 100.148 16.4467 100.233 16.676C100.308 16.4253 100.436 15.94 100.617 15.22C100.799 14.4947 100.903 14.0813 100.929 13.98C100.951 13.8627 101.068 13.804 101.281 13.804ZM103.376 17.492C103.195 17.492 103.027 17.4307 102.872 17.308C102.872 17.308 102.837 17.2787 102.768 17.22V19.62C102.736 19.7267 102.68 19.8147 102.6 19.884C102.52 19.9587 102.435 19.996 102.344 19.996C102.205 19.996 102.136 19.9027 102.136 19.716V14.14C102.168 14.0013 102.205 13.9027 102.248 13.844C102.296 13.7853 102.368 13.756 102.464 13.756C102.565 13.756 102.629 13.78 102.656 13.828C102.688 13.8707 102.725 13.9933 102.768 14.196C102.789 14.0893 102.875 13.9907 103.024 13.9C103.173 13.8093 103.373 13.764 103.624 13.764C104.168 13.764 104.555 13.9613 104.784 14.356C105.013 14.7507 105.128 15.2173 105.128 15.756C105.128 16.2893 104.971 16.7133 104.656 17.028C104.347 17.3373 103.92 17.492 103.376 17.492ZM102.768 15.092V16.58C102.8 16.596 102.837 16.6227 102.88 16.66C103.035 16.7987 103.203 16.868 103.384 16.868C104.12 16.868 104.488 16.4893 104.488 15.732C104.488 15.0867 104.323 14.6787 103.992 14.508C103.853 14.4333 103.683 14.396 103.48 14.396C103.283 14.4227 103.115 14.5107 102.976 14.66C102.837 14.804 102.768 14.948 102.768 15.092ZM106.686 13.796C106.969 13.796 107.238 13.8787 107.494 14.044C107.75 14.2093 107.878 14.4147 107.878 14.66C107.878 14.9 107.774 15.1347 107.566 15.364C107.358 15.588 107.081 15.724 106.734 15.772C106.585 15.7933 106.361 15.804 106.062 15.804C106.121 16.2573 106.235 16.556 106.406 16.7C106.459 16.7587 106.531 16.788 106.622 16.788C106.953 16.788 107.23 16.684 107.454 16.476C107.678 16.2627 107.838 16.156 107.934 16.156C107.977 16.156 108.041 16.196 108.126 16.276C108.211 16.356 108.254 16.4307 108.254 16.5C108.254 16.6387 108.086 16.8387 107.75 17.1C107.601 17.2227 107.419 17.3267 107.206 17.412C106.998 17.492 106.803 17.532 106.622 17.532C106.158 17.532 105.817 17.2333 105.598 16.636C105.459 16.268 105.39 15.8627 105.39 15.42C105.39 14.9773 105.494 14.596 105.702 14.276C105.91 13.956 106.238 13.796 106.686 13.796ZM106.726 14.348C106.523 14.348 106.35 14.4627 106.206 14.692C106.153 14.772 106.102 14.9533 106.054 15.236C106.801 15.236 107.174 15.052 107.174 14.684C107.174 14.46 107.025 14.348 106.726 14.348ZM112.949 12.268C113.306 12.268 113.701 12.3373 114.133 12.476C114.229 12.5507 114.277 12.6333 114.277 12.724C114.277 12.8093 114.232 12.8867 114.141 12.956C114.056 13.02 113.957 13.052 113.845 13.052C113.557 12.9773 113.288 12.94 113.037 12.94C112.461 12.94 112.024 13.1107 111.725 13.452C111.426 13.7933 111.277 14.3 111.277 14.972C111.277 15.644 111.453 16.1693 111.805 16.548C111.986 16.7453 112.202 16.844 112.453 16.844C112.704 16.844 113.104 16.7107 113.653 16.444C113.845 16.3533 113.973 16.308 114.037 16.308C114.176 16.308 114.245 16.38 114.245 16.524C114.245 16.668 114.178 16.788 114.045 16.884C113.586 17.124 113.229 17.2867 112.973 17.372C112.717 17.452 112.496 17.492 112.309 17.492C111.925 17.492 111.597 17.3507 111.325 17.068C110.84 16.5453 110.597 15.8333 110.597 14.932C110.597 14.0253 110.826 13.356 111.285 12.924C111.749 12.4867 112.304 12.268 112.949 12.268ZM117.18 13.764C117.415 13.764 117.532 13.964 117.532 14.364C117.532 14.4067 117.532 14.452 117.532 14.5L117.516 15.06C117.511 15.236 117.508 15.4093 117.508 15.58L117.628 17.388C117.628 17.5213 117.492 17.588 117.22 17.588C117.204 17.588 117.164 17.588 117.1 17.588C117.041 17.588 116.999 17.564 116.972 17.516C116.951 17.468 116.948 17.4093 116.964 17.34C116.985 17.2707 116.98 17.1933 116.948 17.108C116.703 17.3693 116.377 17.5 115.972 17.5C115.22 17.5 114.844 16.9187 114.844 15.756C114.844 15.1107 114.964 14.6227 115.204 14.292C115.449 13.9613 115.799 13.796 116.252 13.796C116.465 13.796 116.679 13.8333 116.892 13.908C116.961 13.812 117.057 13.764 117.18 13.764ZM116.348 14.492C116.044 14.492 115.817 14.58 115.668 14.756C115.519 14.932 115.444 15.2547 115.444 15.724C115.444 16.5133 115.657 16.908 116.084 16.908C116.196 16.908 116.319 16.8573 116.452 16.756C116.591 16.6547 116.687 16.54 116.74 16.412C116.841 16.124 116.892 15.8093 116.892 15.468C116.892 15.1267 116.849 14.8787 116.764 14.724C116.684 14.5693 116.545 14.492 116.348 14.492ZM118.217 14.78C118.217 14.4653 118.329 14.2147 118.553 14.028C118.777 13.8413 119.035 13.748 119.329 13.748C119.627 13.748 119.913 13.8013 120.185 13.908C120.457 14.0147 120.593 14.156 120.593 14.332C120.593 14.4227 120.558 14.4947 120.489 14.548C120.419 14.6013 120.358 14.628 120.305 14.628C120.257 14.628 120.217 14.628 120.185 14.628C120.158 14.6227 120.051 14.572 119.865 14.476C119.683 14.38 119.515 14.332 119.361 14.332C119.206 14.332 119.073 14.372 118.961 14.452C118.854 14.5267 118.801 14.6387 118.801 14.788C118.801 14.9373 118.862 15.0547 118.985 15.14C119.113 15.2253 119.334 15.3 119.649 15.364C119.963 15.4227 120.203 15.508 120.369 15.62C120.539 15.732 120.625 15.94 120.625 16.244C120.625 16.6867 120.507 17.0013 120.273 17.188C120.043 17.3693 119.763 17.46 119.433 17.46C119.102 17.46 118.819 17.4147 118.585 17.324C118.355 17.2333 118.241 17.0973 118.241 16.916C118.241 16.708 118.345 16.604 118.553 16.604C118.606 16.604 118.723 16.6413 118.905 16.716C119.086 16.7907 119.265 16.828 119.441 16.828C119.622 16.828 119.758 16.772 119.849 16.66C119.945 16.5427 119.993 16.4093 119.993 16.26C119.993 16.1107 119.931 16.004 119.809 15.94C119.686 15.8707 119.499 15.8147 119.249 15.772C118.998 15.7293 118.814 15.684 118.697 15.636C118.377 15.508 118.217 15.2227 118.217 14.78ZM121.359 13.764L121.759 13.772C121.85 13.772 121.9 13.7693 121.911 13.764V12.124C121.916 12.0333 121.962 11.956 122.047 11.892C122.132 11.828 122.212 11.796 122.287 11.796C122.362 11.796 122.42 11.82 122.463 11.868C122.511 11.916 122.532 11.9907 122.527 12.092C122.522 12.1933 122.519 12.748 122.519 13.756L123.455 13.724C123.615 13.724 123.695 13.8173 123.695 14.004C123.695 14.1427 123.652 14.2467 123.567 14.316C123.487 14.3853 123.399 14.4227 123.303 14.428C123.212 14.4333 123.122 14.436 123.031 14.436L122.543 14.428C122.543 14.6467 122.564 15.0787 122.607 15.724C122.655 16.3693 122.692 16.788 122.719 16.98C122.746 17.1667 122.751 17.2893 122.735 17.348C122.719 17.4013 122.69 17.4387 122.647 17.46C122.578 17.492 122.484 17.508 122.367 17.508C122.25 17.508 122.18 17.444 122.159 17.316C122.052 16.6173 121.98 15.6573 121.943 14.436C121.895 14.4413 121.711 14.444 121.391 14.444C121.071 14.444 120.911 14.3507 120.911 14.164C120.911 13.8973 121.06 13.764 121.359 13.764ZM124.437 12.444C124.533 12.444 124.624 12.4893 124.709 12.58C124.794 12.6707 124.837 12.7667 124.837 12.868C124.837 12.964 124.789 13.0627 124.693 13.164C124.602 13.2653 124.506 13.316 124.405 13.316C124.304 13.316 124.21 13.2733 124.125 13.188C124.045 13.1027 124.005 12.9933 124.005 12.86C124.005 12.604 124.144 12.4653 124.421 12.444C124.426 12.444 124.432 12.444 124.437 12.444ZM124.773 16.636L124.781 17.196C124.781 17.2973 124.741 17.3827 124.661 17.452C124.581 17.516 124.496 17.548 124.405 17.548C124.272 17.548 124.202 17.4813 124.197 17.348C124.128 15.6467 124.093 14.7053 124.093 14.524C124.093 14.3427 124.101 14.1213 124.117 13.86C124.128 13.764 124.189 13.716 124.301 13.716C124.584 13.716 124.744 13.8307 124.781 14.06C124.797 14.1773 124.805 14.2707 124.805 14.34L124.773 14.844V16.636ZM126.002 17.252L125.914 14.004C125.914 13.9027 125.949 13.82 126.018 13.756C126.087 13.692 126.157 13.66 126.226 13.66C126.397 13.66 126.495 13.732 126.522 13.876C126.543 14.02 126.554 14.1693 126.554 14.324C126.842 13.9453 127.202 13.756 127.634 13.756C128.295 13.756 128.626 14.5107 128.626 16.02C128.626 16.1587 128.626 16.3693 128.626 16.652C128.626 16.9293 128.61 17.132 128.578 17.26C128.541 17.42 128.426 17.5 128.234 17.5C128.106 17.5 128.042 17.4147 128.042 17.244L128.05 16.796C128.05 16.1773 128.029 15.756 127.986 15.532C127.949 15.3027 127.911 15.1213 127.874 14.988C127.783 14.7 127.637 14.556 127.434 14.556C127.167 14.556 126.981 14.652 126.874 14.844C126.757 15.052 126.687 15.2973 126.666 15.58C126.629 16.076 126.61 16.6013 126.61 17.156C126.61 17.2627 126.57 17.348 126.49 17.412C126.41 17.476 126.314 17.508 126.202 17.508C126.069 17.508 126.002 17.4227 126.002 17.252ZM131.611 17.172C131.419 17.396 131.176 17.508 130.883 17.508C130.59 17.508 130.336 17.4173 130.123 17.236C129.675 16.8893 129.451 16.3587 129.451 15.644C129.451 15.084 129.606 14.636 129.915 14.3C130.224 13.9587 130.606 13.788 131.059 13.788C131.512 13.788 131.822 13.9427 131.987 14.252C132.131 14.524 132.203 14.9347 132.203 15.484L132.187 16.14C132.187 16.4493 132.2 16.8787 132.227 17.428C132.259 17.972 132.275 18.3827 132.275 18.66C132.275 19.1187 132.16 19.4547 131.931 19.668C131.707 19.8867 131.363 19.996 130.899 19.996C130.622 19.996 130.339 19.9373 130.051 19.82C129.763 19.7027 129.619 19.5667 129.619 19.412C129.619 19.3 129.648 19.2147 129.707 19.156C129.771 19.0973 129.843 19.068 129.923 19.068C130.003 19.068 130.182 19.1267 130.459 19.244C130.742 19.3613 130.944 19.42 131.067 19.42C131.451 19.42 131.643 19.1053 131.643 18.476C131.643 17.8467 131.632 17.412 131.611 17.172ZM131.603 15.484C131.603 15.0947 131.544 14.8227 131.427 14.668C131.315 14.508 131.136 14.428 130.891 14.428C130.646 14.428 130.448 14.54 130.299 14.764C130.15 14.988 130.075 15.2733 130.075 15.62C130.075 15.9613 130.144 16.2333 130.283 16.436C130.427 16.6387 130.646 16.74 130.939 16.74C131.232 16.74 131.422 16.6147 131.507 16.364C131.571 16.1613 131.603 15.868 131.603 15.484Z" fill="#ED254E"/>
<defs>
<filter id="filter0_d_44_233" x="21.6061" y="48.6132" width="158" height="13.7735" filterUnits="userSpaceOnUse" color-interpolation-filters="sRGB">
<feFlood flood-opacity="0" result="BackgroundImageFix"/>
<feColorMatrix in="SourceAlpha" type="matrix" values="0 0 0 0 0 0 0 0 0 0 0 0 0 0 0 0 0 0 127 0" result="hardAlpha"/>
<feOffset dy="4"/>
<feGaussianBlur stdDeviation="2"/>
<feComposite in2="hardAlpha" operator="out"/>
<feColorMatrix type="matrix" values="0 0 0 0 0 0 0 0 0 0 0 0 0 0 0 0 0 0 0.25 0"/>
<feBlend mode="normal" in2="BackgroundImageFix" result="effect1_dropShadow_44_233"/>
<feBlend mode="normal" in="SourceGraphic" in2="effect1_dropShadow_44_233" result="shape"/>
</filter>
<filter id="filter1_d_44_233" x="20" y="22.1132" width="158" height="13.7735" filterUnits="userSpaceOnUse" color-interpolation-filters="sRGB">
<feFlood flood-opacity="0" result="BackgroundImageFix"/>
<feColorMatrix in="SourceAlpha" type="matrix" values="0 0 0 0 0 0 0 0 0 0 0 0 0 0 0 0 0 0 127 0" result="hardAlpha"/>
<feOffset dy="4"/>
<feGaussianBlur stdDeviation="2"/>
<feComposite in2="hardAlpha" operator="out"/>
<feColorMatrix type="matrix" values="0 0 0 0 0 0 0 0 0 0 0 0 0 0 0 0 0 0 0.25 0"/>
<feBlend mode="normal" in2="BackgroundImageFix" result="effect1_dropShadow_44_233"/>
<feBlend mode="normal" in="SourceGraphic" in2="effect1_dropShadow_44_233" result="shape"/>
</filter>
</defs>
</svg>
