<svg width="162" height="67" viewBox="0 0 162 67" fill="none" xmlns="http://www.w3.org/2000/svg">
<rect width="162" height="67" fill="white"/>
<path d="M55.248 17.416C55.392 17.416 55.528 17.484 55.656 17.62C55.784 17.756 55.848 17.9 55.848 18.052C55.848 18.196 55.776 18.344 55.632 18.496C55.496 18.648 55.352 18.724 55.2 18.724C55.048 18.724 54.908 18.66 54.78 18.532C54.66 18.404 54.6 18.24 54.6 18.04C54.6 17.656 54.808 17.448 55.224 17.416C55.232 17.416 55.24 17.416 55.248 17.416ZM55.752 23.704L55.764 24.544C55.764 24.696 55.704 24.824 55.584 24.928C55.464 25.024 55.336 25.072 55.2 25.072C55 25.072 54.896 24.972 54.888 24.772C54.784 22.22 54.732 20.808 54.732 20.536C54.732 20.264 54.744 19.932 54.768 19.54C54.784 19.396 54.876 19.324 55.044 19.324C55.468 19.324 55.708 19.496 55.764 19.84C55.788 20.016 55.8 20.156 55.8 20.26L55.752 21.016V23.704ZM57.5956 24.628L57.4636 19.756C57.4636 19.604 57.5156 19.48 57.6196 19.384C57.7236 19.288 57.8276 19.24 57.9316 19.24C58.1876 19.24 58.3356 19.348 58.3756 19.564C58.4076 19.78 58.4236 20.004 58.4236 20.236C58.8556 19.668 59.3956 19.384 60.0436 19.384C61.0356 19.384 61.5316 20.516 61.5316 22.78C61.5316 22.988 61.5316 23.304 61.5316 23.728C61.5316 24.144 61.5076 24.448 61.4596 24.64C61.4036 24.88 61.2316 25 60.9436 25C60.7516 25 60.6556 24.872 60.6556 24.616L60.6676 23.944C60.6676 23.016 60.6356 22.384 60.5716 22.048C60.5156 21.704 60.4596 21.432 60.4036 21.232C60.2676 20.8 60.0476 20.584 59.7436 20.584C59.3436 20.584 59.0636 20.728 58.9036 21.016C58.7276 21.328 58.6236 21.696 58.5916 22.12C58.5356 22.864 58.5076 23.652 58.5076 24.484C58.5076 24.644 58.4476 24.772 58.3276 24.868C58.2076 24.964 58.0636 25.012 57.8956 25.012C57.6956 25.012 57.5956 24.884 57.5956 24.628ZM62.8654 19.396L63.4654 19.408C63.6014 19.408 63.6774 19.404 63.6934 19.396V16.936C63.7014 16.8 63.7694 16.684 63.8974 16.588C64.0254 16.492 64.1454 16.444 64.2574 16.444C64.3694 16.444 64.4574 16.48 64.5214 16.552C64.5934 16.624 64.6254 16.736 64.6174 16.888C64.6094 17.04 64.6054 17.872 64.6054 19.384L66.0094 19.336C66.2494 19.336 66.3694 19.476 66.3694 19.756C66.3694 19.964 66.3054 20.12 66.1774 20.224C66.0574 20.328 65.9254 20.384 65.7814 20.392C65.6454 20.4 65.5094 20.404 65.3734 20.404L64.6414 20.392C64.6414 20.72 64.6734 21.368 64.7374 22.336C64.8094 23.304 64.8654 23.932 64.9054 24.22C64.9454 24.5 64.9534 24.684 64.9294 24.772C64.9054 24.852 64.8614 24.908 64.7974 24.94C64.6934 24.988 64.5534 25.012 64.3774 25.012C64.2014 25.012 64.0974 24.916 64.0654 24.724C63.9054 23.676 63.7974 22.236 63.7414 20.404C63.6694 20.412 63.3934 20.416 62.9134 20.416C62.4334 20.416 62.1934 20.276 62.1934 19.996C62.1934 19.596 62.4174 19.396 62.8654 19.396ZM78.3353 19.396C78.6873 19.396 78.8633 19.696 78.8633 20.296C78.8633 20.36 78.8633 20.428 78.8633 20.5L78.8393 21.34C78.8313 21.604 78.8273 21.864 78.8273 22.12L79.0073 24.832C79.0073 25.032 78.8033 25.132 78.3953 25.132C78.3713 25.132 78.3113 25.132 78.2153 25.132C78.1273 25.132 78.0633 25.096 78.0233 25.024C77.9913 24.952 77.9873 24.864 78.0113 24.76C78.0433 24.656 78.0353 24.54 77.9873 24.412C77.6193 24.804 77.1313 25 76.5233 25C75.3953 25 74.8313 24.128 74.8313 22.384C74.8313 21.416 75.0113 20.684 75.3713 20.188C75.7393 19.692 76.2633 19.444 76.9433 19.444C77.2633 19.444 77.5833 19.5 77.9033 19.612C78.0073 19.468 78.1513 19.396 78.3353 19.396ZM77.0873 20.488C76.6313 20.488 76.2913 20.62 76.0673 20.884C75.8433 21.148 75.7313 21.632 75.7313 22.336C75.7313 23.52 76.0513 24.112 76.6913 24.112C76.8593 24.112 77.0433 24.036 77.2433 23.884C77.4513 23.732 77.5953 23.56 77.6753 23.368C77.8273 22.936 77.9033 22.464 77.9033 21.952C77.9033 21.44 77.8393 21.068 77.7113 20.836C77.5913 20.604 77.3833 20.488 77.0873 20.488ZM83.1305 24.508C82.8425 24.844 82.4785 25.012 82.0385 25.012C81.5985 25.012 81.2185 24.876 80.8985 24.604C80.2265 24.084 79.8905 23.288 79.8905 22.216C79.8905 21.376 80.1225 20.704 80.5865 20.2C81.0505 19.688 81.6225 19.432 82.3025 19.432C82.9825 19.432 83.4465 19.664 83.6945 20.128C83.9105 20.536 84.0185 21.152 84.0185 21.976L83.9945 22.96C83.9945 23.424 84.0145 24.068 84.0545 24.892C84.1025 25.708 84.1265 26.324 84.1265 26.74C84.1265 27.428 83.9545 27.932 83.6105 28.252C83.2745 28.58 82.7585 28.744 82.0625 28.744C81.6465 28.744 81.2225 28.656 80.7905 28.48C80.3585 28.304 80.1425 28.1 80.1425 27.868C80.1425 27.7 80.1865 27.572 80.2745 27.484C80.3705 27.396 80.4785 27.352 80.5985 27.352C80.7185 27.352 80.9865 27.44 81.4025 27.616C81.8265 27.792 82.1305 27.88 82.3145 27.88C82.8905 27.88 83.1785 27.408 83.1785 26.464C83.1785 25.52 83.1625 24.868 83.1305 24.508ZM83.1185 21.976C83.1185 21.392 83.0305 20.984 82.8545 20.752C82.6865 20.512 82.4185 20.392 82.0505 20.392C81.6825 20.392 81.3865 20.56 81.1625 20.896C80.9385 21.232 80.8265 21.66 80.8265 22.18C80.8265 22.692 80.9305 23.1 81.1385 23.404C81.3545 23.708 81.6825 23.86 82.1225 23.86C82.5625 23.86 82.8465 23.672 82.9745 23.296C83.0705 22.992 83.1185 22.552 83.1185 21.976ZM86.7582 19.444C87.1822 19.444 87.5862 19.568 87.9702 19.816C88.3542 20.064 88.5462 20.372 88.5462 20.74C88.5462 21.1 88.3902 21.452 88.0782 21.796C87.7662 22.132 87.3502 22.336 86.8302 22.408C86.6062 22.44 86.2702 22.456 85.8222 22.456C85.9102 23.136 86.0822 23.584 86.3382 23.8C86.4182 23.888 86.5262 23.932 86.6622 23.932C87.1582 23.932 87.5742 23.776 87.9102 23.464C88.2462 23.144 88.4862 22.984 88.6302 22.984C88.6942 22.984 88.7902 23.044 88.9182 23.164C89.0462 23.284 89.1102 23.396 89.1102 23.5C89.1102 23.708 88.8582 24.008 88.3542 24.4C88.1302 24.584 87.8582 24.74 87.5382 24.868C87.2262 24.988 86.9342 25.048 86.6622 25.048C85.9662 25.048 85.4542 24.6 85.1262 23.704C84.9182 23.152 84.8142 22.544 84.8142 21.88C84.8142 21.216 84.9702 20.644 85.2822 20.164C85.5942 19.684 86.0862 19.444 86.7582 19.444ZM86.8182 20.272C86.5142 20.272 86.2542 20.444 86.0382 20.788C85.9582 20.908 85.8822 21.18 85.8102 21.604C86.9302 21.604 87.4902 21.328 87.4902 20.776C87.4902 20.44 87.2662 20.272 86.8182 20.272ZM97.8091 19.996C97.8091 20.116 97.7771 20.228 97.7131 20.332C97.6491 20.436 97.5771 20.504 97.4971 20.536C96.9771 20.568 96.5051 20.584 96.0811 20.584L93.8011 20.536C93.6091 20.536 93.5131 20.44 93.5131 20.248C93.5131 20.144 93.5451 20.04 93.6091 19.936C93.6811 19.832 93.7651 19.772 93.8611 19.756L96.1411 19.804C96.5571 19.804 97.0371 19.788 97.5811 19.756C97.7331 19.788 97.8091 19.868 97.8091 19.996ZM97.8091 22.036C97.8091 22.14 97.7771 22.24 97.7131 22.336C97.6571 22.432 97.5851 22.488 97.4971 22.504L93.7051 22.552C93.5211 22.552 93.4291 22.452 93.4291 22.252C93.4291 22.132 93.4611 22.024 93.5251 21.928C93.5891 21.824 93.6691 21.764 93.7651 21.748C94.5251 21.74 95.7851 21.736 97.5451 21.736C97.7211 21.744 97.8091 21.844 97.8091 22.036ZM108.036 25.024L106.272 25C106.192 25 106.112 25 106.032 25C105.24 25 104.844 24.848 104.844 24.544C104.844 24.328 104.884 24.124 104.964 23.932C105.044 23.74 105.12 23.596 105.192 23.5C105.264 23.404 105.408 23.244 105.624 23.02C105.84 22.796 105.996 22.628 106.092 22.516C106.188 22.404 106.476 22.12 106.956 21.664C107.444 21.208 107.808 20.796 108.048 20.428C108.296 20.06 108.42 19.672 108.42 19.264C108.42 18.632 108.168 18.224 107.664 18.04C107.52 17.992 107.372 17.968 107.22 17.968C106.876 17.968 106.532 18.116 106.188 18.412C106.052 18.54 105.908 18.604 105.756 18.604C105.708 18.604 105.664 18.6 105.624 18.592C105.424 18.544 105.324 18.404 105.324 18.172C105.324 17.86 105.544 17.6 105.984 17.392C106.456 17.168 106.968 17.056 107.52 17.056C108.08 17.056 108.536 17.26 108.888 17.668C109.248 18.068 109.428 18.568 109.428 19.168C109.428 20.024 109.164 20.76 108.636 21.376C108.388 21.664 108.136 21.932 107.88 22.18C107.072 22.948 106.532 23.532 106.26 23.932C106.62 23.956 107.064 23.968 107.592 23.968C108.128 23.968 108.788 23.936 109.572 23.872C109.692 23.896 109.788 23.952 109.86 24.04C109.94 24.12 109.98 24.212 109.98 24.316C109.98 24.588 109.836 24.776 109.548 24.88C109.26 24.976 108.756 25.024 108.036 25.024ZM111.585 19.828C111.913 19.708 112.229 19.648 112.533 19.648C112.837 19.648 113.129 19.696 113.409 19.792C113.697 19.888 113.957 20.036 114.189 20.236C114.429 20.436 114.621 20.712 114.765 21.064C114.909 21.408 114.981 21.808 114.981 22.264C114.981 23.032 114.757 23.68 114.309 24.208C113.861 24.736 113.341 25 112.749 25C112.165 25 111.649 24.868 111.201 24.604C110.761 24.332 110.541 24.036 110.541 23.716C110.541 23.564 110.557 23.452 110.589 23.38C110.629 23.3 110.697 23.236 110.793 23.188C110.889 23.14 110.973 23.116 111.045 23.116C111.125 23.116 111.229 23.164 111.357 23.26C111.493 23.348 111.681 23.476 111.921 23.644C112.161 23.812 112.437 23.896 112.749 23.896C113.061 23.896 113.337 23.74 113.577 23.428C113.817 23.108 113.937 22.76 113.937 22.384C113.937 21.304 113.453 20.764 112.485 20.764C112.277 20.764 112.033 20.784 111.753 20.824C111.481 20.864 111.301 20.888 111.213 20.896C111.133 20.904 111.021 20.876 110.877 20.812C110.709 20.652 110.625 20.144 110.625 19.288C110.625 18.424 110.645 17.868 110.685 17.62C110.725 17.364 110.793 17.216 110.889 17.176C111.057 17.104 111.557 17.068 112.389 17.068C113.229 17.068 113.901 17.148 114.405 17.308C114.565 17.404 114.645 17.544 114.645 17.728C114.645 17.904 114.593 18.048 114.489 18.16C114.393 18.272 114.289 18.316 114.177 18.292C113.513 18.148 112.845 18.076 112.173 18.076C111.965 18.076 111.757 18.084 111.549 18.1C111.549 18.412 111.561 18.988 111.585 19.828ZM119.341 20.008C119.485 20.008 119.621 20.072 119.749 20.2C119.885 20.32 119.965 20.496 119.989 20.728C119.989 20.896 119.925 21.052 119.797 21.196C119.669 21.34 119.537 21.412 119.401 21.412C119.137 21.412 118.937 21.344 118.801 21.208C118.721 21.136 118.681 21.04 118.681 20.92C118.681 20.624 118.757 20.4 118.909 20.248C119.061 20.088 119.205 20.008 119.341 20.008ZM119.989 24.508C119.989 24.932 119.877 25.292 119.653 25.588C119.437 25.884 119.233 26.032 119.041 26.032C118.857 26.032 118.765 25.972 118.765 25.852C118.765 25.796 118.845 25.664 119.005 25.456C119.173 25.256 119.277 25.084 119.317 24.94C119.141 24.94 118.985 24.872 118.849 24.736C118.713 24.6 118.645 24.44 118.645 24.256C118.645 24.072 118.701 23.912 118.813 23.776C118.925 23.64 119.073 23.572 119.257 23.572C119.441 23.572 119.585 23.608 119.689 23.68C119.889 23.808 119.989 24.084 119.989 24.508Z" fill="#ED254E"/>
<line x1="51" y1="27.5" x2="69" y2="27.5" stroke="black"/>
<line x1="75" y1="27.5" x2="93" y2="27.5" stroke="black"/>
<line x1="102" y1="27.5" x2="120" y2="27.5" stroke="black"/>
<line x1="61.5" y1="36" x2="61.5" y2="28" stroke="#63C7B2"/>
<path d="M47 36L54.625 31.6699V40.3301L47 36Z" fill="#63C7B2"/>
<line x1="54" y1="36" x2="62" y2="36" stroke="#63C7B2"/>
<line x1="111.5" y1="36" x2="111.5" y2="28" stroke="#63C7B2"/>
<path d="M126 36.0279L118.359 40.3296L118.391 31.6694L126 36.0279Z" fill="#63C7B2"/>
<line x1="119" y1="36.0019" x2="111" y2="35.972" stroke="#63C7B2"/>
<line x1="83.498" y1="36" x2="83.498" y2="28" stroke="#63C7B2"/>
<path d="M84.0033 50.0083L79.3991 42.5455L88.0537 42.231L84.0033 50.0083Z" fill="#63C7B2"/>
<line x1="83.7203" y1="43.0129" x2="83.4298" y2="35.0182" stroke="#63C7B2"/>
<path d="M10.472 37.744C10.392 37.6853 10.352 37.6213 10.352 37.552C10.352 37.4773 10.3813 37.416 10.44 37.368C10.3387 36.6053 10.288 35.7307 10.288 34.744C10.288 34.4453 10.3013 33.864 10.328 33C10.3547 32.92 10.408 32.8507 10.488 32.792C10.5733 32.7333 10.6533 32.704 10.728 32.704C10.8027 32.704 10.848 32.7067 10.864 32.712C11.6267 32.9253 12.2907 33.3387 12.856 33.952C13.4213 34.56 13.7173 35.2907 13.744 36.144C13.744 37.0827 13.3547 37.672 12.576 37.912C12.352 37.9813 12.1147 38.016 11.864 38.016C11.6187 38.016 11.4027 37.9973 11.216 37.96C11.2373 38.0027 11.248 38.0587 11.248 38.128C11.248 38.2027 11.2027 38.272 11.112 38.336C11.0267 38.4053 10.9227 38.44 10.8 38.44C10.6827 38.44 10.608 38.368 10.576 38.224L10.472 37.744ZM10.952 34.68C10.952 35.6133 11.0053 36.4987 11.112 37.336C11.24 37.3733 11.456 37.392 11.76 37.392C12.064 37.392 12.3547 37.3413 12.632 37.24C12.9147 37.1387 13.064 36.9893 13.08 36.792C13.096 36.6427 13.104 36.528 13.104 36.448C13.104 35.7547 12.9173 35.1413 12.544 34.608C12.176 34.0747 11.6587 33.6693 10.992 33.392C10.9653 34.0213 10.952 34.4507 10.952 34.68ZM16.3329 34.264C16.5675 34.264 16.6849 34.464 16.6849 34.864C16.6849 34.9067 16.6849 34.952 16.6849 35L16.6689 35.56C16.6635 35.736 16.6609 35.9093 16.6609 36.08L16.7809 37.888C16.7809 38.0213 16.6449 38.088 16.3729 38.088C16.3569 38.088 16.3169 38.088 16.2529 38.088C16.1942 38.088 16.1515 38.064 16.1249 38.016C16.1035 37.968 16.1009 37.9093 16.1169 37.84C16.1382 37.7707 16.1329 37.6933 16.1009 37.608C15.8555 37.8693 15.5302 38 15.1249 38C14.3729 38 13.9969 37.4187 13.9969 36.256C13.9969 35.6107 14.1169 35.1227 14.3569 34.792C14.6022 34.4613 14.9515 34.296 15.4049 34.296C15.6182 34.296 15.8315 34.3333 16.0449 34.408C16.1142 34.312 16.2102 34.264 16.3329 34.264ZM15.5009 34.992C15.1969 34.992 14.9702 35.08 14.8209 35.256C14.6715 35.432 14.5969 35.7547 14.5969 36.224C14.5969 37.0133 14.8102 37.408 15.2369 37.408C15.3489 37.408 15.4715 37.3573 15.6049 37.256C15.7435 37.1547 15.8395 37.04 15.8929 36.912C15.9942 36.624 16.0449 36.3093 16.0449 35.968C16.0449 35.6267 16.0022 35.3787 15.9169 35.224C15.8369 35.0693 15.6982 34.992 15.5009 34.992ZM17.4337 34.264L17.8337 34.272C17.9244 34.272 17.975 34.2693 17.9857 34.264V32.624C17.991 32.5333 18.0364 32.456 18.1217 32.392C18.207 32.328 18.287 32.296 18.3617 32.296C18.4364 32.296 18.495 32.32 18.5377 32.368C18.5857 32.416 18.607 32.4907 18.6017 32.592C18.5964 32.6933 18.5937 33.248 18.5937 34.256L19.5297 34.224C19.6897 34.224 19.7697 34.3173 19.7697 34.504C19.7697 34.6427 19.727 34.7467 19.6417 34.816C19.5617 34.8853 19.4737 34.9227 19.3777 34.928C19.287 34.9333 19.1964 34.936 19.1057 34.936L18.6177 34.928C18.6177 35.1467 18.639 35.5787 18.6817 36.224C18.7297 36.8693 18.767 37.288 18.7937 37.48C18.8204 37.6667 18.8257 37.7893 18.8097 37.848C18.7937 37.9013 18.7644 37.9387 18.7217 37.96C18.6524 37.992 18.559 38.008 18.4417 38.008C18.3244 38.008 18.255 37.944 18.2337 37.816C18.127 37.1173 18.055 36.1573 18.0177 34.936C17.9697 34.9413 17.7857 34.944 17.4657 34.944C17.1457 34.944 16.9857 34.8507 16.9857 34.664C16.9857 34.3973 17.135 34.264 17.4337 34.264ZM22.2157 34.264C22.4504 34.264 22.5677 34.464 22.5677 34.864C22.5677 34.9067 22.5677 34.952 22.5677 35L22.5517 35.56C22.5464 35.736 22.5437 35.9093 22.5437 36.08L22.6637 37.888C22.6637 38.0213 22.5277 38.088 22.2557 38.088C22.2397 38.088 22.1997 38.088 22.1357 38.088C22.077 38.088 22.0344 38.064 22.0077 38.016C21.9864 37.968 21.9837 37.9093 21.9997 37.84C22.021 37.7707 22.0157 37.6933 21.9837 37.608C21.7384 37.8693 21.413 38 21.0077 38C20.2557 38 19.8797 37.4187 19.8797 36.256C19.8797 35.6107 19.9997 35.1227 20.2397 34.792C20.485 34.4613 20.8344 34.296 21.2877 34.296C21.501 34.296 21.7144 34.3333 21.9277 34.408C21.997 34.312 22.093 34.264 22.2157 34.264ZM21.3837 34.992C21.0797 34.992 20.853 35.08 20.7037 35.256C20.5544 35.432 20.4797 35.7547 20.4797 36.224C20.4797 37.0133 20.693 37.408 21.1197 37.408C21.2317 37.408 21.3544 37.3573 21.4877 37.256C21.6264 37.1547 21.7224 37.04 21.7757 36.912C21.877 36.624 21.9277 36.3093 21.9277 35.968C21.9277 35.6267 21.885 35.3787 21.7997 35.224C21.7197 35.0693 21.581 34.992 21.3837 34.992ZM25.0083 32.808L28.2483 32.76C28.4029 32.808 28.4803 32.8853 28.4803 32.992C28.4803 33.2587 28.3709 33.392 28.1523 33.392C27.7523 33.392 27.3283 33.4027 26.8803 33.424C26.8536 33.8827 26.8403 34.2293 26.8403 34.464C26.8403 34.6933 26.8403 34.84 26.8403 34.904L26.8723 37.712C26.8723 37.8773 26.8296 37.9733 26.7443 38C26.6803 38.0213 26.6003 38.032 26.5043 38.032C26.3496 38.032 26.2643 37.944 26.2483 37.768C26.2163 37.3573 26.2003 36.592 26.2003 35.472C26.2003 34.3467 26.2163 33.6693 26.2483 33.44C26.1363 33.4453 25.9709 33.448 25.7523 33.448C25.5336 33.448 25.2616 33.4453 24.9363 33.44C24.8509 33.44 24.7843 33.4133 24.7363 33.36C24.6883 33.3067 24.6643 33.2427 24.6643 33.168C24.6643 33.088 24.6963 33.0107 24.7603 32.936C24.8296 32.8613 24.9123 32.8187 25.0083 32.808ZM31.2544 34.304C31.3238 34.304 31.3904 34.328 31.4544 34.376C31.5238 34.424 31.5584 34.4773 31.5584 34.536C31.5584 34.6907 31.3318 35.528 30.8784 37.048C30.4251 38.568 30.0891 39.6347 29.8704 40.248C29.8224 40.392 29.7478 40.464 29.6464 40.464C29.5451 40.464 29.4651 40.4267 29.4064 40.352C29.3478 40.2827 29.3184 40.1787 29.3184 40.04C29.3184 39.9013 29.4064 39.568 29.5824 39.04C29.7638 38.5173 29.8731 38.184 29.9104 38.04C29.7771 37.816 29.3264 36.696 28.5584 34.68C28.5478 34.6533 28.5424 34.6187 28.5424 34.576C28.5424 34.5333 28.5744 34.4773 28.6384 34.408C28.7024 34.3387 28.7904 34.304 28.9024 34.304C29.0144 34.304 29.1051 34.36 29.1744 34.472C29.2491 34.664 29.3718 35 29.5424 35.48C29.7131 35.9547 29.8438 36.2987 29.9344 36.512C30.0304 36.7253 30.1211 36.9467 30.2064 37.176C30.2811 36.9253 30.4091 36.44 30.5904 35.72C30.7718 34.9947 30.8758 34.5813 30.9024 34.48C30.9238 34.3627 31.0411 34.304 31.2544 34.304ZM33.3493 37.992C33.1679 37.992 32.9999 37.9307 32.8453 37.808C32.8453 37.808 32.8106 37.7787 32.7413 37.72V40.12C32.7093 40.2267 32.6533 40.3147 32.5733 40.384C32.4933 40.4587 32.4079 40.496 32.3173 40.496C32.1786 40.496 32.1093 40.4027 32.1093 40.216V34.64C32.1413 34.5013 32.1786 34.4027 32.2213 34.344C32.2693 34.2853 32.3413 34.256 32.4373 34.256C32.5386 34.256 32.6026 34.28 32.6293 34.328C32.6613 34.3707 32.6986 34.4933 32.7413 34.696C32.7626 34.5893 32.8479 34.4907 32.9973 34.4C33.1466 34.3093 33.3466 34.264 33.5973 34.264C34.1413 34.264 34.5279 34.4613 34.7573 34.856C34.9866 35.2507 35.1013 35.7173 35.1013 36.256C35.1013 36.7893 34.9439 37.2133 34.6293 37.528C34.3199 37.8373 33.8933 37.992 33.3493 37.992ZM32.7413 35.592V37.08C32.7733 37.096 32.8106 37.1227 32.8533 37.16C33.0079 37.2987 33.1759 37.368 33.3573 37.368C34.0933 37.368 34.4613 36.9893 34.4613 36.232C34.4613 35.5867 34.2959 35.1787 33.9653 35.008C33.8266 34.9333 33.6559 34.896 33.4533 34.896C33.2559 34.9227 33.0879 35.0107 32.9493 35.16C32.8106 35.304 32.7413 35.448 32.7413 35.592ZM36.6591 34.296C36.9418 34.296 37.2111 34.3787 37.4671 34.544C37.7231 34.7093 37.8511 34.9147 37.8511 35.16C37.8511 35.4 37.7471 35.6347 37.5391 35.864C37.3311 36.088 37.0538 36.224 36.7071 36.272C36.5578 36.2933 36.3338 36.304 36.0351 36.304C36.0938 36.7573 36.2085 37.056 36.3791 37.2C36.4325 37.2587 36.5045 37.288 36.5951 37.288C36.9258 37.288 37.2031 37.184 37.4271 36.976C37.6511 36.7627 37.8111 36.656 37.9071 36.656C37.9498 36.656 38.0138 36.696 38.0991 36.776C38.1845 36.856 38.2271 36.9307 38.2271 37C38.2271 37.1387 38.0591 37.3387 37.7231 37.6C37.5738 37.7227 37.3925 37.8267 37.1791 37.912C36.9711 37.992 36.7765 38.032 36.5951 38.032C36.1311 38.032 35.7898 37.7333 35.5711 37.136C35.4325 36.768 35.3631 36.3627 35.3631 35.92C35.3631 35.4773 35.4671 35.096 35.6751 34.776C35.8831 34.456 36.2111 34.296 36.6591 34.296ZM36.6991 34.848C36.4965 34.848 36.3231 34.9627 36.1791 35.192C36.1258 35.272 36.0751 35.4533 36.0271 35.736C36.7738 35.736 37.1471 35.552 37.1471 35.184C37.1471 34.96 36.9978 34.848 36.6991 34.848Z" fill="#63C7B2"/>
<path d="M71.36 57.848C71.1413 57.2027 70.9147 56.6133 70.68 56.08C70.4453 55.5413 70.144 54.8667 69.776 54.056C69.648 53.7733 69.568 53.6 69.536 53.536C69.504 53.4667 69.488 53.392 69.488 53.312C69.488 53.2267 69.528 53.144 69.608 53.064C69.6933 52.984 69.7867 52.944 69.888 52.944C69.9893 52.944 70.0747 52.9947 70.144 53.096L70.528 53.976C71.0667 55.2187 71.4507 56.1227 71.68 56.688L71.824 56.128C71.9413 55.6373 72.064 55.152 72.192 54.672C72.5547 53.36 72.912 52.704 73.264 52.704C73.328 52.704 73.3813 52.7227 73.424 52.76C73.472 52.7973 73.496 52.848 73.496 52.912C73.496 52.976 73.4613 53.0693 73.392 53.192C73.328 53.3147 73.2453 53.536 73.144 53.856C73.0427 54.176 72.9787 54.3653 72.952 54.424C72.9307 54.4773 72.8027 54.9253 72.568 55.768C72.3387 56.6107 72.1413 57.272 71.976 57.752C71.9493 57.8373 71.8987 57.9093 71.824 57.968C71.7493 58.0213 71.664 58.048 71.568 58.048C71.4773 58.048 71.408 57.9813 71.36 57.848ZM76.0282 54.264C76.2629 54.264 76.3802 54.464 76.3802 54.864C76.3802 54.9067 76.3802 54.952 76.3802 55L76.3642 55.56C76.3589 55.736 76.3562 55.9093 76.3562 56.08L76.4762 57.888C76.4762 58.0213 76.3402 58.088 76.0682 58.088C76.0522 58.088 76.0122 58.088 75.9482 58.088C75.8895 58.088 75.8469 58.064 75.8202 58.016C75.7989 57.968 75.7962 57.9093 75.8122 57.84C75.8335 57.7707 75.8282 57.6933 75.7962 57.608C75.5509 57.8693 75.2255 58 74.8202 58C74.0682 58 73.6922 57.4187 73.6922 56.256C73.6922 55.6107 73.8122 55.1227 74.0522 54.792C74.2975 54.4613 74.6469 54.296 75.1002 54.296C75.3135 54.296 75.5269 54.3333 75.7402 54.408C75.8095 54.312 75.9055 54.264 76.0282 54.264ZM75.1962 54.992C74.8922 54.992 74.6655 55.08 74.5162 55.256C74.3669 55.432 74.2922 55.7547 74.2922 56.224C74.2922 57.0133 74.5055 57.408 74.9322 57.408C75.0442 57.408 75.1669 57.3573 75.3002 57.256C75.4389 57.1547 75.5349 57.04 75.5882 56.912C75.6895 56.624 75.7402 56.3093 75.7402 55.968C75.7402 55.6267 75.6975 55.3787 75.6122 55.224C75.5322 55.0693 75.3935 54.992 75.1962 54.992ZM77.961 56.832L77.969 57.656C77.969 57.752 77.9237 57.84 77.833 57.92C77.7477 58 77.6623 58.04 77.577 58.04C77.4543 58.04 77.377 57.944 77.345 57.752C77.3397 57.7093 77.3183 57.32 77.281 56.584C77.2437 55.8427 77.1717 55.2613 77.065 54.84C77.017 54.6373 76.993 54.5173 76.993 54.48C76.993 54.304 77.0997 54.216 77.313 54.216C77.4037 54.216 77.4757 54.2507 77.529 54.32C77.5823 54.3893 77.6143 54.4613 77.625 54.536C77.641 54.6053 77.6543 54.7013 77.665 54.824C77.6757 54.9467 77.6837 55.024 77.689 55.056C77.801 54.7893 77.969 54.5893 78.193 54.456C78.417 54.3227 78.6623 54.256 78.929 54.256C79.3663 54.256 79.585 54.368 79.585 54.592C79.585 54.704 79.545 54.7947 79.465 54.864C79.3903 54.928 79.3023 54.96 79.201 54.96C78.7477 54.96 78.4277 55.104 78.241 55.392C78.0543 55.68 77.961 56.16 77.961 56.832ZM80.5351 52.944C80.6311 52.944 80.7218 52.9893 80.8071 53.08C80.8925 53.1707 80.9351 53.2667 80.9351 53.368C80.9351 53.464 80.8871 53.5627 80.7911 53.664C80.7005 53.7653 80.6045 53.816 80.5031 53.816C80.4018 53.816 80.3085 53.7733 80.2231 53.688C80.1431 53.6027 80.1031 53.4933 80.1031 53.36C80.1031 53.104 80.2418 52.9653 80.5191 52.944C80.5245 52.944 80.5298 52.944 80.5351 52.944ZM80.8711 57.136L80.8791 57.696C80.8791 57.7973 80.8391 57.8827 80.7591 57.952C80.6791 58.016 80.5938 58.048 80.5031 58.048C80.3698 58.048 80.3005 57.9813 80.2951 57.848C80.2258 56.1467 80.1911 55.2053 80.1911 55.024C80.1911 54.8427 80.1991 54.6213 80.2151 54.36C80.2258 54.264 80.2871 54.216 80.3991 54.216C80.6818 54.216 80.8418 54.3307 80.8791 54.56C80.8951 54.6773 80.9031 54.7707 80.9031 54.84L80.8711 55.344V57.136ZM84.0282 54.264C84.2629 54.264 84.3802 54.464 84.3802 54.864C84.3802 54.9067 84.3802 54.952 84.3802 55L84.3642 55.56C84.3589 55.736 84.3562 55.9093 84.3562 56.08L84.4762 57.888C84.4762 58.0213 84.3402 58.088 84.0682 58.088C84.0522 58.088 84.0122 58.088 83.9482 58.088C83.8895 58.088 83.8469 58.064 83.8202 58.016C83.7989 57.968 83.7962 57.9093 83.8122 57.84C83.8335 57.7707 83.8282 57.6933 83.7962 57.608C83.5509 57.8693 83.2255 58 82.8202 58C82.0682 58 81.6922 57.4187 81.6922 56.256C81.6922 55.6107 81.8122 55.1227 82.0522 54.792C82.2975 54.4613 82.6469 54.296 83.1002 54.296C83.3135 54.296 83.5269 54.3333 83.7402 54.408C83.8095 54.312 83.9055 54.264 84.0282 54.264ZM83.1962 54.992C82.8922 54.992 82.6655 55.08 82.5162 55.256C82.3669 55.432 82.2922 55.7547 82.2922 56.224C82.2922 57.0133 82.5055 57.408 82.9322 57.408C83.0442 57.408 83.1669 57.3573 83.3002 57.256C83.4389 57.1547 83.5349 57.04 83.5882 56.912C83.6895 56.624 83.7402 56.3093 83.7402 55.968C83.7402 55.6267 83.6975 55.3787 83.6122 55.224C83.5322 55.0693 83.3935 54.992 83.1962 54.992ZM84.945 52.592C84.945 52.3787 85.0783 52.272 85.345 52.272C85.4677 52.272 85.5397 52.3467 85.561 52.496V53.696C85.561 53.92 85.5637 54.144 85.569 54.368C85.6757 54.336 85.8117 54.32 85.977 54.32C86.4943 54.32 86.8943 54.4933 87.177 54.84C87.4597 55.1867 87.601 55.6213 87.601 56.144C87.601 56.6667 87.433 57.1093 87.097 57.472C86.7663 57.8293 86.3397 58.008 85.817 58.008C85.2943 58.008 85.033 57.8613 85.033 57.568C85.033 57.2693 85.017 56.5173 84.985 55.312C84.9583 54.1013 84.945 53.1947 84.945 52.592ZM86.561 55.168C86.369 55.0187 86.1663 54.944 85.953 54.944C85.8357 54.944 85.7157 54.9653 85.593 55.008C85.625 55.4453 85.641 56.2213 85.641 57.336C85.7317 57.368 85.825 57.384 85.921 57.384C86.129 57.384 86.337 57.3067 86.545 57.152C86.8543 56.9387 87.009 56.6133 87.009 56.176C87.009 55.7333 86.8597 55.3973 86.561 55.168ZM88.2019 52.824C88.2179 52.6213 88.2499 52.4907 88.2979 52.432C88.3512 52.368 88.4339 52.336 88.5459 52.336C88.7752 52.336 88.8899 52.4293 88.8899 52.616C88.8899 52.76 88.8765 53.136 88.8499 53.744C88.8285 54.352 88.8179 54.896 88.8179 55.376C88.8179 55.856 88.8365 56.2427 88.8739 56.536C88.9379 57.048 89.0285 57.304 89.1459 57.304C89.2632 57.304 89.3512 57.2213 89.4099 57.056C89.4365 56.992 89.4792 56.936 89.5379 56.888C89.5965 56.8347 89.6712 56.808 89.7619 56.808C89.9485 56.808 90.0419 56.9653 90.0419 57.28C90.0419 57.4507 89.9485 57.6213 89.7619 57.792C89.5805 57.9573 89.3992 58.04 89.2179 58.04C89.0365 58.04 88.8899 58.0107 88.7779 57.952C88.6712 57.888 88.5832 57.7947 88.5139 57.672C88.4499 57.5493 88.3965 57.432 88.3539 57.32C88.3165 57.2027 88.2899 57.0613 88.2739 56.896C88.2419 56.6293 88.2179 56.2027 88.2019 55.616C88.1912 55.024 88.1859 54.4613 88.1859 53.928C88.1859 53.3893 88.1912 53.0213 88.2019 52.824ZM91.5029 54.296C91.7855 54.296 92.0549 54.3787 92.3109 54.544C92.5669 54.7093 92.6949 54.9147 92.6949 55.16C92.6949 55.4 92.5909 55.6347 92.3829 55.864C92.1749 56.088 91.8975 56.224 91.5509 56.272C91.4015 56.2933 91.1775 56.304 90.8789 56.304C90.9375 56.7573 91.0522 57.056 91.2229 57.2C91.2762 57.2587 91.3482 57.288 91.4389 57.288C91.7695 57.288 92.0469 57.184 92.2709 56.976C92.4949 56.7627 92.6549 56.656 92.7509 56.656C92.7935 56.656 92.8575 56.696 92.9429 56.776C93.0282 56.856 93.0709 56.9307 93.0709 57C93.0709 57.1387 92.9029 57.3387 92.5669 57.6C92.4175 57.7227 92.2362 57.8267 92.0229 57.912C91.8149 57.992 91.6202 58.032 91.4389 58.032C90.9749 58.032 90.6335 57.7333 90.4149 57.136C90.2762 56.768 90.2069 56.3627 90.2069 55.92C90.2069 55.4773 90.3109 55.096 90.5189 54.776C90.7269 54.456 91.0549 54.296 91.5029 54.296ZM91.5429 54.848C91.3402 54.848 91.1669 54.9627 91.0229 55.192C90.9695 55.272 90.9189 55.4533 90.8709 55.736C91.6175 55.736 91.9909 55.552 91.9909 55.184C91.9909 54.96 91.8415 54.848 91.5429 54.848Z" fill="#63C7B2"/>
<path d="M130.36 38.848C130.141 38.2027 129.915 37.6133 129.68 37.08C129.445 36.5413 129.144 35.8667 128.776 35.056C128.648 34.7733 128.568 34.6 128.536 34.536C128.504 34.4667 128.488 34.392 128.488 34.312C128.488 34.2267 128.528 34.144 128.608 34.064C128.693 33.984 128.787 33.944 128.888 33.944C128.989 33.944 129.075 33.9947 129.144 34.096L129.528 34.976C130.067 36.2187 130.451 37.1227 130.68 37.688L130.824 37.128C130.941 36.6373 131.064 36.152 131.192 35.672C131.555 34.36 131.912 33.704 132.264 33.704C132.328 33.704 132.381 33.7227 132.424 33.76C132.472 33.7973 132.496 33.848 132.496 33.912C132.496 33.976 132.461 34.0693 132.392 34.192C132.328 34.3147 132.245 34.536 132.144 34.856C132.043 35.176 131.979 35.3653 131.952 35.424C131.931 35.4773 131.803 35.9253 131.568 36.768C131.339 37.6107 131.141 38.272 130.976 38.752C130.949 38.8373 130.899 38.9093 130.824 38.968C130.749 39.0213 130.664 39.048 130.568 39.048C130.477 39.048 130.408 38.9813 130.36 38.848ZM135.028 35.264C135.263 35.264 135.38 35.464 135.38 35.864C135.38 35.9067 135.38 35.952 135.38 36L135.364 36.56C135.359 36.736 135.356 36.9093 135.356 37.08L135.476 38.888C135.476 39.0213 135.34 39.088 135.068 39.088C135.052 39.088 135.012 39.088 134.948 39.088C134.89 39.088 134.847 39.064 134.82 39.016C134.799 38.968 134.796 38.9093 134.812 38.84C134.834 38.7707 134.828 38.6933 134.796 38.608C134.551 38.8693 134.226 39 133.82 39C133.068 39 132.692 38.4187 132.692 37.256C132.692 36.6107 132.812 36.1227 133.052 35.792C133.298 35.4613 133.647 35.296 134.1 35.296C134.314 35.296 134.527 35.3333 134.74 35.408C134.81 35.312 134.906 35.264 135.028 35.264ZM134.196 35.992C133.892 35.992 133.666 36.08 133.516 36.256C133.367 36.432 133.292 36.7547 133.292 37.224C133.292 38.0133 133.506 38.408 133.932 38.408C134.044 38.408 134.167 38.3573 134.3 38.256C134.439 38.1547 134.535 38.04 134.588 37.912C134.69 37.624 134.74 37.3093 134.74 36.968C134.74 36.6267 134.698 36.3787 134.612 36.224C134.532 36.0693 134.394 35.992 134.196 35.992ZM135.905 33.824C135.921 33.6213 135.953 33.4907 136.001 33.432C136.054 33.368 136.137 33.336 136.249 33.336C136.478 33.336 136.593 33.4293 136.593 33.616C136.593 33.76 136.58 34.136 136.553 34.744C136.532 35.352 136.521 35.896 136.521 36.376C136.521 36.856 136.54 37.2427 136.577 37.536C136.641 38.048 136.732 38.304 136.849 38.304C136.966 38.304 137.054 38.2213 137.113 38.056C137.14 37.992 137.182 37.936 137.241 37.888C137.3 37.8347 137.374 37.808 137.465 37.808C137.652 37.808 137.745 37.9653 137.745 38.28C137.745 38.4507 137.652 38.6213 137.465 38.792C137.284 38.9573 137.102 39.04 136.921 39.04C136.74 39.04 136.593 39.0107 136.481 38.952C136.374 38.888 136.286 38.7947 136.217 38.672C136.153 38.5493 136.1 38.432 136.057 38.32C136.02 38.2027 135.993 38.0613 135.977 37.896C135.945 37.6293 135.921 37.2027 135.905 36.616C135.894 36.024 135.889 35.4613 135.889 34.928C135.889 34.3893 135.894 34.0213 135.905 33.824ZM138.038 35.576C138.059 35.4853 138.105 35.4107 138.174 35.352C138.243 35.288 138.313 35.256 138.382 35.256C138.457 35.256 138.513 35.2693 138.55 35.296C138.593 35.3227 138.617 35.3467 138.622 35.368C138.633 35.3893 138.643 35.4267 138.654 35.48C138.622 35.896 138.606 36.272 138.606 36.608C138.606 36.9387 138.646 37.32 138.726 37.752C138.806 38.1787 138.894 38.392 138.99 38.392C139.134 38.392 139.315 38.312 139.534 38.152C139.758 37.992 139.918 37.824 140.014 37.648C139.95 36.88 139.918 36.2213 139.918 35.672C139.918 35.56 139.953 35.464 140.022 35.384C140.097 35.304 140.185 35.264 140.286 35.264C140.451 35.264 140.534 35.376 140.534 35.6C140.534 35.9787 140.561 36.5413 140.614 37.288C140.673 38.0347 140.731 38.5093 140.79 38.712C140.801 38.7547 140.806 38.8053 140.806 38.864C140.806 38.9173 140.769 38.968 140.694 39.016C140.625 39.0693 140.531 39.096 140.414 39.096C140.302 39.096 140.227 39.032 140.19 38.904C140.179 38.7973 140.153 38.6373 140.11 38.424C139.737 38.8133 139.361 39.008 138.982 39.008C138.806 39.008 138.649 38.9413 138.51 38.808C138.371 38.6747 138.262 38.4933 138.182 38.264C138.043 37.8213 137.974 37.4053 137.974 37.016C137.974 36.6267 137.995 36.1467 138.038 35.576ZM142.409 35.296C142.692 35.296 142.961 35.3787 143.217 35.544C143.473 35.7093 143.601 35.9147 143.601 36.16C143.601 36.4 143.497 36.6347 143.289 36.864C143.081 37.088 142.804 37.224 142.457 37.272C142.308 37.2933 142.084 37.304 141.785 37.304C141.844 37.7573 141.958 38.056 142.129 38.2C142.182 38.2587 142.254 38.288 142.345 38.288C142.676 38.288 142.953 38.184 143.177 37.976C143.401 37.7627 143.561 37.656 143.657 37.656C143.7 37.656 143.764 37.696 143.849 37.776C143.934 37.856 143.977 37.9307 143.977 38C143.977 38.1387 143.809 38.3387 143.473 38.6C143.324 38.7227 143.142 38.8267 142.929 38.912C142.721 38.992 142.526 39.032 142.345 39.032C141.881 39.032 141.54 38.7333 141.321 38.136C141.182 37.768 141.113 37.3627 141.113 36.92C141.113 36.4773 141.217 36.096 141.425 35.776C141.633 35.456 141.961 35.296 142.409 35.296ZM142.449 35.848C142.246 35.848 142.073 35.9627 141.929 36.192C141.876 36.272 141.825 36.4533 141.777 36.736C142.524 36.736 142.897 36.552 142.897 36.184C142.897 35.96 142.748 35.848 142.449 35.848Z" fill="#63C7B2"/>
</svg>
