<svg width="13" height="17" viewBox="0 0 13 17" fill="none" xmlns="http://www.w3.org/2000/svg">
<path d="M2 1.6H11C11.7732 1.6 12.4 2.2268 12.4 3V15C12.4 15.7732 11.7732 16.4 11 16.4H2C1.2268 16.4 0.6 15.7732 0.6 15V3C0.6 2.2268 1.2268 1.6 2 1.6Z" stroke="#2586D0" stroke-width="1.2"/>
<path d="M6.476 6.808L6.395 9.877C6.395 10.207 6.398 10.423 6.404 10.525C6.38 10.603 6.332 10.672 6.26 10.732C6.194 10.792 6.119 10.822 6.035 10.822C5.951 10.822 5.882 10.756 5.828 10.624C5.738 9.112 5.693 7.84 5.693 6.808C5.747 6.658 5.885 6.583 6.107 6.583C6.329 6.583 6.452 6.658 6.476 6.808ZM5.855 12.568C5.765 12.46 5.72 12.352 5.72 12.244C5.72 12.136 5.762 12.037 5.846 11.947C5.93 11.857 6.041 11.812 6.179 11.812C6.323 11.812 6.425 11.839 6.485 11.893C6.551 11.947 6.584 12.064 6.584 12.244C6.584 12.562 6.452 12.721 6.188 12.721C6.056 12.721 5.945 12.67 5.855 12.568Z" fill="#2586D0"/>
<circle cx="6.5" cy="1.5" r="1.5" fill="#2586D0"/>
</svg>
